{
.formatVersion = 3;
classes = (
{
code = "one two three B D F I J P S T V W X Y Igrave Iacute Icircumflex Idieresis Eth Yacute Thorn eth Dcaron dcaron Dcroat Itilde Imacron Ibreve Iogonek Idotaccent IJ Jcircumflex lcaron Sacute Scircumflex Scaron Tcaron Tbar Wcircumflex Ycircumflex Ydieresis uni0218 uni021A uni0402 uni0405 uni0406 uni0407 uni0408 uni0409 uni040A uni040E uni0411 uni0412 uni0414 uni0417 uni0420 uni0422 uni0423 uni0424 uni0425 uni042A uni042B uni042C uni042D uni042E Wgrave Wacute Wdieresis Ygrave G_r G_s f_f f_j g_j j_j l_l q_j r.alt r.fina r.init racute.alt racute.fina racute.init rcaron.alt rcaron.fina rcaron.init s.alt s.fina s.init s_s sacute.alt sacute.fina sacute.init scaron.alt scaron.fina scaron.init scedilla.alt scedilla.fina scedilla.init scircumflex.alt scircumflex.fina scircumflex.init t_h t_t uni0157.alt uni0157.fina uni0157.init uni0219.alt uni0219.fina uni0219.init uni0412044F uni0422044F uni0433.alt uni0433.fina uni0433.init uni0436.alt uni0436.fina uni0436.init uni0436.ss02.alt uni0436.ss02.fina uni0436.ss02.init uni0437.alt uni0437.fina uni0437.init uni043B.alt uni043B.init uni043C.alt uni043C.init uni0445.alt uni0445.fina uni0445.init uni0447.alt uni0447.fina uni0447.init uni044A.alt uni044A.fina uni044A.init uni044D.alt uni044D.fina uni044D.init uni044F.alt uni044F.init uni0453.alt uni0453.fina uni0453.init uni0455.alt uni0455.fina uni0455.init uni0459.alt uni0459.init uni0491.alt uni0491.fina uni0491.init x.alt x.fina x.init y_j z.alt z.fina z.init zacute.alt zacute.fina zacute.init zcaron.alt zcaron.fina zcaron.init zdotaccent.alt zdotaccent.fina zdotaccent.init";
name = aalt;
},
{

glyphs = (
{
glyphname = .notdef;
layers = (
{
hints = (
{
horizontal = 1;
place = (-18,65);
type = Stem;
},
{
horizontal = 1;
place = (641,67);
type = Stem;
},
{
place = (94,76);
type = Stem;
},
{
place = (455,66);
type = Stem;
}
);
layerId = "986E1480-5ACC-463A-8EAE-4F79F3B98EB6";
shapes = (
{
closed = 1;
nodes = (
(519,677,o),
(503,708,o),
(471,708,c),
(142,709,l),
(109,709,o),
(93,678,o),
(93,647,cs),
(93,632,o),
(94,593,o),
(94,539,cs),
(94,464,o),
(92,358,o),
(84,247,cs),
(79,177,o),
(73,108,o),
(73,47,cs),
(73,4,o),
(106,-17,o),
(140,-17,c),
(435,-18,l),
(469,-18,o),
(503,4,o),
(503,48,cs),
(503,78,o),
(508,154,o),
(514,238,cs),
(520,318,o),
(521,401,o),
(521,471,cs),
(521,557,o),
(519,625,o),
(519,645,cs)
);
},
{
closed = 1;
nodes = (
(437,178,o),
(432,109,o),
(431,48,c),
(431,47,l),
(151,48,l),
(151,49,l),
(151,79,o),
(152,154,o),
(158,238,cs),
(165,333,o),
(170,440,o),
(170,530,cs),
(170,572,o),
(169,611,o),
(166,642,c),
(446,641,l),
(452,612,o),
(455,569,o),
(455,516,cs),
(455,439,o),
(449,342,o),
(442,247,cs)
);
},
{
closed = 1;
nodes = (
(362,467,o),
(356,464,o),
(349,460,cs),
(334,451,o),
(314,422,o),
(296,386,c),
(291,407,o),
(288,428,o),
(287,446,cs),
(286,460,o),
(278,468,o),
(268,468,c),
(267,468,o),
(267,468,o),
(266,468,c),
(251,467,o),
(243,460,o),
(243,448,cs),
(243,446,o),
(243,439,o),
(244,430,cs),
(247,401,o),
(256,365,o),
(271,329,c),
(247,276,o),
(240,270,o),
(236,270,cs),
(232,270,o),
(228,274,o),
(225,277,cs),
(220,282,o),
(216,282,o),
(210,282,cs),
(200,282,o),
(193,273,o),
(193,263,cs),
(193,256,o),
(196,249,o),
(202,243,cs),
(211,235,o),
(222,231,o),
(236,231,cs),
(262,231,o),
(280,252,o),
(296,282,c),
(307,264,o),
(320,247,o),
(336,231,cs),
(343,224,o),
(349,218,o),
(357,218,cs),
(372,218,o),
(379,230,o),
(379,240,cs),
(379,247,o),
(377,252,o),
(370,257,cs),
(347,273,o),
(329,298,o),
(316,327,c),
(336,375,o),
(357,411,o),
(379,430,cs),
(386,436,o),
(390,441,o),
(390,447,cs),
(390,460,o),
(380,467,o),
(369,467,cs)
);
}
);
width = 600;
}
);
},
{
glyphname = exclam;
layers = (
{
hints = (
{
horizontal = 1;
place = (-13,121);
type = Stem;
},
{
place = (74,120);
type = Stem;
},
{
place = (98,93);
type = Stem;
}
);
layerId = "986E1480-5ACC-463A-8EAE-4F79F3B98EB6";
shapes = (
{
closed = 1;
nodes = (
(159,166,o),
(180,182,o),
(183,215,c),
(189,303,o),
(191,393,o),
(191,474,cs),
(191,553,o),
(189,624,o),
(185,676,cs),
(182,711,o),
(159,729,o),
(136,729,cs),
(112,729,o),
(88,708,o),
(92,668,cs),
(96,619,o),
(98,555,o),
(98,485,cs),
(98,359,o),
(90,279,o),
(90,217,cs),
(90,184,o),
(113,166,o),
(136,166,cs)
);
},
{
closed = 1;
nodes = (
(168,-13,o),
(194,14,o),
(194,48,cs),
(194,82,o),
(168,108,o),
(135,108,cs),
(100,108,o),
(74,82,o),
(74,48,cs),
(74,14,o),
(100,-13,o),
(135,-13,cs)
);
}
);
width = 238;
}
);
unicode = 33;
},
{
glyphname = quotedbl;
layers = (
{
hints = (
{
horizontal = 1;
place = (757,-20);
target = down;
type = TopGhost;
},
{
place = (27,254);
type = Stem;
}
);
layerId = "986E1480-5ACC-463A-8EAE-4F79F3B98EB6";
shapes = (
{
closed = 1;
nodes = (
(92,512,o),
(114,533,o),
(118,561,c),
(134,700,ls),
(138,730,o),
(121,754,o),
(96,757,c),
(70,759,o),
(47,738,o),
(43,710,c),
(27,571,ls),
(23,541,o),
(41,517,o),
(66,515,cs)
);
},
{
closed = 1;
nodes = (
(238,512,o),
(262,533,o),
(265,561,cs),
(281,700,ls),
(284,730,o),
(268,754,o),
(242,757,cs),
(217,759,o),
(193,738,o),
(190,710,cs),
(174,571,ls),
(171,541,o),
(187,517,o),
(213,515,c)
);
}
);
width = 310;
}
);
unicode = 34;
},
{
glyphname = numbersign;
layers = (
{
hints = (
{
horizontal = 1;
place = (208,77);
type = Stem;
},
{
horizontal = 1;
place = (366,77);
type = Stem;
},
{
horizontal = 1;
place = (369,77);
type = Stem;
},
{
place = (37,463);
type = Stem;
}
);
layerId = "986E1480-5ACC-463A-8EAE-4F79F3B98EB6";
shapes = (
{
closed = 1;
nodes = (
(485,364,o),
(500,383,o),
(500,403,cs),
(500,422,o),
(486,441,o),
(456,441,cs),
(425,441,l),
(436,475,o),
(446,505,o),
(454,527,cs),
(457,534,o),
(458,541,o),
(458,547,cs),
(458,573,o),
(437,589,o),
(415,589,cs),
(399,589,o),
(382,579,o),
(374,558,cs),
(364,530,o),
(350,489,o),
(336,443,c),
(312,443,o),
(288,444,o),
(265,444,c),
(275,476,o),
(284,505,o),
(292,527,cs),
(295,535,o),
(296,542,o),
(296,549,cs),
(296,575,o),
(276,591,o),
(255,591,cs),
(238,591,o),
(221,581,o),
(212,558,cs),
(202,531,o),
(189,491,o),
(175,445,c),
(150,446,o),
(128,446,o),
(112,446,cs),
(81,446,o),
(65,426,o),
(65,407,cs),
(65,388,o),
(80,369,o),
(108,369,cs),
(119,369,o),
(134,369,o),
(152,368,c),
(143,341,o),
(135,312,o),
(127,285,c),
(80,285,ls),
(52,285,o),
(37,265,o),
(37,246,cs),
(37,227,o),
(51,208,o),
(82,208,cs),
(105,208,l),
(92,164,o),
(81,127,o),
(75,105,cs),
(74,100,o),
(73,95,o),
(73,90,cs),
(73,64,o),
(96,47,o),
(117,47,cs),
(134,47,o),
(150,56,o),
(156,78,cs),
(165,107,o),
(178,154,o),
(194,208,c),
(217,208,o),
(241,208,o),
(265,208,c),
(235,105,ls),
(233,98,o),
(232,92,o),
(232,87,cs),
(232,59,o),
(252,43,o),
(273,43,cs),
(290,43,o),
(308,54,o),
(316,78,cs),
(324,102,o),
(338,150,o),
(355,208,c),
(424,208,ls),
(454,208,o),
(468,227,o),
(468,247,cs),
(468,266,o),
(454,285,o),
(424,285,cs),
(378,285,l),
(385,312,o),
(393,339,o),
(401,365,c),
(424,364,o),
(443,364,o),
(456,364,cs)
);
},
{
closed = 1;
nodes = (
(264,285,o),
(240,285,o),
(217,285,c),
(241,367,l),
(264,367,o),
(288,366,o),
(312,366,c),
(304,339,o),
(295,312,o),
(287,285,c)
);
}
);
width = 533;
}
);
unicode = 35;
},
{
glyphname = dollar;
layers = (
{
hints = (
{
horizontal = 1;
place = (-12,21);
target = up;
type = BottomGhost;
},
{
horizontal = 1;
place = (-11,21);
target = up;
type = BottomGhost;
},
{
place = (29,87);
type = Stem;
},
{
place = (63,89);
type = Stem;
},
{
place = (179,85);
type = Stem;
},
{
place = (191,80);
type = Stem;
},
{
place = (194,81);
type = Stem;
},
{
place = (333,90);
type = Stem;
}
);
layerId = "986E1480-5ACC-463A-8EAE-4F79F3B98EB6";
shapes = (
{
closed = 1;
nodes = (
(423,281,o),
(347,340,o),
(276,389,c),
(276,392,ls),
(276,453,o),
(275,513,o),
(274,573,c),
(288,565,o),
(302,554,o),
(313,539,cs),
(326,522,o),
(341,515,o),
(354,515,cs),
(374,515,o),
(391,532,o),
(391,555,cs),
(391,565,o),
(388,577,o),
(380,588,cs),
(352,628,o),
(312,652,o),
(271,662,c),
(271,674,l),
(270,707,o),
(250,723,o),
(231,723,cs),
(211,723,o),
(191,707,o),
(191,674,cs),
(191,665,l),
(120,653,o),
(63,602,o),
(63,519,cs),
(63,436,o),
(128,387,o),
(194,341,c),
(192,236,o),
(188,141,o),
(184,75,c),
(144,89,o),
(116,125,o),
(116,179,cs),
(116,192,o),
(119,204,o),
(119,216,cs),
(119,245,o),
(100,261,o),
(80,261,cs),
(60,261,o),
(38,245,o),
(32,216,cs),
(30,204,o),
(29,192,o),
(29,176,cs),
(29,77,o),
(91,7,o),
(179,-11,c),
(179,-22,ls),
(179,-57,o),
(200,-76,o),
(222,-76,cs),
(242,-76,o),
(262,-59,o),
(264,-22,c),
(264,-19,o),
(264,-16,o),
(265,-12,c),
(352,4,o),
(423,77,o),
(423,177,cs)
);
},
{
closed = 1;
nodes = (
(152,552,o),
(169,572,o),
(193,580,c),
(194,536,o),
(195,487,o),
(195,447,c),
(169,469,o),
(152,492,o),
(152,519,cs)
);
},
{
closed = 1;
nodes = (
(272,140,o),
(274,209,o),
(275,281,c),
(309,252,o),
(333,220,o),
(333,177,cs),
(333,124,o),
(305,90,o),
(269,76,c)
);
}
);
width = 453;
}
);
unicode = 36;
},
{
glyphname = percent;
layers = (
{
hints = (
{
horizontal = 1;
place = (-4,76);
type = Stem;
},
{
horizontal = 1;
place = (139,76);
type = Stem;
},
{
horizontal = 1;
place = (437,77);
type = Stem;
},
{
horizontal = 1;
place = (580,76);
type = Stem;
},
{
place = (42,80);
type = Stem;
},
{
place = (189,78);
type = Stem;
},
{
place = (266,80);
type = Stem;
},
{
place = (413,78);
type = Stem;
}
);
layerId = "986E1480-5ACC-463A-8EAE-4F79F3B98EB6";
shapes = (
{
closed = 1;
nodes = (
(101,-22,o),
(116,-16,o),
(128,0,cs),
(232,134,o),
(366,469,o),
(475,602,cs),
(485,615,o),
(489,627,o),
(489,639,cs),
(489,662,o),
(471,680,o),
(450,680,cs),
(437,680,o),
(423,674,o),
(412,659,cs),
(299,516,o),
(147,174,o),
(59,53,c),
(50,42,o),
(47,31,o),
(47,20,cs),
(47,-3,o),
(66,-22,o),
(88,-22,cs)
);
},
{
closed = 1;
nodes = (
(217,437,o),
(267,495,o),
(267,559,cs),
(267,614,o),
(229,656,o),
(167,656,cs),
(93,656,o),
(42,600,o),
(42,535,cs),
(42,480,o),
(81,437,o),
(146,437,cs)
);
},
{
closed = 1;
nodes = (
(131,514,o),
(122,527,o),
(122,542,cs),
(122,560,o),
(136,580,o),
(160,580,cs),
(180,580,o),
(189,567,o),
(189,552,cs),
(189,534,o),
(175,514,o),
(152,514,cs)
);
},
{
closed = 1;
nodes = (
(441,-4,o),
(491,53,o),
(491,118,cs),
(491,172,o),
(453,215,o),
(391,215,cs),
(317,215,o),
(266,158,o),
(266,94,cs),
(266,39,o),
(304,-4,o),
(370,-4,cs)
);
},
{
closed = 1;
nodes = (
(355,72,o),
(346,86,o),
(346,100,cs),
(346,118,o),
(359,139,o),
(384,139,cs),
(404,139,o),
(413,126,o),
(413,111,cs),
(413,93,o),
(399,72,o),
(376,72,cs)
);
}
);
width = 541;
}
);
unicode = 37;
},
{
glyphname = ampersand;
layers = (
{
hints = (
{
horizontal = 1;
place = (-21,85);
type = Stem;
},
{
horizontal = 1;
place = (596,85);
type = Stem;
},
{
place = (19,96);
type = Stem;
},
{
place = (119,85);
type = Stem;
},
{
place = (266,81);
type = Stem;
},
{
place = (404,86);
type = Stem;
}
);
layerId = "986E1480-5ACC-463A-8EAE-4F79F3B98EB6";
shapes = (
{
closed = 1;
nodes = (
(475,66,o),
(449,83,o),
(424,102,c),
(462,155,o),
(486,222,o),
(489,294,cs),
(490,305,o),
(490,316,o),
(490,327,cs),
(490,337,o),
(490,347,o),
(489,356,cs),
(487,386,o),
(468,400,o),
(446,400,cs),
(426,400,o),
(404,382,o),
(404,349,cs),
(404,332,o),
(404,311,o),
(403,289,cs),
(400,239,o),
(384,195,o),
(361,159,c),
(304,218,o),
(259,289,o),
(233,363,c),
(290,433,o),
(347,506,o),
(347,581,cs),
(347,640,o),
(317,681,o),
(255,681,cs),
(175,681,o),
(119,620,o),
(119,520,cs),
(119,472,o),
(125,425,o),
(137,379,c),
(77,309,o),
(19,232,o),
(19,156,cs),
(19,50,o),
(89,-21,o),
(203,-21,cs),
(260,-21,o),
(314,0,o),
(360,35,c),
(389,12,o),
(420,-9,o),
(452,-27,c),
(471,-36,o),
(479,-37,o),
(487,-37,cs),
(515,-37,o),
(533,-14,o),
(533,9,cs),
(533,25,o),
(524,41,o),
(503,51,c)
);
},
{
closed = 1;
nodes = (
(204,576,o),
(227,596,o),
(244,596,cs),
(257,596,o),
(266,589,o),
(266,572,cs),
(266,541,o),
(241,504,o),
(208,462,c),
(205,481,o),
(204,500,o),
(204,519,cs)
);
},
{
closed = 1;
nodes = (
(115,199,o),
(138,241,o),
(169,284,c),
(200,213,o),
(244,148,o),
(297,93,c),
(270,74,o),
(239,64,o),
(208,64,cs),
(138,64,o),
(115,99,o),
(115,160,cs)
);
}
);
width = 540;
}
);
unicode = 38;
},
{
glyphname = quotesingle;
layers = (
{
hints = (
{
horizontal = 1;
place = (757,-20);
target = down;
type = TopGhost;
},
{
place = (27,108);
type = Stem;
}
);
layerId = "986E1480-5ACC-463A-8EAE-4F79F3B98EB6";
shapes = (
{
closed = 1;
nodes = (
(134,700,ls),
(138,730,o),
(121,754,o),
(96,757,c),
(70,759,o),
(47,738,o),
(43,710,c),
(27,571,ls),
(23,541,o),
(41,517,o),
(66,515,cs),
(92,512,o),
(114,533,o),
(118,561,c)
);
}
);
width = 163;
}
);
unicode = 39;
},
{
glyphname = parenleft;
layers = (
{
hints = (
{
horizontal = 1;
place = (-21,711);
type = Stem;
},
{
place = (70,93);
type = Stem;
}
);
layerId = "986E1480-5ACC-463A-8EAE-4F79F3B98EB6";
shapes = (
{
closed = 1;
nodes = (
(196,-15,o),
(212,-21,o),
(226,-21,cs),
(250,-21,o),
(269,-3,o),
(269,20,cs),
(269,35,o),
(262,51,o),
(245,67,cs),
(193,116,o),
(163,205,o),
(163,319,cs),
(163,428,o),
(191,532,o),
(238,607,cs),
(248,622,o),
(252,637,o),
(252,649,cs),
(252,674,o),
(235,690,o),
(213,690,cs),
(196,690,o),
(176,680,o),
(160,655,cs),
(103,566,o),
(70,442,o),
(70,314,cs),
(70,178,o),
(110,67,o),
(181,0,cs)
);
}
);
width = 319;
}
);
unicode = 40;
},
{
glyphname = parenright;
layers = (
{
hints = (
{
horizontal = 1;
place = (-20,711);
type = Stem;
},
{
place = (156,93);
type = Stem;
}
);
layerId = "986E1480-5ACC-463A-8EAE-4F79F3B98EB6";
shapes = (
{
closed = 1;
nodes = (
(216,104,o),
(249,228,o),
(249,355,cs),
(249,492,o),
(209,602,o),
(138,670,cs),
(123,685,o),
(107,691,o),
(93,691,cs),
(69,691,o),
(50,673,o),
(50,649,cs),
(50,635,o),
(57,618,o),
(74,602,cs),
(126,553,o),
(156,465,o),
(156,350,cs),
(156,241,o),
(128,138,o),
(81,63,cs),
(71,48,o),
(67,33,o),
(67,21,cs),
(67,-4,o),
(84,-20,o),
(106,-20,cs),
(123,-20,o),
(143,-10,o),
(159,15,cs)
);
}
);
width = 319;
}
);
unicode = 41;
},
{
glyphname = asterisk;
layers = (
{
hints = (
{
horizontal = 1;
place = (766,-20);
target = down;
type = TopGhost;
},
{
place = (130,66);
type = Stem;
},
{
place = (139,66);
type = Stem;
}
);
layerId = "986E1480-5ACC-463A-8EAE-4F79F3B98EB6";
shapes = (
{
closed = 1;
nodes = (
(249,623,o),
(236,632,o),
(222,640,c),
(261,672,ls),
(272,681,o),
(277,693,o),
(277,703,cs),
(277,719,o),
(264,733,o),
(247,733,cs),
(239,733,o),
(230,730,o),
(221,723,cs),
(196,702,l),
(195,712,o),
(195,721,o),
(194,731,cs),
(193,755,o),
(177,766,o),
(162,766,cs),
(145,766,o),
(127,753,o),
(129,726,cs),
(130,717,o),
(130,708,o),
(131,699,c),
(107,714,ls),
(99,719,o),
(91,721,o),
(84,721,cs),
(66,721,o),
(54,706,o),
(54,690,cs),
(54,678,o),
(60,667,o),
(73,658,cs),
(86,650,o),
(99,642,o),
(112,633,c),
(78,605,l),
(67,595,o),
(62,584,o),
(62,573,cs),
(62,557,o),
(74,543,o),
(91,543,cs),
(99,543,o),
(108,547,o),
(118,555,cs),
(125,561,o),
(132,567,o),
(139,572,c),
(140,563,o),
(140,553,o),
(141,543,cs),
(142,519,o),
(159,507,o),
(175,507,cs),
(192,507,o),
(208,520,o),
(206,548,cs),
(205,557,o),
(205,567,o),
(204,576,c),
(213,571,o),
(221,565,o),
(230,560,cs),
(239,555,o),
(247,553,o),
(254,553,cs),
(271,553,o),
(283,566,o),
(283,582,cs),
(283,593,o),
(277,605,o),
(263,614,cs)
);
}
);
width = 308;
}
);
unicode = 42;
},
{
glyphname = plus;
layers = (
{
hints = (
{
horizontal = 1;
place = (296,83);
type = Stem;
},
{
place = (176,85);
type = Stem;
}
);
layerId = "986E1480-5ACC-463A-8EAE-4F79F3B98EB6";
shapes = (
{
closed = 1;
nodes = (
(261,379,l),
(261,457,ls),
(261,486,o),
(240,501,o),
(219,501,cs),
(198,501,o),
(176,487,o),
(176,457,c),
(175,380,l),
(103,380,ls),
(74,380,o),
(60,359,o),
(60,338,cs),
(60,318,o),
(74,297,o),
(103,297,cs),
(175,297,l),
(174,221,l),
(174,190,o),
(195,175,o),
(217,175,cs),
(238,175,o),
(260,190,o),
(260,221,cs),
(260,296,l),
(339,296,ls),
(370,296,o),
(386,317,o),
(386,337,cs),
(386,358,o),
(370,379,o),
(339,379,cs)
);
}
);
width = 420;
}
);
unicode = 43;
},
{
glyphname = comma;
layers = (
{
hints = (
{
horizontal = 1;
place = (-149,248);
type = Stem;
},
{
place = (34,121);
type = Stem;
}
);
layerId = "986E1480-5ACC-463A-8EAE-4F79F3B98EB6";
shapes = (
{
closed = 1;
nodes = (
(48,-149,o),
(59,-147,o),
(68,-141,cs),
(114,-113,o),
(155,-51,o),
(155,20,cs),
(155,75,o),
(122,99,o),
(91,99,cs),
(62,99,o),
(34,77,o),
(34,40,cs),
(34,8,o),
(60,2,o),
(60,-26,cs),
(60,-58,o),
(32,-80,o),
(16,-98,cs),
(8,-106,o),
(5,-113,o),
(5,-121,cs),
(5,-137,o),
(19,-149,o),
(39,-149,cs)
);
}
);
width = 185;
}
);
leftKerningGroup = comma;
unicode = 44;
},
{
glyphname = hyphen;
layers = (
{
hints = (
{
horizontal = 1;
place = (220,80);
type = Stem;
},
{
place = (100,263);
type = Stem;
}
);
layerId = "986E1480-5ACC-463A-8EAE-4F79F3B98EB6";
shapes = (
{
closed = 1;
nodes = (
(346,220,o),
(363,238,o),
(363,260,cs),
(363,282,o),
(347,300,o),
(320,300,c),
(261,301,o),
(202,301,o),
(143,302,c),
(117,302,o),
(100,284,o),
(100,262,cs),
(100,241,o),
(116,222,o),
(142,222,c),
(201,221,o),
(260,221,o),
(319,220,c)
);
}
);
width = 436;
}
);
unicode = 45;
},
{
glyphname = period;
layers = (
{
hints = (
{
horizontal = 1;
place = (-15,121);
type = Stem;
},
{
place = (30,121);
type = Stem;
}
);
layerId = "986E1480-5ACC-463A-8EAE-4F79F3B98EB6";
shapes = (
{
closed = 1;
nodes = (
(124,-15,o),
(151,12,o),
(151,46,cs),
(151,80,o),
(124,106,o),
(91,106,cs),
(57,106,o),
(30,80,o),
(30,46,cs),
(30,12,o),
(57,-15,o),
(91,-15,cs)
);
}
);
width = 181;
}
);
unicode = 46;
},
{
glyphname = slash;
layers = (
{
hints = (
{
horizontal = 1;
place = (-6,21);
target = up;
type = BottomGhost;
},
{
place = (55,341);
type = Stem;
}
);
layerId = "986E1480-5ACC-463A-8EAE-4F79F3B98EB6";
shapes = (
{
closed = 1;
nodes = (
(109,-6,o),
(122,1,o),
(132,17,cs),
(210,142,o),
(300,482,o),
(385,606,cs),
(392,616,o),
(396,626,o),
(396,635,cs),
(396,660,o),
(378,678,o),
(356,678,cs),
(344,678,o),
(331,672,o),
(320,658,cs),
(229,550,o),
(136,180,o),
(64,67,cs),
(58,57,o),
(55,45,o),
(55,36,cs),
(55,12,o),
(76,-6,o),
(97,-6,cs)
);
}
);
width = 441;
}
);
unicode = 47;
},
{
glyphname = zero;
layers = (
{
hints = (
{
horizontal = 1;
place = (-6,86);
type = Stem;
},
{
horizontal = 1;
place = (597,85);
type = Stem;
},
{
place = (30,94);
type = Stem;
},
{
place = (347,94);
type = Stem;
}
);
layerId = "986E1480-5ACC-463A-8EAE-4F79F3B98EB6";
shapes = (
{
closed = 1;
nodes = (
(368,-6,o),
(441,129,o),
(441,368,cs),
(441,566,o),
(370,682,o),
(246,682,cs),
(106,682,o),
(30,547,o),
(30,309,cs),
(30,100,o),
(95,-6,o),
(232,-6,cs)
);
},
{
closed = 1;
nodes = (
(157,80,o),
(124,143,o),
(124,309,cs),
(124,500,o),
(169,597,o),
(246,597,cs),
(309,597,o),
(347,518,o),
(347,368,cs),
(347,179,o),
(305,80,o),
(232,80,cs)
);
}
);
width = 471;
}
);
unicode = 48;
},
{
glyphname = one;
layers = (
{
hints = (
{
horizontal = 1;
place = (-4,21);
target = up;
type = BottomGhost;
},
{
place = (160,93);
type = Stem;
}
);
layerId = "986E1480-5ACC-463A-8EAE-4F79F3B98EB6";
shapes = (
{
closed = 1;
nodes = (
(247,669,o),
(226,685,o),
(204,685,cs),
(184,685,o),
(165,673,o),
(157,648,c),
(137,577,o),
(99,529,o),
(45,489,cs),
(28,476,o),
(20,461,o),
(20,447,cs),
(20,424,o),
(39,405,o),
(63,405,cs),
(73,405,o),
(85,408,o),
(96,416,cs),
(120,432,o),
(141,454,o),
(160,477,c),
(159,339,o),
(154,171,o),
(140,54,cs),
(136,17,o),
(161,-4,o),
(187,-4,cs),
(207,-4,o),
(228,10,o),
(232,41,cs),
(246,160,o),
(253,331,o),
(253,474,cs),
(253,536,o),
(252,593,o),
(249,638,cs)
);
}
);
width = 323;
}
);
unicode = 49;
},
{
glyphname = two;
layers = (
{
hints = (
{
horizontal = 1;
place = (-5,86);
type = Stem;
},
{
horizontal = 1;
place = (1,21);
target = up;
type = BottomGhost;
},
{
horizontal = 1;
place = (596,86);
type = Stem;
},
{
place = (47,91);
type = Stem;
},
{
place = (283,94);
type = Stem;
}
);
layerId = "986E1480-5ACC-463A-8EAE-4F79F3B98EB6";
shapes = (
{
closed = 1;
nodes = (
(61,104,o),
(27,94,o),
(27,53,cs),
(27,26,o),
(47,1,o),
(75,1,cs),
(106,1,o),
(125,31,o),
(155,31,cs),
(177,31,o),
(239,-5,o),
(318,-5,cs),
(407,-5,o),
(467,81,o),
(467,156,cs),
(467,184,o),
(447,200,o),
(425,200,cs),
(406,200,o),
(387,188,o),
(380,160,cs),
(367,105,o),
(341,81,o),
(298,81,cs),
(273,81,o),
(241,89,o),
(209,105,c),
(308,217,o),
(377,377,o),
(377,498,cs),
(377,621,o),
(312,682,o),
(212,682,cs),
(115,682,o),
(47,611,o),
(47,486,cs),
(47,451,o),
(70,433,o),
(93,433,cs),
(107,433,o),
(119,440,o),
(127,451,cs),
(134,460,o),
(138,472,o),
(138,486,cs),
(138,561,o),
(170,596,o),
(212,596,cs),
(254,596,o),
(283,565,o),
(283,497,cs),
(283,368,o),
(182,183,o),
(119,141,c)
);
}
);
width = 495;
}
);
unicode = 50;
},
{
glyphname = three;
layers = (
{
hints = (
{
horizontal = 1;
place = (-5,86);
type = Stem;
},
{
horizontal = 1;
place = (599,86);
type = Stem;
},
{
place = (46,88);
type = Stem;
},
{
place = (276,93);
type = Stem;
},
{
place = (323,93);
type = Stem;
}
);
layerId = "986E1480-5ACC-463A-8EAE-4F79F3B98EB6";
shapes = (
{
closed = 1;
nodes = (
(339,423,o),
(369,474,o),
(369,533,cs),
(369,630,o),
(293,685,o),
(214,685,cs),
(132,685,o),
(46,628,o),
(46,521,cs),
(46,481,o),
(57,436,o),
(97,436,cs),
(119,436,o),
(139,451,o),
(139,477,cs),
(139,485,o),
(134,503,o),
(134,518,cs),
(134,571,o),
(173,599,o),
(211,599,cs),
(248,599,o),
(276,574,o),
(276,528,cs),
(276,477,o),
(247,431,o),
(187,408,c),
(164,400,o),
(154,382,o),
(154,364,cs),
(154,342,o),
(170,321,o),
(200,321,cs),
(280,321,o),
(323,281,o),
(323,208,cs),
(323,131,o),
(274,81,o),
(206,81,cs),
(161,81,o),
(123,103,o),
(102,153,cs),
(92,176,o),
(75,186,o),
(59,186,cs),
(37,186,o),
(17,169,o),
(17,141,cs),
(17,106,o),
(43,64,o),
(77,36,cs),
(110,9,o),
(157,-5,o),
(206,-5,cs),
(327,-5,o),
(416,81,o),
(416,204,cs),
(416,291,o),
(371,355,o),
(294,385,c)
);
}
);
width = 463;
}
);
unicode = 51;
},
{
glyphname = four;
layers = (
{
hints = (
{
horizontal = 1;
place = (-7,21);
target = up;
type = BottomGhost;
},
{
horizontal = 1;
place = (244,84);
type = Stem;
},
{
place = (107,93);
type = Stem;
},
{
place = (264,93);
type = Stem;
}
);
layerId = "986E1480-5ACC-463A-8EAE-4F79F3B98EB6";
shapes = (
{
closed = 1;
nodes = (
(416,267,o),
(395,278,o),
(371,288,c),
(375,321,o),
(379,352,o),
(382,381,cs),
(389,449,o),
(401,508,o),
(401,528,cs),
(401,561,o),
(379,579,o),
(356,579,cs),
(335,579,o),
(314,564,o),
(308,531,cs),
(297,468,o),
(288,393,o),
(280,318,c),
(251,324,o),
(225,328,o),
(203,328,cs),
(180,328,o),
(165,327,o),
(153,325,c),
(183,391,o),
(200,479,o),
(200,576,cs),
(200,595,o),
(199,614,o),
(198,633,cs),
(195,667,o),
(173,684,o),
(151,684,cs),
(127,684,o),
(103,665,o),
(105,629,c),
(105,608,o),
(107,585,o),
(107,558,cs),
(107,479,o),
(92,386,o),
(68,348,cs),
(46,314,o),
(17,297,o),
(17,267,cs),
(17,240,o),
(38,218,o),
(66,218,cs),
(93,218,o),
(111,244,o),
(183,244,cs),
(213,244,o),
(243,240,o),
(272,232,c),
(267,166,o),
(264,102,o),
(264,48,cs),
(264,12,o),
(288,-7,o),
(311,-7,cs),
(334,-7,o),
(357,12,o),
(357,48,cs),
(357,100,o),
(359,150,o),
(363,197,c),
(372,192,o),
(381,187,o),
(389,182,cs),
(398,177,o),
(408,174,o),
(416,174,cs),
(440,174,o),
(457,195,o),
(457,217,cs),
(457,230,o),
(451,244,o),
(435,254,cs)
);
}
);
width = 491;
}
);
unicode = 52;
},
{
glyphname = five;
layers = (
{
hints = (
{
horizontal = 1;
place = (-5,86);
type = Stem;
},
{
horizontal = 1;
place = (402,82);
type = Stem;
},
{
horizontal = 1;
place = (578,87);
type = Stem;
},
{
place = (345,93);
type = Stem;
}
);
layerId = "986E1480-5ACC-463A-8EAE-4F79F3B98EB6";
shapes = (
{
closed = 1;
nodes = (
(345,-5,o),
(438,104,o),
(438,265,cs),
(438,400,o),
(356,484,o),
(249,484,cs),
(229,484,o),
(200,479,o),
(179,472,c),
(189,514,o),
(191,547,o),
(194,567,cs),
(195,574,o),
(198,578,o),
(206,578,cs),
(256,578,o),
(336,581,o),
(391,619,cs),
(409,632,o),
(416,648,o),
(416,663,cs),
(416,685,o),
(399,705,o),
(374,705,cs),
(365,705,o),
(355,702,o),
(344,695,cs),
(296,665,o),
(251,665,o),
(165,665,cs),
(128,665,o),
(107,646,o),
(105,610,cs),
(103,576,o),
(97,497,o),
(75,427,cs),
(73,420,o),
(71,412,o),
(71,407,cs),
(71,385,o),
(86,373,o),
(108,373,cs),
(138,373,o),
(171,402,o),
(231,402,cs),
(301,402,o),
(345,355,o),
(345,262,cs),
(345,148,o),
(289,81,o),
(216,81,cs),
(166,81,o),
(135,112,o),
(125,177,cs),
(120,207,o),
(100,221,o),
(79,221,cs),
(56,221,o),
(34,203,o),
(34,171,cs),
(34,85,o),
(101,-5,o),
(211,-5,cs)
);
}
);
width = 484;
}
);
unicode = 53;
},
{
glyphname = six;
layers = (
{
hints = (
{
horizontal = 1;
place = (-4,86);
type = Stem;
},
{
horizontal = 1;
place = (349,85);
type = Stem;
},
{
horizontal = 1;
place = (598,85);
type = Stem;
},
{
place = (14,155);
type = Stem;
},
{
place = (388,93);
type = Stem;
}
);
layerId = "986E1480-5ACC-463A-8EAE-4F79F3B98EB6";
shapes = (
{
closed = 1;
nodes = (
(262,434,o),
(220,421,o),
(179,399,c),
(201,526,o),
(259,598,o),
(324,598,cs),
(356,598,o),
(377,581,o),
(397,548,cs),
(409,527,o),
(427,518,o),
(442,518,cs),
(463,518,o),
(482,535,o),
(482,561,cs),
(482,570,o),
(480,580,o),
(474,591,cs),
(445,651,o),
(390,683,o),
(324,683,cs),
(183,683,o),
(88,546,o),
(78,319,c),
(60,300,o),
(42,280,o),
(26,257,cs),
(17,244,o),
(14,230,o),
(14,218,cs),
(14,194,o),
(31,176,o),
(51,176,cs),
(62,176,o),
(73,180,o),
(83,190,c),
(103,64,o),
(167,-4,o),
(271,-4,cs),
(387,-4,o),
(481,103,o),
(481,237,cs),
(481,357,o),
(411,434,o),
(303,434,cs)
);
},
{
closed = 1;
nodes = (
(204,82,o),
(169,146,o),
(169,279,cs),
(169,295,l),
(211,332,o),
(256,349,o),
(302,349,cs),
(355,349,o),
(388,312,o),
(388,242,cs),
(388,150,o),
(338,82,o),
(272,82,cs)
);
}
);
width = 536;
}
);
unicode = 54;
},
{
glyphname = seven;
layers = (
{
hints = (
{
horizontal = 1;
place = (-6,21);
target = up;
type = BottomGhost;
},
{
horizontal = 1;
place = (230,83);
type = Stem;
},
{
horizontal = 1;
place = (241,84);
type = Stem;
},
{
horizontal = 1;
place = (593,89);
type = Stem;
},
{
place = (27,415);
type = Stem;
}
);
layerId = "986E1480-5ACC-463A-8EAE-4F79F3B98EB6";
shapes = (
{
closed = 1;
nodes = (
(364,664,o),
(359,647,o),
(321,647,cs),
(256,647,o),
(196,682,o),
(135,682,cs),
(71,682,o),
(27,619,o),
(27,580,cs),
(27,553,o),
(47,535,o),
(71,535,cs),
(86,535,o),
(102,543,o),
(111,562,cs),
(123,586,o),
(129,593,o),
(145,593,cs),
(170,593,o),
(233,568,o),
(278,565,c),
(239,490,o),
(211,404,o),
(190,323,c),
(171,324,o),
(151,325,o),
(129,325,cs),
(95,325,o),
(78,304,o),
(78,284,cs),
(78,263,o),
(95,241,o),
(129,241,cs),
(144,241,o),
(158,241,o),
(172,240,c),
(155,155,o),
(148,83,o),
(148,44,cs),
(148,12,o),
(170,-6,o),
(195,-6,cs),
(217,-6,o),
(239,11,o),
(241,45,cs),
(245,108,o),
(253,172,o),
(265,233,c),
(288,231,o),
(311,230,o),
(337,230,cs),
(368,230,o),
(384,251,o),
(384,272,cs),
(384,292,o),
(368,313,o),
(337,313,cs),
(318,313,o),
(301,314,o),
(284,315,c),
(308,406,o),
(338,486,o),
(371,542,cs),
(378,554,o),
(383,558,o),
(399,563,cs),
(429,572,o),
(442,594,o),
(442,616,cs),
(442,641,o),
(424,664,o),
(395,664,cs)
);
}
);
width = 459;
}
);
unicode = 55;
},
{
glyphname = eight;
layers = (
{
hints = (
{
horizontal = 1;
place = (-6,86);
type = Stem;
},
{
horizontal = 1;
place = (600,87);
type = Stem;
},
{
place = (27,93);
type = Stem;
},
{
place = (65,93);
type = Stem;
},
{
place = (282,93);
type = Stem;
},
{
place = (315,93);
type = Stem;
}
);
layerId = "986E1480-5ACC-463A-8EAE-4F79F3B98EB6";
shapes = (
{
closed = 1;
nodes = (
(334,420,o),
(375,467,o),
(375,538,cs),
(375,632,o),
(302,687,o),
(220,687,cs),
(138,687,o),
(65,632,o),
(65,537,cs),
(65,472,o),
(103,424,o),
(150,381,c),
(88,331,o),
(27,272,o),
(27,181,cs),
(27,73,o),
(108,-6,o),
(220,-6,cs),
(330,-6,o),
(408,72,o),
(408,180,cs),
(408,269,o),
(346,327,o),
(284,379,c)
);
},
{
closed = 1;
nodes = (
(158,579,o),
(189,600,o),
(219,600,cs),
(250,600,o),
(282,579,o),
(282,536,cs),
(282,497,o),
(254,466,o),
(217,435,c),
(183,466,o),
(158,498,o),
(158,536,cs)
);
},
{
closed = 1;
nodes = (
(163,80,o),
(120,120,o),
(120,182,cs),
(120,244,o),
(164,286,o),
(216,326,c),
(269,282,o),
(315,239,o),
(315,181,cs),
(315,118,o),
(274,80,o),
(219,80,cs)
);
}
);
width = 445;
}
);
unicode = 56;
},
{
glyphname = nine;
layers = (
{
hints = (
{
horizontal = 1;
place = (-8,21);
target = up;
type = BottomGhost;
},
{
horizontal = 1;
place = (251,85);
type = Stem;
},
{
horizontal = 1;
place = (598,86);
type = Stem;
},
{
place = (35,93);
type = Stem;
},
{
place = (338,92);
type = Stem;
}
);
layerId = "986E1480-5ACC-463A-8EAE-4F79F3B98EB6";
shapes = (
{
closed = 1;
nodes = (
(118,684,o),
(35,589,o),
(35,457,cs),
(35,335,o),
(109,251,o),
(212,251,cs),
(253,251,o),
(292,268,o),
(324,296,c),
(298,174,o),
(236,106,o),
(140,82,cs),
(110,75,o),
(97,54,o),
(97,34,cs),
(97,13,o),
(113,-8,o),
(141,-8,cs),
(164,-8,o),
(205,7,o),
(230,19,cs),
(358,82,o),
(430,226,o),
(430,431,cs),
(430,594,o),
(358,684,o),
(235,684,cs)
);
},
{
closed = 1;
nodes = (
(172,336,o),
(128,377,o),
(128,457,cs),
(128,544,o),
(170,598,o),
(233,598,cs),
(298,598,o),
(337,544,o),
(338,448,c),
(330,378,o),
(276,336,o),
(223,336,cs)
);
}
);
width = 465;
}
);
unicode = 57;
},
{
glyphname = colon;
layers = (
{
hints = (
{
horizontal = 1;
place = (-19,120);
type = Stem;
},
{
horizontal = 1;
place = (251,120);
type = Stem;
},
{
place = (30,121);
type = Stem;
}
);
layerId = "986E1480-5ACC-463A-8EAE-4F79F3B98EB6";
shapes = (
{
closed = 1;
nodes = (
(124,251,o),
(151,277,o),
(151,312,cs),
(151,345,o),
(124,371,o),
(91,371,cs),
(57,371,o),
(30,345,o),
(30,312,cs),
(30,277,o),
(57,251,o),
(91,251,cs)
);
},
{
closed = 1;
nodes = (
(124,-19,o),
(151,7,o),
(151,42,cs),
(151,75,o),
(124,101,o),
(91,101,cs),
(57,101,o),
(30,75,o),
(30,42,cs),
(30,7,o),
(57,-19,o),
(91,-19,cs)
);
}
);
width = 181;
}
);
leftKerningGroup = colon;
unicode = 58;
},
{
glyphname = semicolon;
layers = (
{
hints = (
{
horizontal = 1;
place = (251,120);
type = Stem;
},
{
place = (34,121);
type = Stem;
}
);
layerId = "986E1480-5ACC-463A-8EAE-4F79F3B98EB6";
shapes = (
{
closed = 1;
nodes = (
(127,251,o),
(154,277,o),
(154,312,cs),
(154,345,o),
(127,371,o),
(94,371,cs),
(60,371,o),
(33,345,o),
(33,312,cs),
(33,277,o),
(60,251,o),
(94,251,cs)
);
},
{
closed = 1;
nodes = (
(48,-149,o),
(59,-147,o),
(68,-141,cs),
(114,-113,o),
(155,-51,o),
(155,20,cs),
(155,75,o),
(122,99,o),
(91,99,cs),
(62,99,o),
(34,77,o),
(34,40,cs),
(34,8,o),
(60,2,o),
(60,-26,cs),
(60,-58,o),
(32,-80,o),
(16,-98,cs),
(8,-106,o),
(5,-113,o),
(5,-121,cs),
(5,-137,o),
(19,-149,o),
(39,-149,cs)
);
}
);
width = 185;
}
);
leftKerningGroup = colon;
unicode = 59;
},
{
glyphname = less;
layers = (
{
hints = (
{
horizontal = 1;
place = (170,336);
type = Stem;
},
{
place = (74,229);
type = Stem;
}
);
layerId = "986E1480-5ACC-463A-8EAE-4F79F3B98EB6";
shapes = (
{
closed = 1;
nodes = (
(227,182,ls),
(237,173,o),
(249,170,o),
(259,170,cs),
(283,170,o),
(303,190,o),
(303,213,cs),
(303,224,o),
(298,236,o),
(287,247,c),
(201,324,ls),
(196,329,o),
(193,333,o),
(193,337,cs),
(193,341,o),
(196,346,o),
(202,351,cs),
(287,427,ls),
(298,437,o),
(303,450,o),
(303,461,cs),
(303,485,o),
(283,506,o),
(259,506,cs),
(249,506,o),
(237,501,o),
(227,492,cs),
(95,373,ls),
(81,360,o),
(74,348,o),
(74,336,cs),
(74,325,o),
(80,314,o),
(93,302,cs)
);
}
);
width = 348;
}
);
unicode = 60;
},
{
glyphname = equal;
layers = (
{
hints = (
{
horizontal = 1;
place = (225,82);
type = Stem;
},
{
horizontal = 1;
place = (354,83);
type = Stem;
},
{
place = (118,331);
type = Stem;
}
);
layerId = "986E1480-5ACC-463A-8EAE-4F79F3B98EB6";
shapes = (
{
closed = 1;
nodes = (
(402,354,l),
(433,354,o),
(449,375,o),
(449,396,cs),
(449,416,o),
(433,437,o),
(402,437,c),
(162,438,l),
(132,438,o),
(118,417,o),
(118,397,cs),
(118,376,o),
(132,355,o),
(162,355,c)
);
},
{
closed = 1;
nodes = (
(402,225,l),
(433,225,o),
(449,246,o),
(449,266,cs),
(449,287,o),
(433,307,o),
(402,307,c),
(162,308,l),
(132,308,o),
(118,288,o),
(118,267,cs),
(118,247,o),
(132,226,o),
(162,226,c)
);
}
);
width = 521;
}
);
unicode = 61;
},
{
glyphname = greater;
layers = (
{
hints = (
{
horizontal = 1;
place = (170,336);
type = Stem;
},
{
place = (74,229);
type = Stem;
}
);
layerId = "986E1480-5ACC-463A-8EAE-4F79F3B98EB6";
shapes = (
{
closed = 1;
nodes = (
(284,302,ls),
(297,314,o),
(303,325,o),
(303,336,cs),
(303,348,o),
(296,360,o),
(282,373,cs),
(150,492,l),
(139,501,o),
(128,506,o),
(118,506,cs),
(94,506,o),
(74,485,o),
(74,461,cs),
(74,450,o),
(79,437,o),
(90,427,cs),
(175,351,ls),
(181,346,o),
(183,342,o),
(183,337,cs),
(183,333,o),
(181,329,o),
(176,324,cs),
(90,247,l),
(79,236,o),
(74,225,o),
(74,213,cs),
(74,190,o),
(94,170,o),
(118,170,cs),
(128,170,o),
(139,173,o),
(150,182,cs)
);
}
);
width = 326;
}
);
unicode = 62;
},
{
glyphname = question;
layers = (
{
hints = (
{
horizontal = 1;
place = (-13,121);
type = Stem;
},
{
horizontal = 1;
place = (633,87);
type = Stem;
},
{
place = (32,93);
type = Stem;
},
{
place = (115,120);
type = Stem;
},
{
place = (130,91);
type = Stem;
},
{
place = (285,94);
type = Stem;
}
);
layerId = "986E1480-5ACC-463A-8EAE-4F79F3B98EB6";
shapes = (
{
closed = 1;
nodes = (
(199,172,o),
(221,190,o),
(221,225,cs),
(221,306,o),
(254,335,o),
(289,372,cs),
(339,424,o),
(379,468,o),
(379,556,cs),
(379,659,o),
(295,720,o),
(203,720,cs),
(112,720,o),
(32,663,o),
(32,558,cs),
(32,517,o),
(45,477,o),
(85,477,cs),
(108,477,o),
(129,492,o),
(129,521,cs),
(129,526,o),
(125,547,o),
(125,558,cs),
(125,608,o),
(164,633,o),
(203,633,cs),
(244,633,o),
(285,606,o),
(285,550,cs),
(285,506,o),
(263,468,o),
(225,433,c),
(188,397,o),
(130,349,o),
(130,225,cs),
(130,190,o),
(153,172,o),
(175,172,cs)
);
},
{
closed = 1;
nodes = (
(209,-13,o),
(235,14,o),
(235,48,cs),
(235,82,o),
(209,108,o),
(175,108,cs),
(141,108,o),
(115,82,o),
(115,48,cs),
(115,14,o),
(141,-13,o),
(175,-13,cs)
);
}
);
width = 418;
}
);
unicode = 63;
},
{
glyphname = at;
layers = (
{
hints = (
{
horizontal = 1;
place = (-165,85);
type = Stem;
},
{
horizontal = 1;
place = (1,84);
type = Stem;
},
{
horizontal = 1;
place = (5,83);
type = Stem;
},
{
horizontal = 1;
place = (302,82);
type = Stem;
},
{
horizontal = 1;
place = (468,85);
type = Stem;
},
{
place = (30,93);
type = Stem;
},
{
place = (219,93);
type = Stem;
},
{
place = (455,95);
type = Stem;
},
{
place = (639,92);
type = Stem;
}
);
layerId = "986E1480-5ACC-463A-8EAE-4F79F3B98EB6";
shapes = (
{
closed = 1;
nodes = (
(196,553,o),
(30,389,o),
(30,148,cs),
(30,-42,o),
(153,-165,o),
(341,-165,cs),
(401,-165,o),
(459,-155,o),
(508,-137,c),
(530,-128,o),
(540,-112,o),
(540,-96,cs),
(540,-74,o),
(523,-54,o),
(497,-54,cs),
(474,-54,o),
(431,-80,o),
(341,-80,cs),
(201,-80,o),
(123,8,o),
(123,162,cs),
(123,343,o),
(252,468,o),
(437,468,cs),
(564,468,o),
(639,397,o),
(639,279,cs),
(639,170,o),
(603,88,o),
(564,88,cs),
(550,88,o),
(541,98,o),
(541,141,c),
(540,219,o),
(551,328,o),
(551,340,cs),
(551,370,o),
(528,386,o),
(505,386,cs),
(490,386,o),
(476,379,o),
(468,366,c),
(448,377,o),
(427,384,o),
(403,384,cs),
(291,384,o),
(219,269,o),
(219,156,cs),
(219,70,o),
(263,1,o),
(350,1,cs),
(395,1,o),
(436,24,o),
(467,66,c),
(485,27,o),
(516,5,o),
(557,5,cs),
(642,5,o),
(731,104,o),
(731,279,cs),
(731,444,o),
(612,553,o),
(437,553,cs)
);
},
{
closed = 1;
nodes = (
(326,85,o),
(312,114,o),
(312,157,cs),
(312,224,o),
(351,302,o),
(408,302,cs),
(430,302,o),
(448,293,o),
(457,281,c),
(454,223,l),
(446,141,o),
(397,85,o),
(356,85,cs)
);
}
);
width = 761;
}
);
unicode = 64;
},
{
glyphname = A;
layers = (
{
anchors = (
{
name = t.uni0302_2;
position = "{643, 703}";
}
);
hints = (
{
horizontal = 1;
place = (-11,87);
type = Stem;
},
{
horizontal = 1;
place = (-9,85);
type = Stem;
},
{
horizontal = 1;
place = (250,86);
type = Stem;
},
{
horizontal = 1;
place = (255,91);
type = Stem;
},
{
horizontal = 1;
place = (605,115);
type = Stem;
},
{
place = (557,96);
type = Stem;
}
);
layerId = "986E1480-5ACC-463A-8EAE-4F79F3B98EB6";
shapes = (
{
closed = 1;
nodes = (
(791,179,o),
(737,76,o),
(695,76,cs),
(673,76,o),
(653,96,o),
(653,179,cs),
(653,383,o),
(705,597,o),
(705,661,cs),
(705,698,o),
(684,720,o),
(647,720,cs),
(554,720,o),
(505,620,o),
(395,369,c),
(380,337,l),
(349,336,o),
(317,336,o),
(285,336,cs),
(250,336,o),
(232,315,o),
(232,294,cs),
(232,272,o),
(251,250,o),
(289,250,cs),
(303,250,o),
(319,250,o),
(337,251,c),
(273,133,o),
(216,76,o),
(173,76,cs),
(134,76,o),
(117,117,o),
(84,117,cs),
(62,117,o),
(44,99,o),
(44,74,cs),
(44,33,o),
(96,-11,o),
(173,-11,cs),
(287,-11,o),
(376,111,o),
(446,255,c),
(484,257,o),
(524,261,o),
(559,265,c),
(558,238,o),
(557,211,o),
(557,182,cs),
(557,53,o),
(612,-9,o),
(688,-9,cs),
(771,-9,o),
(832,69,o),
(894,234,cs),
(896,240,o),
(897,245,o),
(897,250,cs),
(897,272,o),
(878,287,o),
(859,287,cs),
(845,287,o),
(830,279,o),
(823,260,cs)
);
},
{
closed = 1;
nodes = (
(492,357,ls),
(561,520,o),
(595,605,o),
(606,605,cs),
(617,605,o),
(584,504,o),
(567,351,c),
(540,347,o),
(513,344,o),
(486,342,c)
);
}
);
width = 812;
}
);
leftKerningGroup = A2;
rightKerningGroup = A;
unicode = 65;
},
{
glyphname = B;
layers = (
{
hints = (
{
horizontal = 1;
place = (-12,85);
type = Stem;
},
{
horizontal = 1;
place = (-11,78);
type = Stem;
},
{
horizontal = 1;
place = (107,77);
type = Stem;
},
{
horizontal = 1;
place = (644,84);
type = Stem;
},
{
place = (54,84);
type = Stem;
},
{
place = (98,97);
type = Stem;
},
{
place = (286,96);
type = Stem;
},
{
place = (522,97);
type = Stem;
},
{
place = (576,97);
type = Stem;
}
);
layerId = "986E1480-5ACC-463A-8EAE-4F79F3B98EB6";
shapes = (
{
closed = 1;
nodes = (
(586,410,o),
(619,462,o),
(619,527,cs),
(619,633,o),
(528,728,o),
(384,728,cs),
(207,728,o),
(98,617,o),
(98,483,cs),
(98,424,o),
(135,340,o),
(184,340,cs),
(210,340,o),
(230,359,o),
(230,385,cs),
(230,409,o),
(195,444,o),
(195,483,cs),
(195,574,o),
(266,644,o),
(383,644,cs),
(468,644,o),
(522,589,o),
(522,522,cs),
(522,466,o),
(489,426,o),
(427,415,c),
(403,410,o),
(388,393,o),
(388,371,cs),
(388,349,o),
(404,331,o),
(432,329,c),
(532,318,o),
(576,272,o),
(576,201,cs),
(576,128,o),
(530,73,o),
(466,73,cs),
(428,73,o),
(386,92,o),
(344,115,c),
(369,180,o),
(382,270,o),
(382,386,cs),
(382,443,o),
(379,496,o),
(370,539,c),
(365,567,o),
(347,584,o),
(324,584,cs),
(297,584,o),
(276,562,o),
(276,534,cs),
(276,510,o),
(286,438,o),
(286,388,cs),
(286,291,o),
(276,214,o),
(258,160,c),
(228,174,o),
(198,184,o),
(170,184,cs),
(98,184,o),
(54,138,o),
(54,89,cs),
(54,37,o),
(96,-11,o),
(176,-11,cs),
(228,-11,o),
(271,7,o),
(303,45,c),
(352,16,o),
(407,-12,o),
(461,-12,cs),
(584,-12,o),
(673,86,o),
(673,200,cs),
(673,285,o),
(625,355,o),
(535,383,c)
);
},
{
closed = 1;
nodes = (
(148,67,o),
(138,74,o),
(138,87,cs),
(138,99,o),
(148,107,o),
(168,107,cs),
(183,107,o),
(201,101,o),
(221,91,c),
(205,75,o),
(188,67,o),
(168,67,cs)
);
}
);
width = 658;
}
);
unicode = 66;
},
{
glyphname = C;
layers = (
{
anchors = (
{
name = t.uni0302_2;
position = "{430, 703}";
},
{
name = b.uni0326_1_2;
position = "{354, 3}";
}
);
hints = (
{
horizontal = 1;
place = (-13,85);
type = Stem;
},
{
horizontal = 1;
place = (633,84);
type = Stem;
},
{
place = (87,97);
type = Stem;
},
{
place = (466,97);
type = Stem;
}
);
layerId = "986E1480-5ACC-463A-8EAE-4F79F3B98EB6";
shapes = (
{
closed = 1;
nodes = (
(477,-13,o),
(582,52,o),
(647,234,cs),
(649,240,o),
(650,246,o),
(650,251,cs),
(650,273,o),
(632,287,o),
(613,287,cs),
(598,287,o),
(583,279,o),
(576,260,cs),
(527,135,o),
(450,72,o),
(364,72,cs),
(264,72,o),
(184,149,o),
(184,272,cs),
(184,479,o),
(314,633,o),
(417,633,cs),
(449,633,o),
(466,616,o),
(466,584,cs),
(466,536,o),
(445,516,o),
(445,488,cs),
(445,463,o),
(466,444,o),
(489,444,cs),
(507,444,o),
(527,455,o),
(539,480,cs),
(554,512,o),
(563,550,o),
(563,584,cs),
(563,662,o),
(504,717,o),
(420,717,cs),
(259,717,o),
(87,531,o),
(87,272,cs),
(87,96,o),
(208,-13,o),
(350,-13,cs)
);
}
);
width = 565;
}
);
leftKerningGroup = C;
rightKerningGroup = A;
unicode = 67;
},
{
glyphname = D;
layers = (
{
anchors = (
{
name = t.uni0302_2;
position = "{449, 703}";
}
);
hints = (
{
horizontal = 1;
place = (-9,88);
type = Stem;
},
{
horizontal = 1;
place = (-8,81);
type = Stem;
},
{
horizontal = 1;
place = (117,77);
type = Stem;
},
{
horizontal = 1;
place = (374,84);
type = Stem;
},
{
horizontal = 1;
place = (634,88);
type = Stem;
},
{
place = (76,89);
type = Stem;
},
{
place = (144,97);
type = Stem;
},
{
place = (330,97);
type = Stem;
},
{
place = (693,97);
type = Stem;
}
);
layerId = "986E1480-5ACC-463A-8EAE-4F79F3B98EB6";
shapes = (
{
closed = 1;
nodes = (
(264,722,o),
(144,639,o),
(144,519,cs),
(144,431,o),
(211,374,o),
(315,374,cs),
(331,374,l),
(328,302,o),
(318,225,o),
(295,166,c),
(263,182,o),
(230,194,o),
(195,194,cs),
(116,194,o),
(76,143,o),
(76,91,cs),
(76,41,o),
(115,-8,o),
(194,-8,cs),
(251,-8,o),
(295,14,o),
(330,51,c),
(382,21,o),
(443,-9,o),
(508,-9,cs),
(656,-9,o),
(790,123,o),
(790,365,cs),
(790,587,o),
(657,722,o),
(436,722,cs)
);
},
{
closed = 1;
nodes = (
(455,79,o),
(415,98,o),
(375,121,c),
(410,194,o),
(426,291,o),
(429,391,c),
(448,397,o),
(466,404,o),
(483,413,cs),
(504,424,o),
(513,441,o),
(513,457,cs),
(513,478,o),
(497,494,o),
(471,494,cs),
(460,494,o),
(445,489,o),
(427,483,c),
(427,499,o),
(425,514,o),
(424,526,cs),
(420,554,o),
(398,571,o),
(374,571,c),
(350,570,o),
(330,551,o),
(330,520,cs),
(330,501,o),
(332,479,o),
(332,459,c),
(326,458,o),
(321,458,o),
(315,458,cs),
(267,458,o),
(241,480,o),
(241,520,cs),
(241,590,o),
(315,634,o),
(436,634,cs),
(604,634,o),
(693,542,o),
(693,365,cs),
(693,178,o),
(606,79,o),
(496,79,cs)
);
},
{
closed = 1;
nodes = (
(165,106,o),
(175,117,o),
(194,117,cs),
(210,117,o),
(230,109,o),
(252,98,c),
(236,82,o),
(216,73,o),
(194,73,cs),
(175,73,o),
(165,84,o),
(165,95,cs)
);
}
);
width = 788;
}
);
leftKerningGroup = D2;
rightKerningGroup = D;
unicode = 68;
},
{
glyphname = E;
layers = (
{
anchors = (
{
name = t.uni0302_2;
position = "{343, 703}";
}
);
hints = (
{
horizontal = 1;
place = (-16,86);
type = Stem;
},
{
horizontal = 1;
place = (347,86);
type = Stem;
},
{
horizontal = 1;
place = (638,84);
type = Stem;
},
{
place = (107,97);
type = Stem;
},
{
place = (159,97);
type = Stem;
},
{
place = (420,92);
type = Stem;
}
);
layerId = "986E1480-5ACC-463A-8EAE-4F79F3B98EB6";
shapes = (
{
closed = 1;
nodes = (
(506,160,o),
(442,70,o),
(339,70,cs),
(257,70,o),
(204,123,o),
(204,199,cs),
(204,282,o),
(268,347,o),
(371,347,cs),
(403,347,o),
(422,366,o),
(422,389,cs),
(422,413,o),
(402,433,o),
(371,433,cs),
(295,433,o),
(256,475,o),
(256,545,cs),
(256,603,o),
(292,638,o),
(344,638,cs),
(388,638,o),
(420,610,o),
(420,567,cs),
(420,556,o),
(418,544,o),
(418,529,cs),
(418,508,o),
(437,492,o),
(460,492,cs),
(485,492,o),
(512,514,o),
(512,573,cs),
(512,666,o),
(433,722,o),
(345,722,cs),
(237,722,o),
(159,648,o),
(159,549,cs),
(159,477,o),
(197,431,o),
(241,398,c),
(160,361,o),
(107,285,o),
(107,196,cs),
(107,72,o),
(198,-16,o),
(333,-16,cs),
(454,-16,o),
(545,48,o),
(614,234,cs),
(616,240,o),
(617,246,o),
(617,252,cs),
(617,275,o),
(599,291,o),
(580,291,cs),
(566,291,o),
(551,282,o),
(543,260,cs)
);
}
);
width = 532;
}
);
leftKerningGroup = E;
rightKerningGroup = A;
unicode = 69;
},
{
glyphname = F;
layers = (
{
hints = (
{
horizontal = 1;
place = (-4,85);
type = Stem;
},
{
horizontal = 1;
place = (320,85);
type = Stem;
},
{
horizontal = 1;
place = (613,87);
type = Stem;
},
{
horizontal = 1;
place = (635,87);
type = Stem;
},
{
place = (80,97);
type = Stem;
},
{
place = (317,99);
type = Stem;
},
{
place = (324,98);
type = Stem;
}
);
layerId = "986E1480-5ACC-463A-8EAE-4F79F3B98EB6";
shapes = (
{
closed = 1;
nodes = (
(611,613,o),
(674,638,o),
(674,678,cs),
(674,700,o),
(657,716,o),
(632,716,cs),
(604,716,o),
(583,700,o),
(533,700,cs),
(453,700,o),
(355,722,o),
(267,722,cs),
(149,722,o),
(80,658,o),
(80,566,cs),
(80,484,o),
(146,426,o),
(202,426,cs),
(235,426,o),
(251,442,o),
(251,463,cs),
(251,479,o),
(242,489,o),
(231,497,cs),
(209,513,o),
(177,524,o),
(177,567,cs),
(177,609,o),
(210,635,o),
(269,635,cs),
(290,635,o),
(314,633,o),
(340,630,c),
(336,562,o),
(329,465,o),
(324,394,c),
(293,387,o),
(265,378,o),
(246,366,cs),
(227,355,o),
(217,340,o),
(217,324,cs),
(217,304,o),
(231,290,o),
(258,290,cs),
(274,290,o),
(293,296,o),
(317,303,c),
(304,146,o),
(279,81,o),
(224,81,cs),
(197,81,o),
(175,97,o),
(165,129,cs),
(157,152,o),
(145,163,o),
(125,163,cs),
(104,163,o),
(83,145,o),
(83,109,cs),
(83,50,o),
(144,-4,o),
(222,-4,cs),
(339,-4,o),
(397,88,o),
(412,275,cs),
(413,290,o),
(414,304,o),
(416,320,c),
(432,320,ls),
(459,320,o),
(502,313,o),
(517,313,cs),
(549,313,o),
(566,332,o),
(566,353,cs),
(566,370,o),
(553,388,o),
(525,394,cs),
(493,400,o),
(461,405,o),
(430,405,cs),
(422,405,l),
(428,485,o),
(433,564,o),
(437,620,c),
(473,616,o),
(510,613,o),
(546,613,cs)
);
}
);
width = 570;
}
);
unicode = 70;
},
{
glyphname = G;
layers = (
{
anchors = (
{
name = t.uni0302_2;
position = "{435, 703}";
},
{
name = b.uni0326_1_2;
position = "{369, 3}";
}
);
hints = (
{
horizontal = 1;
place = (-16,85);
type = Stem;
},
{
horizontal = 1;
place = (245,84);
type = Stem;
},
{
horizontal = 1;
place = (407,-20);
target = down;
type = TopGhost;
},
{
horizontal = 1;
place = (633,84);
type = Stem;
},
{
place = (98,97);
type = Stem;
},
{
place = (477,97);
type = Stem;
},
{
place = (485,94);
type = Stem;
}
);
layerId = "986E1480-5ACC-463A-8EAE-4F79F3B98EB6";
shapes = (
{
closed = 1;
nodes = (
(596,407,o),
(585,401,o),
(576,392,cs),
(525,340,o),
(494,329,o),
(427,329,cs),
(393,329,o),
(377,313,o),
(377,290,cs),
(377,257,o),
(407,245,o),
(446,245,cs),
(458,245,o),
(470,246,o),
(482,248,c),
(484,240,o),
(485,229,o),
(485,218,cs),
(485,122,o),
(437,69,o),
(355,69,cs),
(261,69,o),
(195,141,o),
(195,267,cs),
(195,478,o),
(320,633,o),
(428,633,cs),
(460,633,o),
(477,618,o),
(477,586,cs),
(477,564,o),
(471,545,o),
(465,528,cs),
(461,515,o),
(457,503,o),
(457,492,cs),
(457,465,o),
(476,446,o),
(501,446,cs),
(522,446,o),
(540,464,o),
(553,490,cs),
(566,517,o),
(574,553,o),
(574,584,cs),
(574,661,o),
(516,717,o),
(431,717,cs),
(267,717,o),
(98,533,o),
(98,262,cs),
(98,97,o),
(204,-16,o),
(353,-16,cs),
(487,-16,o),
(579,77,o),
(579,212,cs),
(579,237,o),
(577,259,o),
(572,281,c),
(597,296,o),
(619,314,o),
(632,332,cs),
(640,344,o),
(645,357,o),
(645,369,cs),
(645,389,o),
(628,407,o),
(606,407,cs)
);
}
);
width = 631;
}
);
leftKerningGroup = C;
rightKerningGroup = G;
unicode = 71;
},
{
glyphname = H;
layers = (
{
anchors = (
{
name = t.uni0302_2;
position = "{478, 700}";
},
{
name = b.uni0326_1_2;
position = "{387, 0}";
}
);
hints = (
{
horizontal = 1;
place = (-6,84);
type = Stem;
},
{
horizontal = 1;
place = (-2,85);
type = Stem;
},
{
horizontal = 1;
place = (349,83);
type = Stem;
},
{
horizontal = 1;
place = (356,83);
type = Stem;
},
{
horizontal = 1;
place = (632,85);
type = Stem;
},
{
place = (93,89);
type = Stem;
},
{
place = (324,96);
type = Stem;
},
{
place = (546,97);
type = Stem;
}
);
layerId = "986E1480-5ACC-463A-8EAE-4F79F3B98EB6";
shapes = (
{
closed = 1;
nodes = (
(756,177,o),
(713,83,o),
(677,83,cs),
(658,83,o),
(643,99,o),
(643,170,cs),
(643,213,o),
(647,280,o),
(653,351,c),
(670,350,o),
(683,349,o),
(689,349,cs),
(720,349,o),
(738,370,o),
(738,390,cs),
(738,408,o),
(724,426,o),
(694,430,cs),
(683,432,o),
(672,433,o),
(661,434,c),
(671,551,o),
(683,660,o),
(683,676,cs),
(683,706,o),
(660,724,o),
(635,724,cs),
(610,724,o),
(589,707,o),
(586,679,c),
(581,612,o),
(572,524,o),
(564,439,c),
(560,439,ls),
(508,439,o),
(460,435,o),
(416,427,c),
(419,466,o),
(420,506,o),
(420,545,cs),
(420,657,o),
(381,717,o),
(300,717,cs),
(221,717,o),
(148,651,o),
(148,598,cs),
(148,578,o),
(164,563,o),
(184,563,cs),
(221,563,o),
(242,632,o),
(285,632,cs),
(308,632,o),
(324,618,o),
(324,550,cs),
(324,498,o),
(321,447,o),
(317,400,c),
(173,346,o),
(93,244,o),
(93,126,cs),
(93,47,o),
(142,-6,o),
(214,-6,cs),
(327,-6,o),
(385,152,o),
(408,340,c),
(452,350,o),
(502,355,o),
(557,356,c),
(551,282,o),
(546,215,o),
(546,175,cs),
(546,53,o),
(598,-2,o),
(670,-2,cs),
(753,-2,o),
(801,76,o),
(859,234,cs),
(861,240,o),
(862,246,o),
(862,252,cs),
(862,274,o),
(844,289,o),
(825,289,cs),
(811,289,o),
(796,281,o),
(788,260,cs)
);
},
{
closed = 1;
nodes = (
(196,78,o),
(182,98,o),
(182,136,cs),
(182,205,o),
(226,265,o),
(307,305,c),
(288,170,o),
(256,78,o),
(218,78,cs)
);
}
);
width = 777;
}
);
leftKerningGroup = H;
rightKerningGroup = A;
unicode = 72;
},
{
glyphname = I;
layers = (
{
anchors = (
{
name = t.uni0302_2;
position = "{296, 707}";
},
{
name = b.uni0326_1_2;
position = "{228, 0}";
}
);
hints = (
{
horizontal = 1;
place = (-1,85);
type = Stem;
},
{
horizontal = 1;
place = (641,85);
type = Stem;
},
{
place = (89,96);
type = Stem;
},
{
place = (343,97);
type = Stem;
}
);
layerId = "986E1480-5ACC-463A-8EAE-4F79F3B98EB6";
shapes = (
{
closed = 1;
nodes = (
(342,613,o),
(343,589,o),
(343,566,cs),
(343,232,o),
(302,84,o),
(235,84,cs),
(199,84,o),
(188,115,o),
(157,115,cs),
(135,115,o),
(119,98,o),
(119,72,cs),
(119,34,o),
(171,-1,o),
(235,-1,cs),
(377,-1,o),
(440,152,o),
(440,565,cs),
(440,600,o),
(440,636,o),
(438,676,cs),
(437,701,o),
(422,714,o),
(398,718,cs),
(362,723,o),
(320,726,o),
(276,726,cs),
(162,726,o),
(89,662,o),
(89,576,cs),
(89,505,o),
(151,434,o),
(212,434,cs),
(239,434,o),
(256,452,o),
(256,477,cs),
(256,492,o),
(245,503,o),
(230,515,c),
(206,532,o),
(185,551,o),
(185,577,cs),
(185,617,o),
(218,641,o),
(278,641,cs),
(299,641,o),
(321,640,o),
(342,638,c)
);
}
);
width = 455;
}
);
leftKerningGroup = I2;
rightKerningGroup = I;
unicode = 73;
},
{
glyphname = J;
layers = (
{
anchors = (
{
name = t.uni0302_2;
position = "{378, 707}";
},
{
name = b.uni0326_1_2;
position = "{274, 0}";
}
);
hints = (
{
horizontal = 1;
place = (-11,84);
type = Stem;
},
{
horizontal = 1;
place = (600,85);
type = Stem;
},
{
horizontal = 1;
place = (642,84);
type = Stem;
},
{
place = (99,96);
type = Stem;
},
{
place = (149,92);
type = Stem;
},
{
place = (401,97);
type = Stem;
}
);
layerId = "986E1480-5ACC-463A-8EAE-4F79F3B98EB6";
shapes = (
{
closed = 1;
nodes = (
(533,689,o),
(526,685,o),
(507,685,cs),
(469,685,o),
(382,726,o),
(320,726,cs),
(220,726,o),
(149,659,o),
(149,583,cs),
(149,539,o),
(173,517,o),
(200,517,cs),
(223,517,o),
(241,534,o),
(241,569,cs),
(241,612,o),
(269,642,o),
(326,642,cs),
(353,642,o),
(375,636,o),
(395,629,c),
(399,598,o),
(401,553,o),
(401,500,cs),
(401,158,o),
(344,73,o),
(278,73,cs),
(231,73,o),
(195,114,o),
(195,191,cs),
(195,233,o),
(202,277,o),
(202,293,cs),
(202,326,o),
(181,343,o),
(158,343,cs),
(133,343,o),
(113,325,o),
(107,291,cs),
(101,253,o),
(99,219,o),
(99,190,cs),
(99,66,o),
(172,-11,o),
(274,-11,cs),
(410,-11,o),
(498,93,o),
(498,500,cs),
(498,525,o),
(498,563,o),
(495,600,c),
(505,600,ls),
(559,600,o),
(586,624,o),
(586,650,cs),
(586,671,o),
(570,689,o),
(548,689,cs)
);
}
);
width = 548;
}
);
leftKerningGroup = J2;
rightKerningGroup = J;
unicode = 74;
},
{
glyphname = K;
layers = (
{
anchors = (
{
name = t.uni0302_2;
position = "{439, 704}";
},
{
name = b.uni0326_1_2;
position = "{407, 3}";
}
);
hints = (
{
horizontal = 1;
place = (-4,85);
type = Stem;
},
{
horizontal = 1;
place = (-13,21);
target = up;
type = BottomGhost;
},
{
horizontal = 1;
place = (317,85);
type = Stem;
},
{
horizontal = 1;
place = (633,85);
type = Stem;
},
{
place = (274,97);
type = Stem;
}
);
layerId = "986E1480-5ACC-463A-8EAE-4F79F3B98EB6";
shapes = (
{
closed = 1;
nodes = (
(699,181,o),
(650,81,o),
(614,81,cs),
(583,81,o),
(569,124,o),
(550,209,cs),
(537,267,o),
(520,325,o),
(479,362,c),
(587,427,o),
(644,543,o),
(664,628,cs),
(668,644,o),
(669,657,o),
(669,670,cs),
(669,702,o),
(650,722,o),
(626,722,cs),
(603,722,o),
(579,703,o),
(573,670,cs),
(548,531,o),
(459,423,o),
(360,402,c),
(367,462,o),
(371,521,o),
(371,575,cs),
(371,664,o),
(315,718,o),
(233,718,cs),
(159,718,o),
(76,647,o),
(76,600,cs),
(76,578,o),
(92,562,o),
(113,562,cs),
(154,562,o),
(180,633,o),
(232,633,cs),
(256,633,o),
(274,617,o),
(274,586,cs),
(274,523,o),
(269,461,o),
(262,402,c),
(228,401,o),
(210,382,o),
(210,363,cs),
(210,346,o),
(222,328,o),
(250,319,c),
(226,171,o),
(191,58,o),
(191,36,cs),
(191,7,o),
(211,-13,o),
(242,-13,cs),
(263,-13,o),
(278,-1,o),
(284,21,cs),
(310,115,o),
(332,217,o),
(348,317,c),
(361,319,o),
(374,321,o),
(386,324,c),
(421,313,o),
(437,264,o),
(454,192,cs),
(478,95,o),
(504,-4,o),
(611,-4,cs),
(688,-4,o),
(740,69,o),
(800,234,cs),
(802,240,o),
(803,246,o),
(803,251,cs),
(803,274,o),
(785,288,o),
(766,288,cs),
(752,288,o),
(737,280,o),
(729,260,cs)
);
}
);
width = 718;
}
);
leftKerningGroup = K;
rightKerningGroup = A;
unicode = 75;
},
{
glyphname = L;
layers = (
{
anchors = (
{
name = t.uni0302_2;
position = "{400, 703}";
},
{
name = b.uni0326_1_2;
position = "{327, 3}";
}
);
hints = (
{
horizontal = 1;
place = (-3,86);
type = Stem;
},
{
horizontal = 1;
place = (-6,21);
target = up;
type = BottomGhost;
},
{
horizontal = 1;
place = (30,84);
type = Stem;
},
{
horizontal = 1;
place = (454,84);
type = Stem;
},
{
horizontal = 1;
place = (635,84);
type = Stem;
},
{
place = (413,90);
type = Stem;
}
);
layerId = "986E1480-5ACC-463A-8EAE-4F79F3B98EB6";
shapes = (
{
closed = 1;
nodes = (
(511,148,o),
(476,83,o),
(428,83,cs),
(371,83,o),
(326,114,o),
(263,114,cs),
(247,114,o),
(229,112,o),
(213,109,c),
(267,180,o),
(289,279,o),
(308,454,c),
(424,454,o),
(503,527,o),
(503,616,cs),
(503,674,o),
(458,719,o),
(394,719,cs),
(313,719,o),
(256,664,o),
(228,557,c),
(197,576,o),
(176,607,o),
(166,648,c),
(159,673,o),
(143,687,o),
(123,687,cs),
(99,687,o),
(81,668,o),
(81,640,cs),
(81,570,o),
(133,502,o),
(213,471,c),
(212,470,o),
(212,468,o),
(212,466,c),
(189,242,o),
(164,162,o),
(72,84,cs),
(59,73,o),
(52,57,o),
(52,41,cs),
(52,16,o),
(74,-6,o),
(101,-6,cs),
(110,-6,o),
(120,-3,o),
(130,1,cs),
(178,23,o),
(208,30,o),
(247,30,cs),
(296,30,o),
(376,-3,o),
(438,-3,cs),
(518,-3,o),
(564,70,o),
(625,234,cs),
(627,240,o),
(628,246,o),
(628,252,cs),
(628,274,o),
(611,288,o),
(592,288,cs),
(577,288,o),
(561,279,o),
(554,260,cs)
);
},
{
closed = 1;
nodes = (
(403,635,o),
(413,625,o),
(413,609,cs),
(413,579,o),
(381,543,o),
(321,538,c),
(336,601,o),
(358,635,o),
(387,635,cs)
);
}
);
width = 543;
}
);
leftKerningGroup = L;
rightKerningGroup = A;
unicode = 76;
},
{
glyphname = M;
layers = (
{
hints = (
{
horizontal = 1;
place = (-7,85);
type = Stem;
},
{
horizontal = 1;
place = (-12,21);
target = up;
type = BottomGhost;
},
{
horizontal = 1;
place = (524,85);
type = Stem;
},
{
horizontal = 1;
place = (635,85);
type = Stem;
},
{
horizontal = 1;
place = (644,85);
type = Stem;
},
{
place = (247,81);
type = Stem;
},
{
place = (634,96);
type = Stem;
},
{
place = (955,97);
type = Stem;
},
{
place = (971,97);
type = Stem;
}
);
layerId = "986E1480-5ACC-463A-8EAE-4F79F3B98EB6";
shapes = (
{
closed = 1;
nodes = (
(1163,181,o),
(1118,78,o),
(1080,78,cs),
(1063,78,o),
(1052,89,o),
(1052,127,cs),
(1052,172,o),
(1068,365,o),
(1068,425,cs),
(1068,550,o),
(1013,609,o),
(924,609,cs),
(845,609,o),
(781,557,o),
(730,470,c),
(730,655,o),
(674,720,o),
(567,720,cs),
(460,720,o),
(383,619,o),
(328,463,c),
(316,667,o),
(256,729,o),
(163,729,cs),
(110,729,o),
(69,705,o),
(40,660,c),
(29,645,o),
(25,629,o),
(25,616,cs),
(25,591,o),
(42,574,o),
(62,574,cs),
(77,574,o),
(92,584,o),
(104,602,c),
(124,635,o),
(139,644,o),
(158,644,cs),
(206,644,o),
(247,577,o),
(247,305,cs),
(247,202,o),
(226,92,o),
(226,41,cs),
(226,7,o),
(246,-12,o),
(272,-12,cs),
(296,-12,o),
(317,4,o),
(321,37,cs),
(325,65,o),
(330,113,o),
(336,167,cs),
(366,441,o),
(466,635,o),
(566,635,cs),
(607,635,o),
(634,606,o),
(634,481,cs),
(634,376,o),
(610,217,o),
(595,117,c),
(592,102,o),
(591,92,o),
(591,88,cs),
(591,58,o),
(611,38,o),
(637,38,cs),
(660,38,o),
(681,54,o),
(686,82,cs),
(694,120,o),
(701,160,o),
(707,200,c),
(752,428,o),
(841,524,o),
(913,524,cs),
(951,524,o),
(971,499,o),
(971,429,cs),
(971,358,o),
(955,199,o),
(955,141,cs),
(955,39,o),
(1001,-7,o),
(1071,-7,cs),
(1153,-7,o),
(1203,72,o),
(1263,234,cs),
(1265,240,o),
(1266,246,o),
(1266,251,cs),
(1266,274,o),
(1248,289,o),
(1229,289,cs),
(1214,289,o),
(1200,280,o),
(1192,260,cs)
);
}
);
width = 1181;
}
);
leftKerningGroup = M;
rightKerningGroup = A;
unicode = 77;
},
{
glyphname = N;
layers = (
{
anchors = (
{
name = t.uni0302_2;
position = "{559, 703}";
},
{
name = b.uni0326_1_2;
position = "{497, 3}";
}
);
hints = (
{
horizontal = 1;
place = (-4,85);
type = Stem;
},
{
horizontal = 1;
place = (-11,21);
target = up;
type = BottomGhost;
},
{
horizontal = 1;
place = (635,84);
type = Stem;
},
{
horizontal = 1;
place = (646,85);
type = Stem;
},
{
place = (621,97);
type = Stem;
},
{
place = (637,97);
type = Stem;
}
);
layerId = "986E1480-5ACC-463A-8EAE-4F79F3B98EB6";
shapes = (
{
closed = 1;
nodes = (
(826,185,o),
(778,81,o),
(745,81,cs),
(728,81,o),
(718,97,o),
(718,140,cs),
(718,198,o),
(734,410,o),
(734,481,cs),
(734,646,o),
(678,719,o),
(567,719,cs),
(466,719,o),
(393,632,o),
(339,487,c),
(323,651,o),
(270,731,o),
(167,731,cs),
(116,731,o),
(72,706,o),
(39,658,cs),
(29,644,o),
(25,630,o),
(25,618,cs),
(25,595,o),
(41,580,o),
(59,580,cs),
(76,580,o),
(89,588,o),
(102,605,cs),
(124,636,o),
(140,646,o),
(159,646,cs),
(209,646,o),
(250,582,o),
(250,317,cs),
(250,233,o),
(235,101,o),
(226,50,cs),
(225,46,o),
(225,42,o),
(225,39,cs),
(225,9,o),
(246,-11,o),
(271,-11,cs),
(297,-11,o),
(320,7,o),
(324,42,cs),
(329,80,o),
(335,135,o),
(341,196,cs),
(365,443,o),
(475,635,o),
(564,635,cs),
(614,635,o),
(637,605,o),
(637,483,cs),
(637,415,o),
(621,203,o),
(621,153,cs),
(621,45,o),
(669,-4,o),
(738,-4,cs),
(815,-4,o),
(867,78,o),
(925,234,cs),
(927,240,o),
(928,246,o),
(928,252,cs),
(928,275,o),
(910,291,o),
(891,291,cs),
(877,291,o),
(862,282,o),
(854,260,cs)
);
}
);
width = 843;
}
);
leftKerningGroup = M;
rightKerningGroup = A;
unicode = 78;
},
{
glyphname = O;
layers = (
{
anchors = (
{
name = t.uni0302_2;
position = "{468, 703}";
}
);
hints = (
{
horizontal = 1;
place = (-13,85);
type = Stem;
},
{
horizontal = 1;
place = (74,77);
type = Stem;
},
{
horizontal = 1;
place = (636,84);
type = Stem;
},
{
place = (102,97);
type = Stem;
},
{
place = (263,87);
type = Stem;
},
{
place = (579,97);
type = Stem;
}
);
layerId = "986E1480-5ACC-463A-8EAE-4F79F3B98EB6";
shapes = (
{
closed = 1;
nodes = (
(720,193,o),
(673,158,o),
(616,151,c),
(653,222,o),
(676,313,o),
(676,423,cs),
(676,616,o),
(583,720,o),
(465,720,cs),
(430,720,o),
(394,706,o),
(362,680,c),
(356,691,o),
(343,698,o),
(327,698,cs),
(316,698,o),
(304,695,o),
(291,690,cs),
(185,651,o),
(102,484,o),
(102,315,cs),
(102,108,o),
(218,-13,o),
(376,-13,cs),
(445,-13,o),
(511,18,o),
(564,76,c),
(574,75,o),
(584,74,o),
(594,74,cs),
(691,74,o),
(774,116,o),
(817,234,cs),
(819,240,o),
(820,246,o),
(820,251,cs),
(820,274,o),
(802,289,o),
(783,289,cs),
(769,289,o),
(754,280,o),
(746,260,cs)
);
},
{
closed = 1;
nodes = (
(523,636,o),
(579,570,o),
(579,426,cs),
(579,311,o),
(555,224,o),
(520,166,c),
(430,202,o),
(350,298,o),
(350,432,cs),
(350,568,o),
(407,636,o),
(464,636,cs)
);
},
{
closed = 1;
nodes = (
(274,72,o),
(199,153,o),
(199,313,cs),
(199,422,o),
(235,529,o),
(292,582,c),
(274,540,o),
(263,488,o),
(263,429,cs),
(263,266,o),
(354,153,o),
(464,103,c),
(437,82,o),
(407,72,o),
(377,72,cs)
);
}
);
width = 735;
}
);
leftKerningGroup = O;
rightKerningGroup = A;
unicode = 79;
},
{
glyphname = P;
layers = (
{
hints = (
{
horizontal = 1;
place = (-13,21);
target = up;
type = BottomGhost;
},
{
horizontal = 1;
place = (191,84);
type = Stem;
},
{
horizontal = 1;
place = (635,84);
type = Stem;
},
{
place = (53,93);
type = Stem;
},
{
place = (179,97);
type = Stem;
},
{
place = (223,97);
type = Stem;
},
{
place = (546,97);
type = Stem;
}
);
layerId = "986E1480-5ACC-463A-8EAE-4F79F3B98EB6";
shapes = (
{
closed = 1;
nodes = (
(169,719,o),
(53,604,o),
(53,462,cs),
(53,421,o),
(77,400,o),
(99,400,cs),
(123,400,o),
(146,420,o),
(146,462,cs),
(146,562,o),
(220,635,o),
(360,635,cs),
(475,635,o),
(546,564,o),
(546,454,cs),
(546,348,o),
(479,275,o),
(380,275,cs),
(356,275,o),
(332,279,o),
(311,284,c),
(316,326,o),
(320,370,o),
(320,417,cs),
(320,481,o),
(310,557,o),
(255,557,cs),
(231,557,o),
(210,540,o),
(210,510,cs),
(210,495,o),
(223,447,o),
(223,417,cs),
(223,265,o),
(179,134,o),
(179,36,cs),
(179,5,o),
(201,-13,o),
(227,-13,cs),
(253,-13,o),
(276,6,o),
(276,37,cs),
(276,82,o),
(288,138,o),
(299,204,c),
(326,196,o),
(357,191,o),
(389,191,cs),
(535,191,o),
(643,300,o),
(643,454,cs),
(643,610,o),
(530,719,o),
(360,719,cs)
);
}
);
width = 632;
}
);
leftKerningGroup = P;
unicode = 80;
},
{
glyphname = Q;
layers = (
{
hints = (
{
horizontal = 1;
place = (-16,85);
type = Stem;
},
{
horizontal = 1;
place = (-14,80);
type = Stem;
},
{
horizontal = 1;
place = (136,79);
type = Stem;
},
{
horizontal = 1;
place = (638,84);
type = Stem;
},
{
place = (123,97);
type = Stem;
},
{
place = (178,86);
type = Stem;
},
{
place = (562,97);
type = Stem;
}
);
layerId = "986E1480-5ACC-463A-8EAE-4F79F3B98EB6";
shapes = (
{
closed = 1;
nodes = (
(704,175,o),
(644,69,o),
(602,69,cs),
(584,69,o),
(561,82,o),
(536,101,c),
(608,180,o),
(659,296,o),
(659,429,cs),
(659,617,o),
(552,722,o),
(408,722,cs),
(230,722,o),
(123,569,o),
(123,398,cs),
(123,350,o),
(129,305,o),
(143,264,cs),
(151,242,o),
(169,230,o),
(188,230,cs),
(213,230,o),
(235,249,o),
(235,280,cs),
(235,293,o),
(220,344,o),
(220,389,cs),
(220,521,o),
(290,638,o),
(404,638,cs),
(499,638,o),
(562,565,o),
(562,434,cs),
(562,321,o),
(519,221,o),
(463,154,c),
(417,186,o),
(365,215,o),
(308,215,cs),
(223,215,o),
(178,158,o),
(178,101,cs),
(178,44,o),
(223,-14,o),
(315,-14,cs),
(367,-14,o),
(422,7,o),
(473,44,c),
(514,12,o),
(557,-16,o),
(601,-16,cs),
(695,-16,o),
(768,132,o),
(806,234,cs),
(808,240,o),
(809,246,o),
(809,251,cs),
(809,274,o),
(791,289,o),
(772,289,cs),
(757,289,o),
(743,280,o),
(735,260,c)
);
},
{
closed = 1;
nodes = (
(264,120,o),
(279,136,o),
(311,136,cs),
(341,136,o),
(372,120,o),
(403,97,c),
(374,77,o),
(344,66,o),
(316,66,cs),
(281,66,o),
(264,85,o),
(264,102,cs)
);
}
);
width = 724;
}
);
leftKerningGroup = Q;
rightKerningGroup = A;
unicode = 81;
},
{
glyphname = R;
layers = (
{
anchors = (
{
name = t.uni0302_2;
position = "{353, 703}";
},
{
name = b.uni0326_1_2;
position = "{360, 3}";
}
);
hints = (
{
horizontal = 1;
place = (-6,85);
type = Stem;
},
{
horizontal = 1;
place = (-9,21);
target = up;
type = BottomGhost;
},
{
horizontal = 1;
place = (289,81);
type = Stem;
},
{
horizontal = 1;
place = (637,84);
type = Stem;
},
{
place = (40,97);
type = Stem;
},
{
place = (158,96);
type = Stem;
},
{
place = (195,93);
type = Stem;
},
{
place = (203,95);
type = Stem;
},
{
place = (498,97);
type = Stem;
}
);
layerId = "986E1480-5ACC-463A-8EAE-4F79F3B98EB6";
shapes = (
{
closed = 1;
nodes = (
(631,171,o),
(587,79,o),
(563,79,cs),
(543,79,o),
(516,131,o),
(486,197,cs),
(466,240,o),
(448,278,o),
(429,300,c),
(533,329,o),
(595,414,o),
(595,505,cs),
(595,627,o),
(502,721,o),
(339,721,cs),
(162,721,o),
(40,606,o),
(40,472,cs),
(40,431,o),
(62,408,o),
(88,408,cs),
(114,408,o),
(137,432,o),
(137,472,cs),
(137,566,o),
(223,637,o),
(339,637,cs),
(443,637,o),
(498,580,o),
(498,500,cs),
(498,430,o),
(442,370,o),
(343,370,cs),
(330,370,o),
(313,370,o),
(296,371,c),
(297,388,o),
(298,407,o),
(298,426,cs),
(298,493,o),
(289,563,o),
(236,563,cs),
(211,563,o),
(190,543,o),
(190,513,cs),
(190,500,o),
(203,456,o),
(203,426,cs),
(203,408,o),
(202,391,o),
(202,374,c),
(180,370,o),
(168,353,o),
(168,336,cs),
(168,321,o),
(177,306,o),
(195,299,c),
(189,253,o),
(181,213,o),
(173,175,cs),
(164,129,o),
(155,73,o),
(158,33,cs),
(160,6,o),
(179,-9,o),
(208,-9,cs),
(236,-9,o),
(254,9,o),
(254,40,cs),
(254,86,o),
(262,133,o),
(271,186,cs),
(276,218,o),
(283,252,o),
(288,289,c),
(320,289,l),
(348,284,o),
(365,231,o),
(394,167,c),
(431,80,o),
(478,-6,o),
(560,-6,cs),
(635,-6,o),
(674,69,o),
(735,234,cs),
(737,240,o),
(738,246,o),
(738,252,cs),
(738,275,o),
(721,289,o),
(702,289,cs),
(687,289,o),
(671,280,o),
(664,260,cs)
);
}
);
width = 653;
}
);
leftKerningGroup = R;
rightKerningGroup = A;
unicode = 82;
},
{
glyphname = S;
layers = (
{
anchors = (
{
name = t.uni0302_2;
position = "{281, 703}";
},
{
name = b.uni0326_1_2;
position = "{261, 3}";
}
);
hints = (
{
horizontal = 1;
place = (-17,85);
type = Stem;
},
{
horizontal = 1;
place = (636,84);
type = Stem;
},
{
place = (31,97);
type = Stem;
},
{
place = (106,97);
type = Stem;
},
{
place = (353,92);
type = Stem;
},
{
place = (386,97);
type = Stem;
}
);
layerId = "986E1480-5ACC-463A-8EAE-4F79F3B98EB6";
shapes = (
{
closed = 1;
nodes = (
(385,-17,o),
(483,76,o),
(483,195,cs),
(483,306,o),
(399,363,o),
(324,418,cs),
(260,464,o),
(203,506,o),
(203,566,cs),
(203,606,o),
(234,636,o),
(278,636,cs),
(322,636,o),
(353,608,o),
(353,574,cs),
(353,561,o),
(351,551,o),
(351,541,cs),
(351,518,o),
(372,500,o),
(396,500,cs),
(431,500,o),
(445,536,o),
(445,575,cs),
(445,665,o),
(369,720,o),
(278,720,cs),
(178,720,o),
(106,648,o),
(106,564,cs),
(106,461,o),
(187,396,o),
(265,341,c),
(329,294,o),
(386,258,o),
(386,191,cs),
(386,120,o),
(333,68,o),
(255,68,cs),
(179,68,o),
(128,115,o),
(128,180,cs),
(128,222,o),
(146,246,o),
(146,276,cs),
(146,304,o),
(126,321,o),
(102,321,cs),
(81,321,o),
(60,308,o),
(50,281,cs),
(38,247,o),
(31,212,o),
(31,182,cs),
(31,66,o),
(122,-17,o),
(253,-17,cs)
);
}
);
width = 456;
}
);
leftKerningGroup = S2;
rightKerningGroup = S;
unicode = 83;
},
{
glyphname = T;
layers = (
{
anchors = (
{
name = t.uni0302_2;
position = "{424, 699}";
},
{
name = b.uni0326_1_2;
position = "{267, 3}";
}
);
hints = (
{
horizontal = 1;
place = (-3,85);
type = Stem;
},
{
horizontal = 1;
place = (593,86);
type = Stem;
},
{
horizontal = 1;
place = (635,86);
type = Stem;
},
{
horizontal = 1;
place = (752,-20);
target = down;
type = TopGhost;
},
{
place = (81,96);
type = Stem;
},
{
place = (352,96);
type = Stem;
}
);
layerId = "986E1480-5ACC-463A-8EAE-4F79F3B98EB6";
shapes = (
{
closed = 1;
nodes = (
(612,752,o),
(633,679,o),
(538,679,cs),
(453,679,o),
(352,721,o),
(254,721,cs),
(149,721,o),
(81,662,o),
(81,574,cs),
(81,519,o),
(113,467,o),
(164,438,cs),
(178,430,o),
(190,427,o),
(201,427,cs),
(230,427,o),
(249,447,o),
(249,469,cs),
(249,483,o),
(241,498,o),
(222,511,c),
(193,528,o),
(177,547,o),
(177,576,cs),
(177,609,o),
(206,635,o),
(254,635,cs),
(280,635,o),
(314,629,o),
(352,622,c),
(346,530,o),
(333,360,o),
(329,304,cs),
(319,147,o),
(291,82,o),
(240,82,cs),
(209,82,o),
(193,106,o),
(177,131,cs),
(163,153,o),
(147,162,o),
(131,162,cs),
(109,162,o),
(89,143,o),
(89,115,cs),
(89,104,o),
(92,92,o),
(99,79,cs),
(123,33,o),
(170,-3,o),
(238,-3,cs),
(352,-3,o),
(410,87,o),
(425,287,c),
(431,356,o),
(439,481,o),
(448,604,c),
(486,598,o),
(525,593,o),
(560,593,cs),
(639,593,o),
(702,649,o),
(702,712,cs),
(702,736,o),
(684,752,o),
(662,752,cs)
);
}
);
width = 596;
}
);
leftKerningGroup = T2;
rightKerningGroup = T;
unicode = 84;
},
{
glyphname = U;
layers = (
{
anchors = (
{
name = t.uni0302_2;
position = "{428, 703}";
}
);
hints = (
{
horizontal = 1;
place = (-9,85);
type = Stem;
},
{
horizontal = 1;
place = (-7,85);
type = Stem;
},
{
horizontal = 1;
place = (636,84);
type = Stem;
},
{
place = (161,97);
type = Stem;
},
{
place = (225,97);
type = Stem;
},
{
place = (537,89);
type = Stem;
}
);
layerId = "986E1480-5ACC-463A-8EAE-4F79F3B98EB6";
shapes = (
{
closed = 1;
nodes = (
(759,166,o),
(722,78,o),
(680,78,cs),
(652,78,o),
(626,110,o),
(626,240,cs),
(626,314,o),
(631,424,o),
(650,562,cs),
(652,576,o),
(653,582,o),
(653,588,cs),
(653,620,o),
(632,641,o),
(606,641,cs),
(582,641,o),
(560,622,o),
(556,589,c),
(556,587,o),
(556,585,o),
(555,583,c),
(513,309,o),
(407,76,o),
(311,76,cs),
(277,76,o),
(258,96,o),
(258,142,cs),
(258,238,o),
(322,523,o),
(322,597,cs),
(322,674,o),
(270,720,o),
(206,720,cs),
(152,720,o),
(102,690,o),
(72,632,cs),
(65,618,o),
(62,608,o),
(62,598,cs),
(62,575,o),
(81,561,o),
(102,561,cs),
(116,561,o),
(130,569,o),
(139,585,cs),
(161,624,o),
(175,636,o),
(194,636,cs),
(213,636,o),
(225,625,o),
(225,597,cs),
(225,540,o),
(161,245,o),
(161,147,cs),
(161,47,o),
(219,-9,o),
(302,-9,cs),
(405,-9,o),
(482,87,o),
(537,231,c),
(537,216,ls),
(537,54,o),
(599,-7,o),
(674,-7,cs),
(752,-7,o),
(806,67,o),
(868,234,cs),
(870,240,o),
(871,246,o),
(871,252,cs),
(871,274,o),
(853,289,o),
(834,289,cs),
(820,289,o),
(805,280,o),
(797,260,cs)
);
}
);
width = 786;
}
);
leftKerningGroup = U;
rightKerningGroup = A;
unicode = 85;
},
{
glyphname = V;
layers = (
{
hints = (
{
horizontal = 1;
place = (-5,21);
target = up;
type = BottomGhost;
},
{
horizontal = 1;
place = (639,85);
type = Stem;
},
{
place = (30,687);
type = Stem;
}
);
layerId = "986E1480-5ACC-463A-8EAE-4F79F3B98EB6";
shapes = (
{
closed = 1;
nodes = (
(658,722,o),
(643,716,o),
(629,704,cs),
(499,586,o),
(423,410,o),
(358,173,c),
(352,254,o),
(345,373,o),
(326,560,cs),
(316,665,o),
(263,724,o),
(178,724,cs),
(118,724,o),
(66,691,o),
(43,651,cs),
(35,637,o),
(30,623,o),
(30,609,cs),
(30,586,o),
(46,570,o),
(66,570,cs),
(79,570,o),
(94,577,o),
(106,594,cs),
(127,621,o),
(148,639,o),
(174,639,cs),
(205,639,o),
(223,612,o),
(229,554,cs),
(252,324,o),
(263,174,o),
(297,43,cs),
(305,10,o),
(327,-5,o),
(355,-5,cs),
(377,-5,o),
(397,10,o),
(403,33,cs),
(470,266,o),
(550,501,o),
(694,632,cs),
(710,646,o),
(717,662,o),
(717,676,cs),
(717,702,o),
(698,722,o),
(671,722,cs)
);
}
);
width = 622;
}
);
unicode = 86;
},
{
glyphname = W;
layers = (
{
anchors = (
{
name = t.uni0302_2;
position = "{609, 703}";
}
);
hints = (
{
horizontal = 1;
place = (-5,85);
type = Stem;
},
{
horizontal = 1;
place = (633,85);
type = Stem;
},
{
place = (181,97);
type = Stem;
},
{
place = (228,97);
type = Stem;
},
{
place = (876,97);
type = Stem;
}
);
layerId = "986E1480-5ACC-463A-8EAE-4F79F3B98EB6";
shapes = (
{
closed = 1;
nodes = (
(913,712,o),
(895,723,o),
(879,723,cs),
(853,723,o),
(831,704,o),
(831,676,cs),
(831,666,o),
(834,654,o),
(841,642,cs),
(862,604,o),
(876,533,o),
(876,460,cs),
(876,209,o),
(789,80,o),
(719,80,cs),
(659,80,o),
(626,172,o),
(626,321,cs),
(626,403,o),
(639,480,o),
(643,503,cs),
(645,518,o),
(647,530,o),
(647,536,c),
(648,564,o),
(625,585,o),
(600,585,cs),
(576,585,o),
(554,567,o),
(550,535,c),
(504,263,o),
(423,80,o),
(338,80,cs),
(301,80,o),
(278,104,o),
(278,168,cs),
(278,278,o),
(325,523,o),
(325,590,cs),
(325,668,o),
(277,718,o),
(208,718,cs),
(151,718,o),
(107,689,o),
(84,654,cs),
(73,638,o),
(68,622,o),
(68,608,cs),
(68,585,o),
(84,570,o),
(104,570,cs),
(116,570,o),
(129,576,o),
(140,591,c),
(161,623,o),
(177,633,o),
(196,633,cs),
(216,633,o),
(228,619,o),
(228,592,cs),
(228,541,o),
(181,280,o),
(181,180,cs),
(181,56,o),
(242,-5,o),
(337,-5,cs),
(429,-5,o),
(495,70,o),
(543,189,c),
(565,50,o),
(627,-5,o),
(716,-5,cs),
(845,-5,o),
(973,147,o),
(973,448,cs),
(973,542,o),
(953,629,o),
(923,690,cs)
);
}
);
width = 978;
}
);
leftKerningGroup = W2;
rightKerningGroup = W;
unicode = 87;
},
{
glyphname = X;
layers = (
{
hints = (
{
horizontal = 1;
place = (-4,88);
type = Stem;
},
{
place = (50,590);
type = Stem;
}
);
layerId = "986E1480-5ACC-463A-8EAE-4F79F3B98EB6";
shapes = (
{
closed = 1;
nodes = (
(585,716,o),
(574,712,o),
(562,705,cs),
(502,671,o),
(422,543,o),
(364,422,c),
(335,510,o),
(317,599,o),
(313,679,cs),
(312,704,o),
(292,723,o),
(264,723,cs),
(237,723,o),
(216,702,o),
(216,674,cs),
(216,667,o),
(217,655,o),
(218,637,c),
(229,533,o),
(258,414,o),
(309,296,c),
(241,141,o),
(205,84,o),
(171,84,cs),
(152,84,o),
(140,95,o),
(128,106,cs),
(116,117,o),
(104,125,o),
(89,125,cs),
(66,125,o),
(50,104,o),
(50,80,cs),
(50,64,o),
(57,46,o),
(74,31,cs),
(96,11,o),
(129,-4,o),
(166,-4,cs),
(263,-4,o),
(311,73,o),
(363,187,c),
(406,110,o),
(460,36,o),
(525,-30,cs),
(535,-41,o),
(548,-48,o),
(562,-48,cs),
(585,-48,o),
(610,-28,o),
(610,-1,cs),
(610,14,o),
(604,26,o),
(594,36,cs),
(521,105,o),
(459,199,o),
(412,301,c),
(492,485,o),
(561,582,o),
(622,635,cs),
(633,645,o),
(640,660,o),
(640,673,cs),
(640,697,o),
(621,716,o),
(595,716,cs)
);
}
);
width = 615;
}
);
unicode = 88;
},
{
glyphname = Y;
layers = (
{
anchors = (
{
name = t.uni0302_2;
position = "{389, 703}";
}
);
hints = (
{
horizontal = 1;
place = (-12,85);
type = Stem;
},
{
horizontal = 1;
place = (233,85);
type = Stem;
},
{
horizontal = 1;
place = (631,84);
type = Stem;
},
{
place = (195,97);
type = Stem;
},
{
place = (209,97);
type = Stem;
},
{
place = (526,97);
type = Stem;
}
);
layerId = "986E1480-5ACC-463A-8EAE-4F79F3B98EB6";
shapes = (
{
closed = 1;
nodes = (
(617,699,o),
(595,714,o),
(573,714,cs),
(548,714,o),
(524,696,o),
(524,664,cs),
(524,645,o),
(526,618,o),
(526,586,cs),
(526,576,o),
(526,565,o),
(526,554,c),
(517,418,o),
(440,318,o),
(358,318,cs),
(317,318,o),
(292,345,o),
(292,403,cs),
(292,446,o),
(306,564,o),
(306,597,cs),
(306,669,o),
(253,715,o),
(188,715,cs),
(136,715,o),
(86,687,o),
(51,641,cs),
(42,629,o),
(37,615,o),
(37,604,cs),
(37,580,o),
(55,564,o),
(75,564,cs),
(87,564,o),
(99,569,o),
(110,580,cs),
(140,611,o),
(162,631,o),
(182,631,cs),
(198,631,o),
(209,618,o),
(209,590,cs),
(209,560,o),
(195,463,o),
(195,405,cs),
(195,293,o),
(255,233,o),
(344,233,cs),
(411,233,o),
(463,268,o),
(501,322,c),
(473,185,o),
(416,73,o),
(332,73,cs),
(302,73,o),
(278,86,o),
(251,117,c),
(241,131,o),
(228,137,o),
(215,137,cs),
(195,137,o),
(177,121,o),
(177,96,cs),
(177,84,o),
(180,71,o),
(189,58,cs),
(217,17,o),
(271,-12,o),
(333,-12,cs),
(535,-12,o),
(617,264,o),
(623,565,cs),
(624,598,o),
(622,635,o),
(620,668,c)
);
}
);
width = 633;
}
);
leftKerningGroup = Y2;
rightKerningGroup = Y;
unicode = 89;
},
{
glyphname = Z;
layers = (
{
anchors = (
{
name = t.uni0302_2;
position = "{411, 703}";
}
);
hints = (
{
horizontal = 1;
place = (-11,85);
type = Stem;
},
{
horizontal = 1;
place = (-9,78);
type = Stem;
},
{
horizontal = 1;
place = (110,75);
type = Stem;
},
{
horizontal = 1;
place = (601,84);
type = Stem;
},
{
horizontal = 1;
place = (632,85);
type = Stem;
},
{
place = (66,84);
type = Stem;
},
{
place = (130,90);
type = Stem;
}
);
layerId = "986E1480-5ACC-463A-8EAE-4F79F3B98EB6";
shapes = (
{
closed = 1;
nodes = (
(571,138,o),
(527,74,o),
(475,74,cs),
(443,74,o),
(407,91,o),
(369,112,c),
(377,123,o),
(384,135,o),
(391,147,cs),
(493,326,o),
(613,607,o),
(613,667,cs),
(613,696,o),
(592,714,o),
(567,714,cs),
(529,714,o),
(509,685,o),
(464,685,cs),
(392,685,o),
(321,717,o),
(254,717,cs),
(182,717,o),
(130,668,o),
(130,593,cs),
(130,544,o),
(150,490,o),
(193,490,cs),
(216,490,o),
(235,509,o),
(235,533,cs),
(235,545,o),
(220,570,o),
(220,591,cs),
(220,618,o),
(235,632,o),
(260,632,cs),
(322,632,o),
(381,601,o),
(456,601,cs),
(469,601,o),
(484,602,o),
(499,604,c),
(446,468,o),
(354,268,o),
(285,158,c),
(253,174,o),
(219,185,o),
(186,185,cs),
(107,185,o),
(66,138,o),
(66,90,cs),
(66,42,o),
(106,-9,o),
(190,-9,cs),
(235,-9,o),
(277,10,o),
(315,47,c),
(366,17,o),
(422,-11,o),
(473,-11,cs),
(567,-11,o),
(630,75,o),
(689,234,cs),
(691,240,o),
(692,246,o),
(692,252,cs),
(692,274,o),
(674,289,o),
(655,289,cs),
(641,289,o),
(626,281,o),
(618,260,cs)
);
},
{
closed = 1;
nodes = (
(161,69,o),
(150,79,o),
(150,89,cs),
(150,99,o),
(160,110,o),
(181,110,cs),
(195,110,o),
(213,103,o),
(234,92,c),
(217,77,o),
(200,69,o),
(181,69,cs)
);
}
);
width = 607;
}
);
leftKerningGroup = Z;
rightKerningGroup = A;
unicode = 90;
},
{
glyphname = bracketleft;
layers = (
{
hints = (
{
horizontal = 1;
place = (-27,81);
type = Stem;
},
{
horizontal = 1;
place = (603,81);
type = Stem;
},
{
place = (80,91);
type = Stem;
}
);
layerId = "986E1480-5ACC-463A-8EAE-4F79F3B98EB6";
shapes = (
{
closed = 1;
nodes = (
(279,-23,o),
(296,-2,o),
(296,18,cs),
(296,37,o),
(280,55,o),
(250,55,cs),
(239,55,o),
(230,54,o),
(221,54,cs),
(204,54,o),
(190,56,o),
(183,63,cs),
(172,75,o),
(171,217,o),
(171,328,cs),
(171,435,o),
(175,577,o),
(186,592,cs),
(191,599,o),
(221,602,o),
(250,603,cs),
(281,604,o),
(297,624,o),
(297,644,cs),
(297,664,o),
(281,684,o),
(247,684,cs),
(191,684,o),
(133,680,o),
(111,660,cs),
(92,643,o),
(80,465,o),
(80,329,cs),
(80,185,o),
(87,11,o),
(109,-9,cs),
(124,-22,o),
(164,-27,o),
(206,-27,cs),
(218,-27,o),
(231,-27,o),
(244,-26,cs)
);
}
);
width = 327;
}
);
unicode = 91;
},
{
glyphname = backslash;
layers = (
{
hints = (
{
horizontal = 1;
place = (-6,21);
target = up;
type = BottomGhost;
},
{
place = (40,342);
type = Stem;
}
);
layerId = "986E1480-5ACC-463A-8EAE-4F79F3B98EB6";
shapes = (
{
closed = 1;
nodes = (
(361,-6,o),
(382,12,o),
(382,36,cs),
(382,45,o),
(379,56,o),
(372,67,cs),
(300,180,o),
(207,550,o),
(117,658,cs),
(105,672,o),
(93,678,o),
(80,678,cs),
(59,678,o),
(40,660,o),
(40,635,cs),
(40,626,o),
(44,616,o),
(51,606,cs),
(136,482,o),
(226,142,o),
(304,17,cs),
(314,1,o),
(327,-6,o),
(340,-6,cs)
);
}
);
width = 410;
}
);
unicode = 92;
},
{
glyphname = bracketright;
layers = (
{
hints = (
{
horizontal = 1;
place = (-27,81);
type = Stem;
},
{
horizontal = 1;
place = (603,81);
type = Stem;
},
{
place = (156,91);
type = Stem;
}
);
layerId = "986E1480-5ACC-463A-8EAE-4F79F3B98EB6";
shapes = (
{
closed = 1;
nodes = (
(96,-27,o),
(109,-27,o),
(121,-27,cs),
(163,-27,o),
(203,-22,o),
(218,-9,cs),
(240,11,o),
(247,185,o),
(247,329,cs),
(247,465,o),
(235,643,o),
(216,660,cs),
(194,680,o),
(136,684,o),
(81,684,cs),
(47,684,o),
(31,664,o),
(31,644,cs),
(31,624,o),
(47,603,o),
(77,603,c),
(106,602,o),
(136,599,o),
(141,592,cs),
(152,577,o),
(156,435,o),
(156,328,cs),
(156,217,o),
(155,75,o),
(144,63,cs),
(137,56,o),
(123,54,o),
(106,54,cs),
(98,54,o),
(90,54,o),
(81,55,c),
(48,56,o),
(31,38,o),
(31,18,cs),
(31,-2,o),
(48,-23,o),
(83,-26,cs)
);
}
);
width = 327;
}
);
unicode = 93;
},
{
glyphname = asciicircum;
layers = (
{
hints = (
{
horizontal = 1;
place = (368,320);
type = Stem;
},
{
place = (30,314);
type = Stem;
}
);
layerId = "986E1480-5ACC-463A-8EAE-4F79F3B98EB6";
shapes = (
{
closed = 1;
nodes = (
(86,368,o),
(102,377,o),
(112,396,c),
(177,533,l),
(180,538,o),
(183,540,o),
(186,540,cs),
(190,540,o),
(193,538,o),
(196,533,cs),
(262,395,ls),
(271,376,o),
(286,368,o),
(302,368,cs),
(323,368,o),
(344,385,o),
(344,409,cs),
(344,417,o),
(342,425,o),
(337,433,c),
(231,657,l),
(220,678,o),
(203,688,o),
(186,688,cs),
(168,688,o),
(152,678,o),
(142,657,cs),
(36,434,ls),
(32,425,o),
(30,417,o),
(30,410,cs),
(30,385,o),
(50,368,o),
(71,368,cs)
);
}
);
width = 374;
}
);
unicode = 94;
},
{
glyphname = underscore;
layers = (
{
hints = (
{
horizontal = 1;
place = (-26,81);
type = Stem;
},
{
place = (58,337);
type = Stem;
}
);
layerId = "986E1480-5ACC-463A-8EAE-4F79F3B98EB6";
shapes = (
{
closed = 1;
nodes = (
(378,-27,o),
(395,-8,o),
(395,14,cs),
(395,35,o),
(379,53,o),
(353,53,c),
(268,54,o),
(188,55,o),
(102,55,c),
(75,56,o),
(58,38,o),
(58,16,cs),
(58,-6,o),
(74,-24,o),
(101,-24,c),
(187,-25,o),
(267,-26,o),
(352,-26,c)
);
}
);
width = 415;
}
);
unicode = 95;
},
{
glyphname = grave;
layers = (
{
hints = (
{
horizontal = 1;
place = (758,159);
type = Stem;
},
{
place = (32,156);
type = Stem;
}
);
layerId = "986E1480-5ACC-463A-8EAE-4F79F3B98EB6";
shapes = (
{
closed = 1;
nodes = (
(110,899,ls),
(97,912,o),
(83,917,o),
(71,917,cs),
(49,917,o),
(32,901,o),
(32,879,cs),
(32,867,o),
(38,854,o),
(50,841,cs),
(112,776,ls),
(124,763,o),
(138,758,o),
(150,758,cs),
(171,758,o),
(188,775,o),
(188,797,cs),
(188,809,o),
(183,822,o),
(171,835,cs)
);
}
);
width = 222;
}
);
unicode = 96;
},
{
glyphname = a;
layers = (
{
anchors = (
{
name = t.uni0302_2;
position = "{223, 403}";
}
);
hints = (
{
horizontal = 1;
place = (-6,84);
type = Stem;
},
{
horizontal = 1;
place = (334,83);
type = Stem;
},
{
place = (2,93);
type = Stem;
},
{
place = (279,81);
type = Stem;
}
);
layerId = "986E1480-5ACC-463A-8EAE-4F79F3B98EB6";
shapes = (
{
closed = 1;
nodes = (
(457,168,o),
(415,78,o),
(385,78,cs),
(368,78,o),
(360,95,o),
(360,164,cs),
(360,233,o),
(376,350,o),
(376,380,cs),
(376,410,o),
(355,426,o),
(333,426,cs),
(309,426,o),
(295,413,o),
(287,392,c),
(262,408,o),
(235,417,o),
(206,417,cs),
(104,417,o),
(2,310,o),
(2,163,cs),
(2,51,o),
(63,-6,o),
(145,-6,cs),
(203,-6,o),
(247,24,o),
(285,81,c),
(301,23,o),
(338,-6,o),
(380,-6,cs),
(453,-6,o),
(503,70,o),
(562,234,cs),
(564,240,o),
(565,247,o),
(565,252,cs),
(565,275,o),
(548,291,o),
(529,291,cs),
(515,291,o),
(499,282,o),
(491,260,cs)
);
},
{
closed = 1;
nodes = (
(119,78,o),
(95,109,o),
(95,166,cs),
(95,259,o),
(153,334,o),
(221,334,cs),
(251,334,o),
(271,320,o),
(279,301,c),
(277,201,o),
(243,78,o),
(159,78,cs)
);
}
);
width = 480;
}
);
leftKerningGroup = a;
rightKerningGroup = A;
unicode = 97;
},
{
glyphname = b;
layers = (
{
hints = (
{
horizontal = 1;
place = (-9,83);
type = Stem;
},
{
horizontal = 1;
place = (329,79);
type = Stem;
},
{
horizontal = 1;
place = (439,77);
type = Stem;
},
{
horizontal = 1;
place = (641,83);
type = Stem;
},
{
place = (19,91);
type = Stem;
},
{
place = (120,77);
type = Stem;
},
{
place = (299,87);
type = Stem;
},
{
place = (302,90);
type = Stem;
}
);
layerId = "986E1480-5ACC-463A-8EAE-4F79F3B98EB6";
shapes = (
{
closed = 1;
nodes = (
(434,223,o),
(414,198,o),
(387,183,c),
(390,202,o),
(392,221,o),
(392,239,cs),
(392,339,o),
(339,408,o),
(254,408,cs),
(180,408,o),
(120,347,o),
(120,265,cs),
(120,185,o),
(177,124,o),
(252,101,c),
(236,85,o),
(216,74,o),
(196,74,cs),
(150,74,o),
(110,129,o),
(110,274,cs),
(110,335,o),
(115,391,o),
(125,439,c),
(138,439,ls),
(294,439,o),
(386,512,o),
(386,606,cs),
(386,672,o),
(340,724,o),
(263,724,cs),
(171,724,o),
(97,651,o),
(55,527,c),
(48,528,o),
(43,529,o),
(38,529,cs),
(12,529,o),
(-3,510,o),
(-3,492,cs),
(-3,474,o),
(9,456,o),
(34,449,c),
(35,449,l),
(25,396,o),
(19,337,o),
(19,273,cs),
(19,72,o),
(87,-9,o),
(196,-9,cs),
(267,-9,o),
(322,35,o),
(355,95,c),
(427,106,o),
(488,149,o),
(519,234,cs),
(521,240,o),
(522,246,o),
(522,251,cs),
(522,274,o),
(504,289,o),
(485,289,cs),
(471,289,o),
(456,280,o),
(448,260,cs)
);
},
{
closed = 1;
nodes = (
(286,641,o),
(299,627,o),
(299,606,cs),
(299,566,o),
(251,516,o),
(152,516,cs),
(145,516,l),
(174,595,o),
(216,641,o),
(263,641,cs)
);
},
{
closed = 1;
nodes = (
(197,302,o),
(221,329,o),
(251,329,cs),
(283,329,o),
(302,295,o),
(302,247,cs),
(302,220,o),
(298,193,o),
(290,169,c),
(236,178,o),
(197,213,o),
(197,262,cs)
);
}
);
width = 437;
}
);
leftKerningGroup = b;
rightKerningGroup = A;
unicode = 98;
},
{
glyphname = c;
layers = (
{
anchors = (
{
name = t.uni0302_2;
position = "{202, 403}";
},
{
name = b.uni0326_1_2;
position = "{188, 3}";
}
);
hints = (
{
horizontal = 1;
place = (-11,84);
type = Stem;
},
{
horizontal = 1;
place = (337,83);
type = Stem;
},
{
place = (9,93);
type = Stem;
},
{
place = (240,89);
type = Stem;
}
);
layerId = "986E1480-5ACC-463A-8EAE-4F79F3B98EB6";
shapes = (
{
closed = 1;
nodes = (
(311,-11,o),
(411,64,o),
(473,234,cs),
(475,240,o),
(476,246,o),
(476,252,cs),
(476,275,o),
(459,291,o),
(440,291,cs),
(425,291,o),
(410,282,o),
(402,260,cs),
(366,167,o),
(298,73,o),
(207,73,cs),
(143,73,o),
(102,113,o),
(102,189,cs),
(102,283,o),
(153,337,o),
(202,337,cs),
(226,337,o),
(240,323,o),
(240,299,cs),
(240,267,o),
(257,251,o),
(283,251,cs),
(309,251,o),
(329,270,o),
(329,314,cs),
(329,370,o),
(280,420,o),
(202,420,cs),
(100,420,o),
(9,329,o),
(9,188,cs),
(9,66,o),
(86,-11,o),
(202,-11,cs)
);
}
);
width = 391;
}
);
leftKerningGroup = c;
rightKerningGroup = A;
unicode = 99;
},
{
glyphname = d;
layers = (
{
hints = (
{
horizontal = 1;
place = (-4,83);
type = Stem;
},
{
horizontal = 1;
place = (0,83);
type = Stem;
},
{
horizontal = 1;
place = (344,83);
type = Stem;
},
{
horizontal = 1;
place = (419,-20);
target = down;
type = TopGhost;
},
{
horizontal = 1;
place = (637,82);
type = Stem;
},
{
place = (2,93);
type = Stem;
},
{
place = (257,83);
type = Stem;
},
{
place = (268,78);
type = Stem;
},
{
place = (413,85);
type = Stem;
}
);
layerId = "986E1480-5ACC-463A-8EAE-4F79F3B98EB6";
shapes = (
{
closed = 1;
nodes = (
(474,187,o),
(426,83,o),
(393,83,cs),
(374,83,o),
(355,108,o),
(346,206,c),
(396,288,o),
(498,467,o),
(498,598,cs),
(498,676,o),
(457,719,o),
(400,719,cs),
(317,719,o),
(258,642,o),
(257,419,c),
(244,425,o),
(230,427,o),
(214,427,cs),
(103,427,o),
(2,321,o),
(2,178,cs),
(2,58,o),
(61,-4,o),
(143,-4,cs),
(193,-4,o),
(246,31,o),
(284,84,c),
(305,30,o),
(339,0,o),
(389,0,cs),
(464,0,o),
(517,83,o),
(572,234,cs),
(574,240,o),
(575,246,o),
(575,252,cs),
(575,275,o),
(558,290,o),
(539,290,cs),
(524,290,o),
(509,281,o),
(501,260,cs)
);
},
{
closed = 1;
nodes = (
(404,637,o),
(413,629,o),
(413,600,cs),
(413,551,o),
(384,441,o),
(340,346,c),
(340,349,ls),
(340,587,o),
(368,637,o),
(392,637,cs)
);
},
{
closed = 1;
nodes = (
(119,79,o),
(95,111,o),
(95,176,cs),
(95,268,o),
(155,344,o),
(213,344,cs),
(247,344,o),
(268,323,o),
(268,265,cs),
(268,163,o),
(204,79,o),
(150,79,cs)
);
}
);
width = 490;
}
);
leftKerningGroup = a;
rightKerningGroup = A;
unicode = 100;
},
{
glyphname = e;
layers = (
{
anchors = (
{
name = t.uni0302_2;
position = "{203, 403}";
}
);
hints = (
{
horizontal = 1;
place = (-9,83);
type = Stem;
},
{
horizontal = 1;
place = (159,72);
type = Stem;
},
{
horizontal = 1;
place = (339,83);
type = Stem;
},
{
place = (12,93);
type = Stem;
},
{
place = (254,89);
type = Stem;
}
);
layerId = "986E1480-5ACC-463A-8EAE-4F79F3B98EB6";
shapes = (
{
closed = 1;
nodes = (
(377,188,o),
(315,74,o),
(217,74,cs),
(150,74,o),
(110,109,o),
(105,178,c),
(132,165,o),
(159,159,o),
(191,159,cs),
(280,159,o),
(343,221,o),
(343,295,cs),
(343,365,o),
(290,422,o),
(203,422,cs),
(94,422,o),
(12,327,o),
(12,195,cs),
(12,70,o),
(90,-9,o),
(207,-9,cs),
(323,-9,o),
(413,66,o),
(476,234,cs),
(478,240,o),
(479,246,o),
(479,252,cs),
(479,275,o),
(462,290,o),
(443,290,cs),
(428,290,o),
(413,281,o),
(405,260,cs)
);
},
{
closed = 1;
nodes = (
(235,339,o),
(254,320,o),
(254,291,cs),
(254,258,o),
(228,231,o),
(184,231,cs),
(160,231,o),
(134,235,o),
(109,244,c),
(123,304,o),
(163,339,o),
(205,339,cs)
);
}
);
width = 394;
}
);
leftKerningGroup = c;
rightKerningGroup = A;
unicode = 101;
},
{
glyphname = f;
layers = (
{
hints = (
{
horizontal = 1;
place = (-254,84);
type = Stem;
},
{
horizontal = 1;
place = (633,83);
type = Stem;
},
{
place = (18,93);
type = Stem;
},
{
place = (220,90);
type = Stem;
},
{
place = (237,90);
type = Stem;
}
);
layerId = "986E1480-5ACC-463A-8EAE-4F79F3B98EB6";
shapes = (
{
closed = 1;
nodes = (
(323,192,o),
(290,164,o),
(250,164,cs),
(247,164,l),
(224,201,o),
(196,226,o),
(167,226,cs),
(134,226,o),
(116,203,o),
(116,175,cs),
(116,146,o),
(137,113,o),
(183,97,c),
(205,54,o),
(220,-9,o),
(220,-63,cs),
(220,-141,o),
(199,-170,o),
(178,-170,cs),
(143,-170,o),
(111,-112,o),
(111,201,cs),
(111,218,o),
(111,234,o),
(112,250,c),
(276,394,o),
(327,535,o),
(327,604,cs),
(327,675,o),
(287,716,o),
(225,716,cs),
(73,716,o),
(18,498,o),
(18,177,cs),
(18,-189,o),
(82,-254,o),
(176,-254,cs),
(247,-254,o),
(310,-191,o),
(310,-67,cs),
(310,-17,o),
(299,41,o),
(281,92,c),
(341,105,o),
(390,153,o),
(419,234,cs),
(421,241,o),
(422,247,o),
(422,253,cs),
(422,277,o),
(405,292,o),
(387,292,cs),
(372,292,o),
(357,283,o),
(348,260,cs)
);
},
{
closed = 1;
nodes = (
(229,633,o),
(237,626,o),
(237,608,cs),
(237,558,o),
(196,448,o),
(118,359,c),
(135,529,o),
(177,633,o),
(217,633,cs)
);
}
);
width = 337;
}
);
leftKerningGroup = f;
rightKerningGroup = A;
unicode = 102;
},
{
glyphname = g;
layers = (
{
anchors = (
{
name = t.uni0302_2;
position = "{216, 403}";
}
);
hints = (
{
horizontal = 1;
place = (-257,82);
type = Stem;
},
{
horizontal = 1;
place = (10,84);
type = Stem;
},
{
horizontal = 1;
place = (335,84);
type = Stem;
},
{
place = (2,93);
type = Stem;
},
{
place = (90,85);
type = Stem;
},
{
place = (276,93);
type = Stem;
}
);
layerId = "986E1480-5ACC-463A-8EAE-4F79F3B98EB6";
shapes = (
{
closed = 1;
nodes = (
(435,204,o),
(400,125,o),
(356,73,c),
(363,178,o),
(369,280,o),
(369,304,cs),
(369,376,o),
(292,419,o),
(213,419,cs),
(98,419,o),
(2,317,o),
(2,170,cs),
(2,74,o),
(66,10,o),
(145,10,cs),
(183,10,o),
(224,27,o),
(262,68,c),
(261,47,o),
(259,25,o),
(258,5,c),
(176,-45,o),
(90,-79,o),
(90,-165,cs),
(90,-216,o),
(129,-257,o),
(190,-257,cs),
(279,-257,o),
(332,-178,o),
(348,-35,c),
(435,27,o),
(483,119,o),
(526,234,cs),
(528,240,o),
(529,247,o),
(529,252,cs),
(529,275,o),
(512,291,o),
(493,291,cs),
(478,291,o),
(463,282,o),
(455,260,cs)
);
},
{
closed = 1;
nodes = (
(120,94,o),
(95,120,o),
(95,174,cs),
(95,271,o),
(156,335,o),
(210,335,cs),
(247,335,o),
(267,319,o),
(276,294,c),
(273,185,o),
(247,94,o),
(160,94,cs)
);
},
{
closed = 1;
nodes = (
(184,-175,o),
(175,-167,o),
(175,-155,cs),
(175,-130,o),
(209,-107,o),
(250,-83,c),
(238,-159,o),
(219,-175,o),
(198,-175,cs)
);
}
);
width = 444;
}
);
leftKerningGroup = a;
rightKerningGroup = A;
unicode = 103;
},
{
glyphname = h;
layers = (
{
anchors = (
{
name = t.uni0302_2;
position = "{233, 707}";
}
);
hints = (
{
horizontal = 1;
place = (-7,84);
type = Stem;
},
{
horizontal = 1;
place = (344,82);
type = Stem;
},
{
horizontal = 1;
place = (442,75);
type = Stem;
},
{
horizontal = 1;
place = (641,82);
type = Stem;
},
{
place = (17,95);
type = Stem;
},
{
place = (235,91);
type = Stem;
},
{
place = (273,87);
type = Stem;
},
{
place = (282,91);
type = Stem;
}
);
layerId = "986E1480-5ACC-463A-8EAE-4F79F3B98EB6";
shapes = (
{
closed = 1;
nodes = (
(437,176,o),
(387,77,o),
(351,77,cs),
(336,77,o),
(326,87,o),
(326,102,cs),
(326,142,o),
(373,250,o),
(373,324,cs),
(373,386,o),
(332,426,o),
(273,426,cs),
(211,426,o),
(153,389,o),
(111,323,c),
(113,369,o),
(116,408,o),
(121,442,c),
(275,443,o),
(360,518,o),
(360,608,cs),
(360,673,o),
(313,723,o),
(237,723,cs),
(159,723,o),
(83,674,o),
(44,527,c),
(38,528,o),
(32,529,o),
(28,529,cs),
(3,529,o),
(-12,511,o),
(-12,493,cs),
(-12,477,o),
(-1,459,o),
(24,452,c),
(26,452,o),
(27,451,o),
(29,451,c),
(21,399,o),
(17,340,o),
(17,270,cs),
(17,197,o),
(18,122,o),
(22,49,c),
(25,13,o),
(41,-7,o),
(69,-7,cs),
(100,-7,o),
(118,15,o),
(115,54,cs),
(112,109,l),
(109,263,o),
(208,344,o),
(253,344,cs),
(272,344,o),
(282,334,o),
(282,312,cs),
(282,266,o),
(235,162,o),
(235,97,cs),
(235,37,o),
(279,-7,o),
(339,-7,cs),
(419,-7,o),
(479,76,o),
(538,234,cs),
(540,240,o),
(541,247,o),
(541,252,cs),
(541,276,o),
(524,292,o),
(505,292,cs),
(490,292,o),
(475,282,o),
(467,260,cs)
);
},
{
closed = 1;
nodes = (
(258,641,o),
(273,624,o),
(273,602,cs),
(273,554,o),
(216,519,o),
(135,517,c),
(159,609,o),
(196,641,o),
(234,641,cs)
);
}
);
width = 456;
}
);
leftKerningGroup = h;
rightKerningGroup = A;
unicode = 104;
},
{
glyphname = i;
layers = (
{
hints = (
{
horizontal = 1;
place = (-8,84);
type = Stem;
},
{
horizontal = 1;
place = (417,-20);
target = down;
type = TopGhost;
},
{
horizontal = 1;
place = (460,109);
type = Stem;
},
{
place = (12,93);
type = Stem;
},
{
place = (38,110);
type = Stem;
}
);
layerId = "986E1480-5ACC-463A-8EAE-4F79F3B98EB6";
shapes = (
{
closed = 1;
nodes = (
(124,460,o),
(148,484,o),
(148,515,cs),
(148,545,o),
(124,569,o),
(94,569,cs),
(63,569,o),
(38,545,o),
(38,515,cs),
(38,484,o),
(63,460,o),
(94,460,cs)
);
},
{
closed = 1;
nodes = (
(218,-8,o),
(269,88,o),
(322,234,cs),
(324,240,o),
(325,246,o),
(325,252,cs),
(325,275,o),
(308,290,o),
(289,290,cs),
(274,290,o),
(259,281,o),
(251,260,cs),
(215,161,o),
(172,76,o),
(140,76,cs),
(122,76,o),
(105,93,o),
(105,160,cs),
(105,215,o),
(120,308,o),
(125,357,cs),
(129,395,o),
(109,417,o),
(83,417,cs),
(60,417,o),
(39,399,o),
(33,367,cs),
(24,311,o),
(12,219,o),
(12,166,cs),
(12,48,o),
(61,-8,o),
(131,-8,cs)
);
}
);
width = 240;
}
);
leftKerningGroup = i;
rightKerningGroup = A;
unicode = 105;
},
{
glyphname = j;
layers = (
{
hints = (
{
horizontal = 1;
place = (-255,83);
type = Stem;
},
{
horizontal = 1;
place = (419,-20);
target = down;
type = TopGhost;
},
{
horizontal = 1;
place = (457,109);
type = Stem;
},
{
place = (-172,86);
type = Stem;
},
{
place = (-10,97);
type = Stem;
},
{
place = (28,110);
type = Stem;
}
);
layerId = "986E1480-5ACC-463A-8EAE-4F79F3B98EB6";
shapes = (
{
closed = 1;
nodes = (
(114,457,o),
(138,481,o),
(138,512,cs),
(138,542,o),
(114,566,o),
(83,566,cs),
(52,566,o),
(28,542,o),
(28,512,cs),
(28,481,o),
(52,457,o),
(83,457,cs)
);
},
{
closed = 1;
nodes = (
(177,198,o),
(140,115,o),
(95,66,c),
(96,73,o),
(96,80,o),
(97,87,cs),
(103,172,o),
(110,282,o),
(118,368,c),
(122,402,o),
(97,419,o),
(72,419,cs),
(50,419,o),
(28,404,o),
(25,376,cs),
(15,259,o),
(4,100,o),
(-3,3,c),
(-98,-51,o),
(-172,-92,o),
(-172,-166,cs),
(-172,-215,o),
(-130,-255,o),
(-70,-255,cs),
(38,-255,o),
(80,-133,o),
(86,-51,c),
(86,-49,o),
(87,-45,o),
(87,-39,c),
(173,19,o),
(223,100,o),
(272,234,cs),
(274,240,o),
(275,246,o),
(275,252,cs),
(275,275,o),
(257,291,o),
(238,291,cs),
(224,291,o),
(209,282,o),
(201,260,cs)
);
},
{
closed = 1;
nodes = (
(-78,-172,o),
(-86,-164,o),
(-86,-154,cs),
(-86,-134,o),
(-57,-111,o),
(-10,-84,c),
(-18,-147,o),
(-37,-172,o),
(-62,-172,cs)
);
}
);
width = 190;
}
);
leftKerningGroup = j;
rightKerningGroup = A;
unicode = 106;
},
{
glyphname = k;
layers = (
{
anchors = (
{
name = b.uni0326_1_2;
position = "{178, 3}";
}
);
hints = (
{
horizontal = 1;
place = (-10,84);
type = Stem;
},
{
horizontal = 1;
place = (-7,21);
target = up;
type = BottomGhost;
},
{
horizontal = 1;
place = (325,84);
type = Stem;
},
{
horizontal = 1;
place = (442,75);
type = Stem;
},
{
horizontal = 1;
place = (641,82);
type = Stem;
},
{
place = (20,94);
type = Stem;
},
{
place = (156,95);
type = Stem;
},
{
place = (276,87);
type = Stem;
},
{
place = (279,92);
type = Stem;
}
);
layerId = "986E1480-5ACC-463A-8EAE-4F79F3B98EB6";
shapes = (
{
closed = 1;
nodes = (
(408,179,o),
(358,74,o),
(309,74,cs),
(281,74,o),
(251,104,o),
(251,139,cs),
(251,152,o),
(270,161,o),
(292,176,c),
(326,197,o),
(371,230,o),
(371,299,cs),
(371,361,o),
(323,409,o),
(260,409,cs),
(205,409,o),
(152,378,o),
(113,325,c),
(115,369,o),
(119,408,o),
(123,442,c),
(276,442,o),
(363,519,o),
(363,606,cs),
(363,674,o),
(314,723,o),
(242,723,cs),
(161,723,o),
(86,674,o),
(47,527,c),
(41,528,o),
(35,529,o),
(31,529,cs),
(6,529,o),
(-9,511,o),
(-9,492,cs),
(-9,477,o),
(2,459,o),
(27,452,c),
(29,452,o),
(30,451,o),
(32,451,c),
(24,400,o),
(20,340,o),
(20,270,cs),
(20,197,o),
(21,122,o),
(25,49,cs),
(27,13,o),
(43,-7,o),
(72,-7,cs),
(103,-7,o),
(120,15,o),
(118,54,cs),
(116,81,o),
(115,108,o),
(114,133,c),
(117,264,o),
(182,325,o),
(238,325,cs),
(265,325,o),
(279,312,o),
(279,290,cs),
(279,262,o),
(245,241,o),
(212,223,c),
(178,203,o),
(156,187,o),
(156,154,cs),
(156,64,o),
(229,-10,o),
(305,-10,cs),
(396,-10,o),
(457,91,o),
(509,234,cs),
(511,241,o),
(512,247,o),
(512,253,cs),
(512,276,o),
(495,291,o),
(476,291,cs),
(461,291,o),
(446,282,o),
(438,260,cs)
);
},
{
closed = 1;
nodes = (
(260,641,o),
(276,625,o),
(276,601,cs),
(276,564,o),
(233,519,o),
(137,517,c),
(161,609,o),
(198,641,o),
(237,641,cs)
);
}
);
width = 427;
}
);
leftKerningGroup = k;
rightKerningGroup = A;
unicode = 107;
},
{
glyphname = l;
layers = (
{
anchors = (
{
name = t.uni0302_2;
position = "{200, 695}";
},
{
name = b.uni0326_1_2;
position = "{180, 3}";
}
);
hints = (
{
horizontal = 1;
place = (-7,84);
type = Stem;
},
{
horizontal = 1;
place = (635,83);
type = Stem;
},
{
place = (19,93);
type = Stem;
},
{
place = (215,85);
type = Stem;
}
);
layerId = "986E1480-5ACC-463A-8EAE-4F79F3B98EB6";
shapes = (
{
closed = 1;
nodes = (
(274,163,o),
(233,77,o),
(183,77,cs),
(147,77,o),
(118,109,o),
(111,209,c),
(223,343,o),
(300,488,o),
(300,610,cs),
(300,677,o),
(260,718,o),
(203,718,cs),
(99,718,o),
(19,605,o),
(19,262,cs),
(19,65,o),
(82,-7,o),
(179,-7,cs),
(273,-7,o),
(328,84,o),
(383,234,cs),
(385,240,o),
(386,246,o),
(386,252,cs),
(386,275,o),
(369,291,o),
(350,291,cs),
(336,291,o),
(321,282,o),
(312,260,cs)
);
},
{
closed = 1;
nodes = (
(207,635,o),
(215,628,o),
(215,599,cs),
(215,534,o),
(179,428,o),
(112,327,c),
(120,531,o),
(164,635,o),
(195,635,cs)
);
}
);
width = 301;
}
);
leftKerningGroup = l;
rightKerningGroup = A;
unicode = 108;
},
{
glyphname = m;
layers = (
{
hints = (
{
horizontal = 1;
place = (-4,84);
type = Stem;
},
{
horizontal = 1;
place = (-11,21);
target = up;
type = BottomGhost;
},
{
horizontal = 1;
place = (306,83);
type = Stem;
},
{
horizontal = 1;
place = (331,83);
type = Stem;
},
{
horizontal = 1;
place = (419,-20);
target = down;
type = TopGhost;
},
{
place = (14,93);
type = Stem;
},
{
place = (30,92);
type = Stem;
},
{
place = (234,97);
type = Stem;
},
{
place = (261,66);
type = Stem;
},
{
place = (456,93);
type = Stem;
},
{
place = (472,94);
type = Stem;
}
);
layerId = "986E1480-5ACC-463A-8EAE-4F79F3B98EB6";
shapes = (
{
closed = 1;
nodes = (
(649,194,o),
(598,80,o),
(567,80,cs),
(556,80,o),
(549,89,o),
(549,108,cs),
(549,179,o),
(566,264,o),
(566,312,cs),
(566,372,o),
(525,414,o),
(463,414,cs),
(413,414,o),
(371,389,o),
(336,340,c),
(320,369,o),
(289,389,o),
(254,389,cs),
(198,389,o),
(152,359,o),
(116,300,c),
(119,342,o),
(122,364,o),
(122,371,cs),
(122,401,o),
(109,419,o),
(79,419,cs),
(51,419,o),
(34,400,o),
(30,375,cs),
(19,295,o),
(14,178,o),
(14,39,cs),
(14,8,o),
(31,-11,o),
(62,-11,cs),
(90,-11,o),
(107,8,o),
(107,39,cs),
(107,83,l),
(111,218,o),
(185,306,o),
(235,306,cs),
(253,306,o),
(261,298,o),
(261,280,cs),
(261,248,o),
(234,179,o),
(234,102,cs),
(234,15,o),
(252,-6,o),
(291,-6,cs),
(317,-6,o),
(331,12,o),
(331,36,cs),
(331,40,o),
(327,83,o),
(327,103,c),
(328,266,o),
(392,331,o),
(440,331,cs),
(461,331,o),
(472,320,o),
(472,294,cs),
(472,256,o),
(456,187,o),
(456,119,cs),
(456,37,o),
(498,-4,o),
(557,-4,cs),
(639,-4,o),
(688,81,o),
(744,234,cs),
(746,240,o),
(747,246,o),
(747,251,cs),
(747,274,o),
(729,289,o),
(710,289,cs),
(695,289,o),
(681,281,o),
(673,260,cs)
);
}
);
width = 662;
}
);
leftKerningGroup = m;
rightKerningGroup = A;
unicode = 109;
},
{
glyphname = n;
layers = (
{
anchors = (
{
name = t.uni0302_2;
position = "{235, 403}";
},
{
name = b.uni0326_1_2;
position = "{195, 3}";
}
);
hints = (
{
horizontal = 1;
place = (-4,83);
type = Stem;
},
{
horizontal = 1;
place = (-9,21);
target = up;
type = BottomGhost;
},
{
horizontal = 1;
place = (331,83);
type = Stem;
},
{
horizontal = 1;
place = (419,-20);
target = down;
type = TopGhost;
},
{
place = (14,93);
type = Stem;
},
{
place = (244,93);
type = Stem;
},
{
place = (260,94);
type = Stem;
}
);
layerId = "986E1480-5ACC-463A-8EAE-4F79F3B98EB6";
shapes = (
{
closed = 1;
nodes = (
(434,185,o),
(388,79,o),
(359,79,cs),
(347,79,o),
(337,89,o),
(337,122,cs),
(337,178,o),
(354,261,o),
(354,315,cs),
(354,372,o),
(312,414,o),
(249,414,cs),
(197,414,o),
(151,385,o),
(117,327,c),
(118,339,o),
(120,352,o),
(122,365,cs),
(123,369,o),
(123,372,o),
(123,376,cs),
(123,401,o),
(107,419,o),
(79,419,cs),
(50,419,o),
(32,403,o),
(29,378,cs),
(19,296,o),
(14,172,o),
(14,39,cs),
(14,8,o),
(31,-9,o),
(63,-9,cs),
(91,-9,o),
(107,8,o),
(107,39,cs),
(107,105,l),
(109,246,o),
(180,331,o),
(228,331,cs),
(251,331,o),
(260,321,o),
(260,294,cs),
(260,254,o),
(244,187,o),
(244,115,cs),
(244,38,o),
(286,-4,o),
(347,-4,cs),
(427,-4,o),
(478,84,o),
(533,234,cs),
(535,240,o),
(536,246,o),
(536,252,cs),
(536,275,o),
(518,291,o),
(499,291,cs),
(485,291,o),
(470,282,o),
(462,260,cs)
);
}
);
width = 451;
}
);
leftKerningGroup = m;
rightKerningGroup = A;
unicode = 110;
},
{
glyphname = o;
layers = (
{
anchors = (
{
name = t.uni0302_2;
position = "{213, 403}";
},
{
name = b.uni0326_1_2;
position = "{155, 3}";
}
);
hints = (
{
horizontal = 1;
place = (-10,83);
type = Stem;
},
{
horizontal = 1;
place = (337,91);
type = Stem;
},
{
place = (4,89);
type = Stem;
},
{
place = (142,70);
type = Stem;
},
{
place = (285,89);
type = Stem;
}
);
layerId = "986E1480-5ACC-463A-8EAE-4F79F3B98EB6";
shapes = (
{
closed = 1;
nodes = (
(419,220,o),
(399,187,o),
(367,172,c),
(372,193,o),
(374,216,o),
(374,238,cs),
(374,320,o),
(337,382,o),
(290,408,c),
(291,408,l),
(269,420,o),
(240,428,o),
(207,428,cs),
(85,428,o),
(4,302,o),
(4,176,cs),
(4,74,o),
(60,-10,o),
(168,-10,cs),
(244,-10,o),
(300,31,o),
(335,89,c),
(410,95,o),
(470,144,o),
(504,234,cs),
(506,240,o),
(507,246,o),
(507,251,cs),
(507,274,o),
(489,288,o),
(470,288,cs),
(455,288,o),
(440,280,o),
(433,260,cs)
);
},
{
closed = 1;
nodes = (
(212,318,o),
(225,337,o),
(241,337,cs),
(269,337,o),
(285,290,o),
(285,239,cs),
(285,214,o),
(282,191,o),
(277,171,c),
(241,187,o),
(212,221,o),
(212,273,cs)
);
},
{
closed = 1;
nodes = (
(124,73,o),
(93,111,o),
(93,179,cs),
(93,233,o),
(115,294,o),
(151,327,c),
(145,305,o),
(142,282,o),
(142,258,cs),
(142,183,o),
(185,130,o),
(242,104,c),
(222,84,o),
(198,73,o),
(173,73,cs)
);
}
);
width = 422;
}
);
leftKerningGroup = c;
rightKerningGroup = A;
unicode = 111;
},
{
glyphname = p;
layers = (
{
hints = (
{
horizontal = 1;
place = (-256,21);
target = up;
type = BottomGhost;
},
{
horizontal = 1;
place = (-15,107);
type = Stem;
},
{
horizontal = 1;
place = (335,84);
type = Stem;
},
{
place = (298,93);
type = Stem;
}
);
layerId = "986E1480-5ACC-463A-8EAE-4F79F3B98EB6";
shapes = (
{
closed = 1;
nodes = (
(439,210,o),
(412,160,o),
(357,128,c),
(378,171,o),
(391,220,o),
(391,264,cs),
(391,360,o),
(335,419,o),
(255,419,cs),
(201,419,o),
(148,384,o),
(109,333,c),
(106,354,o),
(103,373,o),
(98,391,cs),
(93,411,o),
(76,422,o),
(57,422,cs),
(31,422,o),
(9,406,o),
(9,377,cs),
(9,363,o),
(23,276,o),
(23,192,cs),
(23,5,o),
(-14,-191,o),
(-14,-212,cs),
(-14,-239,o),
(9,-256,o),
(34,-256,cs),
(56,-256,o),
(76,-242,o),
(80,-216,cs),
(99,-71,o),
(115,67,o),
(116,187,c),
(131,267,o),
(193,335,o),
(248,335,cs),
(280,335,o),
(298,309,o),
(298,270,cs),
(298,210,o),
(269,132,o),
(230,93,c),
(219,92,o),
(208,92,o),
(196,92,cs),
(159,92,o),
(138,64,o),
(138,36,cs),
(138,10,o),
(157,-15,o),
(195,-15,cs),
(222,-15,o),
(250,-2,o),
(276,19,c),
(400,40,o),
(482,107,o),
(528,234,cs),
(530,241,o),
(531,247,o),
(531,253,cs),
(531,276,o),
(514,293,o),
(495,293,cs),
(481,293,o),
(466,283,o),
(457,260,cs)
);
}
);
width = 446;
}
);
leftKerningGroup = p;
rightKerningGroup = A;
unicode = 112;
},
{
glyphname = q;
layers = (
{
anchors = (
{
name = t.uni0302_2;
position = "{227, 404}";
},
{
name = b.uni0326_1_2;
position = "{227, 0}";
}
);
hints = (
{
horizontal = 1;
place = (-254,83);
type = Stem;
},
{
horizontal = 1;
place = (9,84);
type = Stem;
},
{
horizontal = 1;
place = (335,83);
type = Stem;
},
{
place = (2,93);
type = Stem;
},
{
place = (221,89);
type = Stem;
},
{
place = (280,90);
type = Stem;
},
{
place = (358,84);
type = Stem;
}
);
layerId = "986E1480-5ACC-463A-8EAE-4F79F3B98EB6";
shapes = (
{
closed = 1;
nodes = (
(390,-254,o),
(442,-199,o),
(442,-109,cs),
(442,-24,o),
(417,19,o),
(405,63,c),
(464,96,o),
(508,160,o),
(535,234,cs),
(537,240,o),
(538,247,o),
(538,252,cs),
(538,276,o),
(521,292,o),
(502,292,cs),
(488,292,o),
(472,283,o),
(464,260,cs),
(437,186,o),
(396,144,o),
(342,109,c),
(355,192,o),
(370,273,o),
(370,306,cs),
(370,367,o),
(305,418,o),
(212,418,cs),
(102,418,o),
(2,319,o),
(2,170,cs),
(2,74,o),
(66,9,o),
(145,9,cs),
(176,9,o),
(208,20,o),
(238,45,c),
(229,-12,o),
(221,-71,o),
(221,-131,cs),
(221,-212,o),
(264,-254,o),
(329,-254,cs)
);
},
{
closed = 1;
nodes = (
(121,93,o),
(95,119,o),
(95,174,cs),
(95,267,o),
(156,335,o),
(221,335,cs),
(247,335,o),
(269,321,o),
(280,302,c),
(275,204,o),
(246,93,o),
(162,93,cs)
);
},
{
closed = 1;
nodes = (
(318,-171,o),
(310,-162,o),
(310,-141,cs),
(310,-105,o),
(319,-33,o),
(331,43,c),
(342,11,o),
(358,-40,o),
(358,-107,cs),
(358,-156,o),
(343,-171,o),
(330,-171,cs)
);
}
);
width = 453;
}
);
leftKerningGroup = a;
rightKerningGroup = A;
unicode = 113;
},
{
glyphname = r;
layers = (
{
anchors = (
{
name = t.uni0302_2;
position = "{197, 403}";
},
{
name = b.uni0326_1_2;
position = "{253, 3}";
}
);
hints = (
{
horizontal = 1;
place = (-7,84);
type = Stem;
},
{
horizontal = 1;
place = (410,-20);
target = down;
type = TopGhost;
},
{
place = (120,93);
type = Stem;
}
);
layerId = "986E1480-5ACC-463A-8EAE-4F79F3B98EB6";
shapes = (
{
closed = 1;
nodes = (
(373,179,o),
(319,77,o),
(259,77,cs),
(233,77,o),
(213,97,o),
(213,133,cs),
(213,190,o),
(257,272,o),
(279,326,cs),
(285,342,o),
(290,357,o),
(290,366,cs),
(290,392,o),
(271,410,o),
(247,410,cs),
(233,410,o),
(218,402,o),
(198,402,cs),
(150,402,o),
(132,426,o),
(118,444,cs),
(109,456,o),
(100,465,o),
(79,465,cs),
(53,465,o),
(35,441,o),
(35,415,cs),
(35,401,o),
(40,387,o),
(50,378,c),
(40,340,o),
(27,302,o),
(11,260,cs),
(9,254,o),
(8,248,o),
(8,243,cs),
(8,220,o),
(26,205,o),
(45,205,cs),
(59,205,o),
(74,214,o),
(82,234,cs),
(97,274,o),
(109,309,o),
(120,342,c),
(138,334,o),
(157,328,o),
(179,324,c),
(149,262,o),
(120,190,o),
(120,128,cs),
(120,49,o),
(176,-7,o),
(250,-7,cs),
(351,-7,o),
(420,87,o),
(474,234,cs),
(476,240,o),
(477,246,o),
(477,252,cs),
(477,275,o),
(459,291,o),
(440,291,cs),
(426,291,o),
(411,282,o),
(403,260,cs)
);
}
);
width = 392;
}
);
leftKerningGroup = r;
rightKerningGroup = A;
unicode = 114;
},
{
glyphname = s;
layers = (
{
anchors = (
{
name = t.uni0302_2;
position = "{134, 427}";
},
{
name = b.uni0326_1_2;
position = "{146, 3}";
}
);
hints = (
{
horizontal = 1;
place = (-7,97);
type = Stem;
},
{
horizontal = 1;
place = (-7,21);
target = up;
type = BottomGhost;
},
{
place = (8,427);
type = Stem;
},
{
place = (56,111);
type = Stem;
}
);
layerId = "986E1480-5ACC-463A-8EAE-4F79F3B98EB6";
shapes = (
{
closed = 1;
nodes = (
(343,213,o),
(318,170,o),
(284,139,c),
(277,250,o),
(167,330,o),
(167,367,cs),
(167,380,o),
(188,395,o),
(188,418,cs),
(188,450,o),
(160,467,o),
(130,467,cs),
(94,467,o),
(56,443,o),
(56,390,cs),
(56,387,l),
(40,335,o),
(26,301,o),
(11,260,cs),
(9,254,o),
(8,248,o),
(8,243,cs),
(8,220,o),
(27,206,o),
(46,206,cs),
(60,206,o),
(75,214,o),
(82,234,cs),
(89,254,o),
(96,274,o),
(102,295,c),
(142,244,o),
(191,189,o),
(191,135,cs),
(191,113,o),
(183,98,o),
(172,91,c),
(167,90,o),
(161,90,o),
(156,90,cs),
(131,90,o),
(115,97,o),
(95,101,cs),
(90,102,o),
(84,103,o),
(80,103,cs),
(53,103,o),
(36,83,o),
(36,61,cs),
(36,46,o),
(44,29,o),
(63,16,c),
(84,0,o),
(112,-7,o),
(141,-7,cs),
(175,-7,o),
(210,4,o),
(237,25,c),
(332,58,o),
(395,135,o),
(432,234,cs),
(434,240,o),
(435,246,o),
(435,252,cs),
(435,275,o),
(417,291,o),
(398,291,cs),
(384,291,o),
(369,282,o),
(361,260,cs)
);
}
);
width = 350;
}
);
leftKerningGroup = r;
rightKerningGroup = A;
unicode = 115;
},
{
glyphname = t;
layers = (
{
anchors = (
{
name = b.uni0326_1_2;
position = "{155, 3}";
}
);
hints = (
{
horizontal = 1;
place = (-7,83);
type = Stem;
},
{
horizontal = 1;
place = (419,80);
type = Stem;
},
{
place = (12,94);
type = Stem;
},
{
place = (65,94);
type = Stem;
}
);
layerId = "986E1480-5ACC-463A-8EAE-4F79F3B98EB6";
shapes = (
{
closed = 1;
nodes = (
(267,185,o),
(218,76,o),
(160,76,cs),
(126,76,o),
(106,97,o),
(106,164,cs),
(106,202,o),
(113,268,o),
(125,340,cs),
(128,356,o),
(131,383,o),
(136,413,c),
(179,408,o),
(207,402,o),
(219,402,cs),
(241,402,o),
(256,420,o),
(256,440,cs),
(256,458,o),
(246,475,o),
(220,480,cs),
(195,485,o),
(171,490,o),
(146,492,c),
(153,547,o),
(159,599,o),
(159,619,cs),
(159,649,o),
(136,664,o),
(114,664,cs),
(90,664,o),
(66,649,o),
(65,619,c),
(62,581,o),
(58,540,o),
(53,499,c),
(35,499,ls),
(1,499,o),
(-15,480,o),
(-15,459,cs),
(-15,438,o),
(1,419,o),
(33,419,cs),
(42,419,l),
(38,396,o),
(35,374,o),
(32,354,cs),
(21,284,o),
(12,215,o),
(12,169,cs),
(12,51,o),
(66,-7,o),
(155,-7,cs),
(246,-7,o),
(309,75,o),
(367,234,cs),
(369,240,o),
(370,246,o),
(370,252,cs),
(370,274,o),
(352,289,o),
(333,289,cs),
(319,289,o),
(304,281,o),
(296,260,cs)
);
}
);
width = 285;
}
);
leftKerningGroup = t;
rightKerningGroup = A;
unicode = 116;
},
{
glyphname = u;
layers = (
{
anchors = (
{
name = t.uni0302_2;
position = "{183, 403}";
}
);
hints = (
{
horizontal = 1;
place = (-3,83);
type = Stem;
},
{
horizontal = 1;
place = (420,-20);
target = down;
type = TopGhost;
},
{
place = (4,93);
type = Stem;
},
{
place = (27,94);
type = Stem;
}
);
layerId = "986E1480-5ACC-463A-8EAE-4F79F3B98EB6";
shapes = (
{
closed = 1;
nodes = (
(436,171,o),
(394,80,o),
(370,80,cs),
(356,80,o),
(343,93,o),
(343,170,cs),
(343,243,o),
(354,319,o),
(359,370,c),
(363,402,o),
(339,420,o),
(315,420,cs),
(293,420,o),
(271,407,o),
(268,379,cs),
(264,346,o),
(259,310,o),
(256,273,c),
(236,132,o),
(179,80,o),
(135,80,cs),
(112,80,o),
(97,95,o),
(97,135,cs),
(97,191,o),
(121,282,o),
(121,350,cs),
(121,396,o),
(85,432,o),
(44,432,cs),
(18,432,o),
(-2,413,o),
(-2,389,cs),
(-2,361,o),
(27,355,o),
(27,330,cs),
(27,296,o),
(4,205,o),
(4,113,cs),
(4,44,o),
(51,-3,o),
(122,-3,cs),
(179,-3,o),
(227,29,o),
(265,91,c),
(282,24,o),
(317,-3,o),
(361,-3,cs),
(440,-3,o),
(493,101,o),
(541,234,cs),
(543,240,o),
(544,247,o),
(544,252,cs),
(544,275,o),
(527,291,o),
(508,291,cs),
(494,291,o),
(478,282,o),
(470,260,cs)
);
}
);
width = 459;
}
);
leftKerningGroup = u;
rightKerningGroup = A;
unicode = 117;
},
{
glyphname = v;
layers = (
{
hints = (
{
horizontal = 1;
place = (-9,83);
type = Stem;
},
{
horizontal = 1;
place = (133,77);
type = Stem;
},
{
horizontal = 1;
place = (417,-20);
target = down;
type = TopGhost;
},
{
horizontal = 1;
place = (419,-20);
target = down;
type = TopGhost;
},
{
place = (9,93);
type = Stem;
},
{
place = (27,93);
type = Stem;
},
{
place = (229,124);
type = Stem;
}
);
layerId = "986E1480-5ACC-463A-8EAE-4F79F3B98EB6";
shapes = (
{
closed = 1;
nodes = (
(401,229,o),
(385,210,o),
(363,210,cs),
(355,210,o),
(347,212,o),
(340,217,c),
(348,247,o),
(353,279,o),
(353,311,cs),
(353,387,o),
(326,419,o),
(295,419,cs),
(260,419,o),
(229,380,o),
(229,295,cs),
(229,264,o),
(234,237,o),
(243,215,c),
(217,123,o),
(150,74,o),
(126,74,cs),
(110,74,o),
(102,83,o),
(102,128,cs),
(102,206,o),
(120,255,o),
(120,368,cs),
(120,399,o),
(103,417,o),
(74,417,cs),
(45,417,o),
(27,395,o),
(27,366,cs),
(27,259,o),
(9,221,o),
(9,132,cs),
(9,33,o),
(48,-9,o),
(118,-9,cs),
(185,-9,o),
(264,53,o),
(311,144,c),
(327,137,o),
(344,133,o),
(362,133,cs),
(415,133,o),
(458,162,o),
(484,234,cs),
(486,240,o),
(487,246,o),
(487,251,cs),
(487,274,o),
(469,289,o),
(450,289,cs),
(436,289,o),
(421,280,o),
(413,260,cs)
);
}
);
width = 402;
}
);
leftKerningGroup = v;
rightKerningGroup = A;
unicode = 118;
},
{
glyphname = w;
layers = (
{
anchors = (
{
name = t.uni0302_2;
position = "{295, 403}";
}
);
hints = (
{
horizontal = 1;
place = (-12,83);
type = Stem;
},
{
horizontal = 1;
place = (-3,83);
type = Stem;
},
{
horizontal = 1;
place = (135,78);
type = Stem;
},
{
place = (4,93);
type = Stem;
},
{
place = (27,93);
type = Stem;
},
{
place = (242,93);
type = Stem;
},
{
place = (438,124);
type = Stem;
}
);
layerId = "986E1480-5ACC-463A-8EAE-4F79F3B98EB6";
shapes = (
{
closed = 1;
nodes = (
(613,228,o),
(594,213,o),
(574,213,cs),
(566,213,o),
(557,216,o),
(550,221,c),
(558,251,o),
(562,282,o),
(562,314,cs),
(562,389,o),
(532,424,o),
(501,424,cs),
(470,424,o),
(438,388,o),
(438,319,cs),
(438,280,o),
(445,247,o),
(457,221,c),
(434,138,o),
(380,80,o),
(347,80,cs),
(329,80,o),
(317,93,o),
(317,127,cs),
(317,175,o),
(335,226,o),
(335,335,cs),
(335,367,o),
(318,385,o),
(290,385,cs),
(260,385,o),
(242,362,o),
(242,333,cs),
(242,300,o),
(240,274,o),
(238,251,c),
(220,129,o),
(165,71,o),
(132,71,cs),
(111,71,o),
(97,87,o),
(97,136,cs),
(97,200,o),
(120,294,o),
(120,362,cs),
(120,404,o),
(104,422,o),
(76,422,cs),
(45,422,o),
(27,402,o),
(27,362,cs),
(27,297,o),
(4,197,o),
(4,133,cs),
(4,38,o),
(52,-12,o),
(117,-12,cs),
(164,-12,o),
(208,14,o),
(242,54,c),
(261,16,o),
(296,-3,o),
(336,-3,cs),
(406,-3,o),
(480,59,o),
(523,148,c),
(540,139,o),
(558,135,o),
(576,135,cs),
(626,135,o),
(672,168,o),
(696,234,cs),
(698,240,o),
(699,246,o),
(699,252,cs),
(699,275,o),
(681,291,o),
(662,291,cs),
(648,291,o),
(633,282,o),
(625,260,cs)
);
}
);
width = 614;
}
);
leftKerningGroup = v;
rightKerningGroup = A;
unicode = 119;
},
{
glyphname = x;
layers = (
{
hints = (
{
horizontal = 1;
place = (-9,84);
type = Stem;
},
{
horizontal = 1;
place = (-12,21);
target = up;
type = BottomGhost;
},
{
horizontal = 1;
place = (333,83);
type = Stem;
},
{
horizontal = 1;
place = (409,-20);
target = down;
type = TopGhost;
},
{
place = (8,555);
type = Stem;
}
);
layerId = "986E1480-5ACC-463A-8EAE-4F79F3B98EB6";
shapes = (
{
closed = 1;
nodes = (
(448,152,o),
(410,75,o),
(383,75,cs),
(363,75,o),
(344,103,o),
(317,166,cs),
(311,181,l),
(345,228,o),
(375,277,o),
(404,332,cs),
(410,344,o),
(412,356,o),
(412,366,cs),
(412,392,o),
(394,409,o),
(372,409,cs),
(354,409,o),
(335,396,o),
(323,369,cs),
(309,339,o),
(292,309,o),
(273,280,c),
(268,293,o),
(262,307,o),
(257,322,c),
(232,387,o),
(194,416,o),
(145,416,cs),
(97,416,o),
(59,390,o),
(35,327,cs),
(27,304,o),
(19,281,o),
(11,260,cs),
(9,254,o),
(8,249,o),
(8,243,cs),
(8,221,o),
(27,207,o),
(46,207,cs),
(60,207,o),
(74,215,o),
(82,234,cs),
(90,255,o),
(96,274,o),
(102,290,cs),
(112,317,o),
(122,333,o),
(136,333,cs),
(157,333,o),
(168,305,o),
(195,233,cs),
(207,199,l),
(170,150,o),
(132,105,o),
(97,68,cs),
(85,56,o),
(80,41,o),
(80,29,cs),
(80,7,o),
(97,-12,o),
(119,-12,cs),
(134,-12,o),
(152,-2,o),
(169,17,cs),
(193,44,o),
(219,74,o),
(245,107,c),
(252,91,l),
(284,25,o),
(321,-9,o),
(376,-9,cs),
(454,-9,o),
(496,63,o),
(560,234,cs),
(562,240,o),
(563,246,o),
(563,252,cs),
(563,274,o),
(545,289,o),
(526,289,cs),
(512,289,o),
(497,281,o),
(489,260,cs)
);
}
);
width = 478;
}
);
leftKerningGroup = r;
rightKerningGroup = A;
unicode = 120;
},
{
glyphname = y;
layers = (
{
anchors = (
{
name = t.uni0302_2;
position = "{189, 403}";
}
);
hints = (
{
horizontal = 1;
place = (-257,83);
type = Stem;
},
{
horizontal = 1;
place = (3,84);
type = Stem;
},
{
horizontal = 1;
place = (419,-20);
target = down;
type = TopGhost;
},
{
place = (3,93);
type = Stem;
},
{
place = (27,94);
type = Stem;
},
{
place = (72,87);
type = Stem;
},
{
place = (247,93);
type = Stem;
}
);
layerId = "986E1480-5ACC-463A-8EAE-4F79F3B98EB6";
shapes = (
{
closed = 1;
nodes = (
(427,198,o),
(388,117,o),
(340,66,c),
(341,73,o),
(341,80,o),
(342,87,cs),
(348,172,o),
(356,277,o),
(363,368,cs),
(366,402,o),
(342,419,o),
(317,419,cs),
(295,419,o),
(273,405,o),
(270,377,c),
(268,348,o),
(265,317,o),
(263,284,c),
(244,135,o),
(183,87,o),
(137,87,cs),
(110,87,o),
(96,101,o),
(96,140,cs),
(96,194,o),
(121,285,o),
(121,352,cs),
(121,398,o),
(85,435,o),
(44,435,cs),
(18,435,o),
(-2,416,o),
(-2,392,cs),
(-2,363,o),
(27,360,o),
(27,333,cs),
(27,296,o),
(3,208,o),
(3,119,cs),
(3,50,o),
(50,3,o),
(114,3,cs),
(165,3,o),
(210,27,o),
(247,73,c),
(246,47,o),
(244,24,o),
(242,3,c),
(146,-51,o),
(72,-92,o),
(72,-166,cs),
(72,-216,o),
(115,-257,o),
(175,-257,cs),
(282,-257,o),
(321,-140,o),
(331,-53,c),
(332,-49,o),
(332,-44,o),
(333,-38,c),
(421,24,o),
(478,118,o),
(521,234,cs),
(523,240,o),
(524,246,o),
(524,251,cs),
(524,275,o),
(506,291,o),
(487,291,cs),
(473,291,o),
(458,282,o),
(450,260,cs)
);
},
{
closed = 1;
nodes = (
(167,-174,o),
(159,-166,o),
(159,-154,cs),
(159,-134,o),
(188,-111,o),
(235,-85,c),
(226,-146,o),
(210,-174,o),
(182,-174,cs)
);
}
);
width = 439;
}
);
leftKerningGroup = u;
rightKerningGroup = A;
unicode = 121;
},
{
glyphname = z;
layers = (
{
anchors = (
{
name = t.uni0302_2;
position = "{219, 403}";
}
);
hints = (
{
horizontal = 1;
place = (-3,69);
type = Stem;
},
{
horizontal = 1;
place = (-3,80);
type = Stem;
},
{
horizontal = 1;
place = (-12,21);
target = up;
type = BottomGhost;
},
{
horizontal = 1;
place = (-3,21);
target = up;
type = BottomGhost;
},
{
horizontal = 1;
place = (301,83);
type = Stem;
},
{
place = (8,489);
type = Stem;
}
);
layerId = "986E1480-5ACC-463A-8EAE-4F79F3B98EB6";
shapes = (
{
closed = 1;
nodes = (
(394,181,o),
(332,66,o),
(287,66,cs),
(261,66,o),
(246,75,o),
(211,76,c),
(207,77,o),
(202,77,o),
(196,77,c),
(259,143,o),
(324,241,o),
(342,328,cs),
(344,339,o),
(345,344,o),
(345,352,cs),
(345,376,o),
(330,392,o),
(308,392,cs),
(291,392,o),
(274,384,o),
(249,384,cs),
(182,384,o),
(160,415,o),
(142,438,cs),
(130,454,o),
(118,467,o),
(96,467,cs),
(73,467,o),
(49,450,o),
(49,421,cs),
(49,412,o),
(51,398,o),
(53,387,c),
(43,348,o),
(28,304,o),
(11,260,cs),
(9,254,o),
(8,248,o),
(8,242,cs),
(8,219,o),
(26,205,o),
(45,205,cs),
(60,205,o),
(75,214,o),
(82,234,cs),
(95,268,o),
(106,302,o),
(117,340,c),
(151,320,o),
(193,307,o),
(239,301,c),
(193,189,o),
(124,126,o),
(76,81,cs),
(59,65,o),
(54,47,o),
(54,33,cs),
(54,8,o),
(74,-12,o),
(104,-12,cs),
(123,-12,o),
(147,-3,o),
(184,-3,cs),
(227,-3,o),
(255,-17,o),
(301,-17,cs),
(375,-17,o),
(455,126,o),
(494,234,cs),
(496,240,o),
(497,246,o),
(497,251,cs),
(497,274,o),
(479,290,o),
(460,290,cs),
(445,290,o),
(431,281,o),
(423,260,cs)
);
}
);
width = 412;
}
);
leftKerningGroup = r;
rightKerningGroup = A;
unicode = 122;
},
{
glyphname = braceleft;
layers = (
{
hints = (
{
horizontal = 1;
place = (-20,79);
type = Stem;
},
{
horizontal = 1;
place = (607,78);
type = Stem;
},
{
place = (124,90);
type = Stem;
},
{
place = (126,93);
type = Stem;
}
);
layerId = "986E1480-5ACC-463A-8EAE-4F79F3B98EB6";
shapes = (
{
closed = 1;
nodes = (
(271,-20,o),
(297,-12,o),
(317,5,cs),
(333,18,o),
(340,34,o),
(340,47,cs),
(340,66,o),
(326,82,o),
(308,82,cs),
(299,82,o),
(290,79,o),
(280,72,cs),
(267,63,o),
(256,59,o),
(247,59,cs),
(225,59,o),
(211,80,o),
(211,120,cs),
(211,153,o),
(219,208,o),
(219,254,cs),
(219,302,o),
(193,322,o),
(181,335,c),
(193,345,o),
(214,365,o),
(214,414,cs),
(214,458,o),
(209,521,o),
(209,550,cs),
(209,587,o),
(222,607,o),
(244,607,cs),
(254,607,o),
(266,602,o),
(279,595,cs),
(288,590,o),
(298,587,o),
(306,587,cs),
(328,587,o),
(344,604,o),
(344,623,cs),
(344,636,o),
(336,651,o),
(319,662,cs),
(298,675,o),
(269,685,o),
(245,685,cs),
(166,685,o),
(124,627,o),
(124,544,cs),
(124,514,o),
(132,463,o),
(130,417,cs),
(129,389,o),
(114,382,o),
(104,377,cs),
(77,364,o),
(60,357,o),
(60,335,cs),
(60,313,o),
(77,305,o),
(104,293,cs),
(114,288,o),
(134,279,o),
(135,252,cs),
(137,206,o),
(126,158,o),
(126,126,cs),
(126,47,o),
(153,-20,o),
(246,-20,cs)
);
}
);
width = 383;
}
);
unicode = 123;
},
{
glyphname = bar;
layers = (
{
hints = (
{
horizontal = 1;
place = (-269,987);
type = Stem;
},
{
place = (65,93);
type = Stem;
}
);
layerId = "986E1480-5ACC-463A-8EAE-4F79F3B98EB6";
shapes = (
{
closed = 1;
nodes = (
(123,-269,o),
(145,-253,o),
(146,-221,cs),
(151,-79,o),
(158,105,o),
(158,282,cs),
(158,417,o),
(154,552,o),
(143,669,cs),
(140,703,o),
(119,718,o),
(97,718,cs),
(73,718,o),
(50,700,o),
(50,669,cs),
(50,632,o),
(65,541,o),
(65,294,cs),
(65,116,o),
(53,-181,o),
(53,-217,cs),
(53,-251,o),
(77,-269,o),
(101,-269,cs)
);
}
);
width = 208;
}
);
unicode = 124;
},
{
glyphname = braceright;
layers = (
{
hints = (
{
horizontal = 1;
place = (-20,79);
type = Stem;
},
{
horizontal = 1;
place = (607,78);
type = Stem;
},
{
place = (165,93);
type = Stem;
},
{
place = (170,90);
type = Stem;
}
);
layerId = "986E1480-5ACC-463A-8EAE-4F79F3B98EB6";
shapes = (
{
closed = 1;
nodes = (
(231,-20,o),
(258,47,o),
(258,126,cs),
(258,158,o),
(247,206,o),
(249,252,cs),
(250,279,o),
(270,288,o),
(280,293,cs),
(307,306,o),
(324,313,o),
(324,335,cs),
(324,357,o),
(307,364,o),
(280,377,cs),
(270,382,o),
(255,389,o),
(254,417,cs),
(252,463,o),
(260,514,o),
(260,544,cs),
(260,627,o),
(218,685,o),
(140,685,cs),
(115,685,o),
(86,675,o),
(65,662,cs),
(48,651,o),
(40,636,o),
(40,623,cs),
(40,604,o),
(56,587,o),
(78,587,cs),
(87,587,o),
(96,590,o),
(105,595,cs),
(118,602,o),
(130,607,o),
(140,607,cs),
(162,607,o),
(175,587,o),
(175,550,cs),
(175,521,o),
(170,458,o),
(170,414,cs),
(170,365,o),
(191,345,o),
(203,335,c),
(191,322,o),
(165,302,o),
(165,254,cs),
(165,208,o),
(173,153,o),
(173,120,cs),
(173,80,o),
(159,59,o),
(137,59,cs),
(128,59,o),
(117,63,o),
(104,72,cs),
(94,79,o),
(85,82,o),
(76,82,cs),
(57,82,o),
(44,66,o),
(44,47,cs),
(44,34,o),
(51,18,o),
(67,5,cs),
(87,-12,o),
(113,-20,o),
(139,-20,cs)
);
}
);
width = 384;
}
);
unicode = 125;
},
{
glyphname = asciitilde;
layers = (
{
hints = (
{
horizontal = 1;
place = (282,83);
type = Stem;
},
{
horizontal = 1;
place = (315,83);
type = Stem;
},
{
place = (30,306);
type = Stem;
}
);
layerId = "986E1480-5ACC-463A-8EAE-4F79F3B98EB6";
shapes = (
{
closed = 1;
nodes = (
(255,369,o),
(249,365,o),
(239,365,cs),
(205,365,o),
(167,398,o),
(123,398,cs),
(93,398,o),
(63,385,o),
(42,357,cs),
(34,346,o),
(30,335,o),
(30,325,cs),
(30,303,o),
(48,286,o),
(68,286,cs),
(77,286,o),
(87,289,o),
(96,297,cs),
(108,307,o),
(115,315,o),
(128,315,cs),
(155,315,o),
(196,282,o),
(241,282,cs),
(277,282,o),
(309,298,o),
(328,332,cs),
(333,342,o),
(336,351,o),
(336,360,cs),
(336,383,o),
(317,399,o),
(297,399,cs),
(285,399,o),
(273,393,o),
(264,380,cs)
);
}
);
width = 366;
}
);
unicode = 126;
},
{
glyphname = exclamdown;
layers = (
{
hints = (
{
horizontal = 1;
place = (-256,21);
target = up;
type = BottomGhost;
},
{
horizontal = 1;
place = (365,121);
type = Stem;
},
{
place = (34,120);
type = Stem;
},
{
place = (58,93);
type = Stem;
}
);
layerId = "986E1480-5ACC-463A-8EAE-4F79F3B98EB6";
shapes = (
{
closed = 1;
nodes = (
(60,486,o),
(34,459,o),
(34,425,cs),
(34,391,o),
(60,365,o),
(95,365,cs),
(128,365,o),
(154,391,o),
(154,425,cs),
(154,459,o),
(128,486,o),
(95,486,cs)
);
},
{
closed = 1;
nodes = (
(73,307,o),
(50,289,o),
(50,256,cs),
(50,194,o),
(58,114,o),
(58,-12,cs),
(58,-82,o),
(56,-146,o),
(52,-195,cs),
(48,-235,o),
(72,-256,o),
(96,-256,cs),
(119,-256,o),
(142,-238,o),
(145,-203,cs),
(149,-151,o),
(151,-80,o),
(151,-1,cs),
(151,80,o),
(149,170,o),
(143,258,c),
(140,291,o),
(119,307,o),
(96,307,cs)
);
}
);
width = 184;
}
);
leftKerningGroup = colon;
unicode = 161;
},
{
glyphname = cent;
layers = (
{
hints = (
{
horizontal = 1;
place = (-8,21);
target = up;
type = BottomGhost;
},
{
horizontal = 1;
place = (-4,21);
target = up;
type = BottomGhost;
},
{
place = (26,93);
type = Stem;
},
{
place = (201,86);
type = Stem;
},
{
place = (333,88);
type = Stem;
}
);
layerId = "986E1480-5ACC-463A-8EAE-4F79F3B98EB6";
shapes = (
{
closed = 1;
nodes = (
(467,271,o),
(450,260,o),
(438,236,cs),
(396,152,o),
(344,97,o),
(282,81,c),
(285,159,o),
(287,244,o),
(287,323,cs),
(287,360,o),
(286,396,o),
(285,429,c),
(316,423,o),
(333,402,o),
(333,368,cs),
(333,333,o),
(354,316,o),
(376,316,cs),
(399,316,o),
(421,334,o),
(421,372,cs),
(421,452,o),
(366,506,o),
(282,514,c),
(281,531,o),
(279,548,o),
(278,562,cs),
(275,594,o),
(254,609,o),
(234,609,cs),
(213,609,o),
(192,593,o),
(192,562,cs),
(192,556,o),
(194,538,o),
(196,506,c),
(89,472,o),
(26,355,o),
(26,232,cs),
(26,119,o),
(81,20,o),
(188,-4,c),
(187,-22,o),
(187,-37,o),
(187,-50,cs),
(187,-84,o),
(208,-102,o),
(229,-102,cs),
(248,-102,o),
(268,-87,o),
(272,-52,cs),
(273,-38,o),
(275,-23,o),
(276,-8,c),
(375,6,o),
(457,80,o),
(507,191,cs),
(518,215,o),
(519,223,o),
(519,231,cs),
(519,255,o),
(502,271,o),
(482,271,cs)
);
},
{
closed = 1;
nodes = (
(119,317,o),
(151,385,o),
(201,415,c),
(201,399,o),
(201,381,o),
(201,362,cs),
(201,236,o),
(196,148,o),
(194,85,c),
(144,106,o),
(119,162,o),
(119,238,cs)
);
}
);
width = 561;
}
);
unicode = 162;
},
{
glyphname = sterling;
layers = (
{
hints = (
{
horizontal = 1;
place = (-15,85);
type = Stem;
},
{
horizontal = 1;
place = (-6,21);
target = up;
type = BottomGhost;
},
{
horizontal = 1;
place = (311,79);
type = Stem;
},
{
horizontal = 1;
place = (620,85);
type = Stem;
},
{
place = (103,91);
type = Stem;
},
{
place = (123,91);
type = Stem;
},
{
place = (371,88);
type = Stem;
}
);
layerId = "986E1480-5ACC-463A-8EAE-4F79F3B98EB6";
shapes = (
{
closed = 1;
nodes = (
(401,194,o),
(381,181,o),
(376,153,cs),
(368,104,o),
(346,70,o),
(309,70,cs),
(278,70,o),
(230,95,o),
(195,103,c),
(208,130,o),
(214,162,o),
(214,201,cs),
(214,231,o),
(210,270,o),
(205,311,c),
(248,311,ls),
(281,311,o),
(296,331,o),
(296,351,cs),
(296,370,o),
(281,390,o),
(248,390,cs),
(197,390,l),
(195,410,o),
(194,429,o),
(194,447,cs),
(194,568,o),
(246,620,o),
(300,620,cs),
(343,620,o),
(371,592,o),
(371,557,cs),
(371,535,o),
(359,522,o),
(359,503,cs),
(359,477,o),
(380,461,o),
(401,461,cs),
(417,461,o),
(434,470,o),
(444,492,cs),
(454,514,o),
(459,542,o),
(459,565,cs),
(459,646,o),
(397,705,o),
(295,705,cs),
(194,705,o),
(103,622,o),
(103,447,cs),
(103,429,o),
(104,410,o),
(105,391,c),
(100,391,ls),
(70,391,o),
(54,371,o),
(54,352,cs),
(54,332,o),
(70,312,o),
(100,312,cs),
(113,312,l),
(118,271,o),
(123,232,o),
(123,201,cs),
(123,145,o),
(113,126,o),
(50,89,c),
(33,78,o),
(26,62,o),
(26,47,cs),
(26,20,o),
(45,-6,o),
(74,-6,cs),
(82,-6,o),
(91,-3,o),
(102,2,c),
(122,13,o),
(137,26,o),
(151,26,cs),
(185,26,o),
(249,-15,o),
(308,-15,cs),
(406,-15,o),
(464,73,o),
(464,149,cs),
(464,177,o),
(443,194,o),
(421,194,cs)
);
}
);
width = 490;
}
);
unicode = 163;
},
{
glyphname = currency;
layers = (
{
hints = (
{
horizontal = 1;
place = (-2,21);
target = up;
type = BottomGhost;
},
{
horizontal = 1;
place = (1,21);
target = up;
type = BottomGhost;
},
{
horizontal = 1;
place = (50,85);
type = Stem;
},
{
horizontal = 1;
place = (461,86);
type = Stem;
},
{
place = (30,90);
type = Stem;
},
{
place = (349,90);
type = Stem;
}
);
layerId = "986E1480-5ACC-463A-8EAE-4F79F3B98EB6";
shapes = (
{
closed = 1;
nodes = (
(387,131,l),
(421,178,o),
(439,241,o),
(439,307,cs),
(439,370,o),
(422,428,o),
(389,472,c),
(415,504,ls),
(425,517,o),
(429,529,o),
(429,540,cs),
(429,563,o),
(410,581,o),
(388,581,cs),
(375,581,o),
(360,574,o),
(347,559,cs),
(322,529,l),
(298,540,o),
(270,547,o),
(238,547,cs),
(205,547,o),
(176,539,o),
(150,526,c),
(121,558,ls),
(108,572,o),
(94,577,o),
(82,577,cs),
(58,577,o),
(39,558,o),
(39,534,cs),
(39,523,o),
(44,510,o),
(55,497,c),
(83,467,l),
(48,420,o),
(30,357,o),
(30,292,cs),
(30,230,o),
(47,171,o),
(78,127,c),
(41,78,ls),
(32,66,o),
(28,54,o),
(28,43,cs),
(28,19,o),
(47,1,o),
(69,1,cs),
(83,1,o),
(98,8,o),
(111,25,cs),
(145,70,l),
(171,57,o),
(200,50,o),
(233,50,cs),
(265,50,o),
(294,58,o),
(320,71,c),
(356,22,ls),
(368,5,o),
(383,-2,o),
(397,-2,cs),
(420,-2,o),
(440,18,o),
(440,42,cs),
(440,53,o),
(437,64,o),
(428,76,cs)
);
},
{
closed = 1;
nodes = (
(159,135,o),
(120,207,o),
(120,291,cs),
(120,380,o),
(163,461,o),
(238,461,cs),
(310,461,o),
(349,390,o),
(349,305,cs),
(349,216,o),
(305,135,o),
(233,135,cs)
);
}
);
width = 469;
}
);
unicode = 164;
},
{
glyphname = yen;
layers = (
{
hints = (
{
horizontal = 1;
place = (-13,21);
target = up;
type = BottomGhost;
},
{
horizontal = 1;
place = (142,73);
type = Stem;
},
{
horizontal = 1;
place = (256,73);
type = Stem;
},
{
place = (24,411);
type = Stem;
},
{
place = (161,90);
type = Stem;
}
);
layerId = "986E1480-5ACC-463A-8EAE-4F79F3B98EB6";
shapes = (
{
closed = 1;
nodes = (
(435,660,o),
(414,679,o),
(391,679,cs),
(374,679,o),
(357,669,o),
(345,645,cs),
(307,569,o),
(256,468,o),
(213,387,c),
(176,455,o),
(142,555,o),
(118,641,cs),
(110,670,o),
(89,684,o),
(69,684,cs),
(46,684,o),
(24,666,o),
(24,637,cs),
(24,591,o),
(84,435,o),
(141,331,c),
(110,331,ls),
(77,331,o),
(61,314,o),
(61,295,cs),
(61,277,o),
(77,258,o),
(110,258,c),
(161,257,l),
(159,243,o),
(157,229,o),
(156,217,c),
(108,217,ls),
(75,217,o),
(59,200,o),
(59,182,cs),
(59,163,o),
(75,144,o),
(108,144,cs),
(147,144,l),
(138,67,o),
(135,43,o),
(135,34,cs),
(135,4,o),
(157,-13,o),
(179,-13,cs),
(201,-13,o),
(223,2,o),
(227,32,cs),
(240,143,l),
(304,142,l),
(335,142,o),
(352,160,o),
(352,178,cs),
(352,197,o),
(336,215,o),
(305,215,c),
(249,216,l),
(254,257,l),
(312,256,l),
(344,256,o),
(359,274,o),
(359,292,cs),
(359,310,o),
(344,329,o),
(313,329,cs),
(279,329,l),
(332,426,o),
(383,523,o),
(426,602,cs),
(432,613,o),
(435,623,o),
(435,633,cs)
);
}
);
width = 466;
}
);
unicode = 165;
},
{
glyphname = brokenbar;
layers = (
{
hints = (
{
horizontal = 1;
place = (-269,988);
type = Stem;
},
{
place = (53,93);
type = Stem;
},
{
place = (65,93);
type = Stem;
}
);
layerId = "986E1480-5ACC-463A-8EAE-4F79F3B98EB6";
shapes = (
{
closed = 1;
nodes = (
(135,279,o),
(158,296,o),
(158,331,cs),
(158,450,o),
(154,567,o),
(143,670,cs),
(140,704,o),
(118,719,o),
(96,719,cs),
(73,719,o),
(50,703,o),
(50,670,cs),
(50,634,o),
(65,573,o),
(65,330,cs),
(65,296,o),
(90,279,o),
(113,279,cs)
);
},
{
closed = 1;
nodes = (
(123,-269,o),
(145,-253,o),
(146,-221,cs),
(149,-130,o),
(158,21,o),
(158,112,cs),
(158,148,o),
(136,166,o),
(112,166,cs),
(90,166,o),
(66,149,o),
(65,115,c),
(65,32,o),
(53,-179,o),
(53,-219,cs),
(53,-252,o),
(77,-269,o),
(101,-269,cs)
);
}
);
width = 208;
}
);
unicode = 166;
},
{
glyphname = section;
layers = (
{
hints = (
{
horizontal = 1;
place = (-21,83);
type = Stem;
},
{
horizontal = 1;
place = (596,84);
type = Stem;
},
{
place = (35,86);
type = Stem;
},
{
place = (56,85);
type = Stem;
},
{
place = (68,86);
type = Stem;
},
{
place = (237,86);
type = Stem;
},
{
place = (248,84);
type = Stem;
}
);
layerId = "986E1480-5ACC-463A-8EAE-4F79F3B98EB6";
shapes = (
{
closed = 1;
nodes = (
(332,452,o),
(154,498,o),
(154,565,cs),
(154,586,o),
(170,596,o),
(191,596,cs),
(211,596,o),
(235,586,o),
(252,564,cs),
(262,552,o),
(274,548,o),
(285,548,cs),
(306,548,o),
(324,566,o),
(324,589,cs),
(324,599,o),
(321,609,o),
(313,619,cs),
(282,658,o),
(236,680,o),
(189,680,cs),
(122,680,o),
(68,636,o),
(68,569,cs),
(68,530,o),
(84,500,o),
(106,475,c),
(74,448,o),
(56,414,o),
(56,374,cs),
(56,255,o),
(237,204,o),
(237,122,cs),
(237,85,o),
(214,62,o),
(181,62,cs),
(147,62,o),
(121,85,o),
(121,119,cs),
(121,127,o),
(125,151,o),
(125,156,cs),
(125,181,o),
(105,196,o),
(85,196,cs),
(47,196,o),
(35,156,o),
(35,117,cs),
(35,33,o),
(101,-21,o),
(183,-21,cs),
(262,-21,o),
(323,31,o),
(323,115,cs),
(323,153,o),
(310,184,o),
(292,210,c),
(318,243,o),
(332,279,o),
(332,316,cs)
);
},
{
closed = 1;
nodes = (
(141,393,o),
(149,409,o),
(167,422,c),
(209,390,o),
(248,360,o),
(248,315,cs),
(248,296,o),
(245,281,o),
(237,267,c),
(190,308,o),
(141,338,o),
(141,375,cs)
);
}
);
width = 368;
}
);
unicode = 167;
},
{
glyphname = dieresis;
layers = (
{
hints = (
{
horizontal = 1;
place = (767,101);
type = Stem;
},
{
place = (33,101);
type = Stem;
},
{
place = (171,101);
type = Stem;
}
);
layerId = "986E1480-5ACC-463A-8EAE-4F79F3B98EB6";
shapes = (
{
closed = 1;
nodes = (
(111,767,o),
(134,790,o),
(134,817,cs),
(134,845,o),
(111,868,o),
(83,868,cs),
(56,868,o),
(33,845,o),
(33,817,cs),
(33,790,o),
(56,767,o),
(83,767,cs)
);
},
{
closed = 1;
nodes = (
(249,767,o),
(272,790,o),
(272,817,cs),
(272,845,o),
(249,868,o),
(222,868,cs),
(194,868,o),
(171,845,o),
(171,817,cs),
(171,790,o),
(194,767,o),
(222,767,cs)
);
}
);
width = 308;
}
);
unicode = 168;
},
{
glyphname = copyright;
layers = (
{
hints = (
{
horizontal = 1;
place = (47,80);
type = Stem;
},
{
horizontal = 1;
place = (170,74);
type = Stem;
},
{
horizontal = 1;
place = (409,72);
type = Stem;
},
{
horizontal = 1;
place = (523,79);
type = Stem;
},
{
place = (29,84);
type = Stem;
},
{
place = (175,77);
type = Stem;
},
{
place = (331,69);
type = Stem;
},
{
place = (497,85);
type = Stem;
}
);
layerId = "986E1480-5ACC-463A-8EAE-4F79F3B98EB6";
shapes = (
{
closed = 1;
nodes = (
(147,602,o),
(29,467,o),
(29,305,cs),
(29,155,o),
(126,47,o),
(301,47,cs),
(472,47,o),
(582,184,o),
(582,350,cs),
(582,491,o),
(484,602,o),
(325,602,cs)
);
},
{
closed = 1;
nodes = (
(431,523,o),
(497,447,o),
(497,349,cs),
(497,223,o),
(421,127,o),
(298,127,cs),
(177,127,o),
(113,200,o),
(113,306,cs),
(113,429,o),
(194,523,o),
(327,523,cs)
);
},
{
closed = 1;
nodes = (
(358,259,o),
(337,244,o),
(310,244,cs),
(272,244,o),
(252,280,o),
(252,323,cs),
(252,367,o),
(273,409,o),
(306,409,cs),
(322,409,o),
(331,401,o),
(331,386,cs),
(331,362,o),
(347,351,o),
(363,351,cs),
(382,351,o),
(400,364,o),
(400,391,cs),
(400,444,o),
(361,481,o),
(307,481,cs),
(226,481,o),
(175,400,o),
(175,316,cs),
(175,234,o),
(224,170,o),
(305,170,cs),
(354,170,o),
(399,191,o),
(432,239,c),
(438,249,o),
(442,259,o),
(442,268,cs),
(442,288,o),
(426,303,o),
(408,303,cs),
(398,303,o),
(386,297,o),
(376,284,cs)
);
}
);
width = 615;
}
);
unicode = 169;
},
{
glyphname = guillemotleft;
layers = (
{
hints = (
{
horizontal = 1;
place = (160,279);
type = Stem;
},
{
place = (38,346);
type = Stem;
}
);
layerId = "986E1480-5ACC-463A-8EAE-4F79F3B98EB6";
shapes = (
{
closed = 1;
nodes = (
(207,178,o),
(211,188,o),
(211,198,cs),
(211,211,o),
(205,224,o),
(196,236,cs),
(180,256,o),
(159,282,o),
(149,296,cs),
(145,302,o),
(143,305,o),
(143,308,cs),
(143,311,o),
(145,313,o),
(149,319,cs),
(158,331,o),
(176,347,o),
(192,362,cs),
(204,373,o),
(210,388,o),
(210,401,cs),
(210,411,o),
(207,420,o),
(200,427,cs),
(192,435,o),
(182,439,o),
(172,439,cs),
(160,439,o),
(147,434,o),
(136,424,cs),
(101,393,o),
(62,353,o),
(45,327,cs),
(40,320,o),
(38,314,o),
(38,308,cs),
(38,303,o),
(40,297,o),
(44,288,cs),
(57,260,o),
(99,213,o),
(134,178,cs),
(146,166,o),
(159,160,o),
(172,160,cs),
(181,160,o),
(190,163,o),
(198,170,cs)
);
},
{
closed = 1;
nodes = (
(380,178,o),
(384,188,o),
(384,199,cs),
(384,211,o),
(379,224,o),
(369,236,cs),
(353,256,o),
(332,282,o),
(322,296,cs),
(318,302,o),
(316,305,o),
(316,308,cs),
(316,311,o),
(318,313,o),
(322,319,cs),
(330,331,o),
(349,347,o),
(365,362,cs),
(377,373,o),
(383,388,o),
(383,401,cs),
(383,411,o),
(380,420,o),
(373,427,cs),
(365,435,o),
(355,439,o),
(345,439,cs),
(333,439,o),
(320,434,o),
(309,424,cs),
(274,393,o),
(235,352,o),
(218,327,cs),
(213,320,o),
(211,314,o),
(211,308,cs),
(211,303,o),
(213,297,o),
(217,288,cs),
(230,260,o),
(272,213,o),
(307,178,cs),
(319,166,o),
(332,160,o),
(345,160,cs),
(354,160,o),
(363,163,o),
(371,170,cs)
);
}
);
width = 414;
}
);
leftKerningGroup = guillemotleft2;
rightKerningGroup = guillemotleft;
unicode = 171;
},
{
glyphname = logicalnot;
layers = (
{
hints = (
{
horizontal = 1;
place = (293,88);
type = Stem;
},
{
place = (277,87);
type = Stem;
}
);
layerId = "986E1480-5ACC-463A-8EAE-4F79F3B98EB6";
shapes = (
{
closed = 1;
nodes = (
(364,335,ls),
(364,363,o),
(346,381,o),
(319,381,cs),
(82,381,ls),
(48,381,o),
(32,359,o),
(32,337,cs),
(32,315,o),
(48,293,o),
(82,293,cs),
(262,293,ls),
(272,293,o),
(277,288,o),
(277,279,cs),
(277,254,ls),
(277,221,o),
(299,205,o),
(321,205,cs),
(343,205,o),
(364,221,o),
(364,254,cs)
);
}
);
width = 396;
}
);
unicode = 172;
},
{
glyphname = uni00AD;
layers = (
{
hints = (
{
horizontal = 1;
place = (220,80);
type = Stem;
},
{
place = (100,263);
type = Stem;
}
);
layerId = "986E1480-5ACC-463A-8EAE-4F79F3B98EB6";
shapes = (
{
closed = 1;
nodes = (
(346,220,o),
(363,238,o),
(363,260,cs),
(363,282,o),
(347,300,o),
(320,300,c),
(261,301,o),
(202,301,o),
(143,302,c),
(117,302,o),
(100,284,o),
(100,262,cs),
(100,241,o),
(116,222,o),
(142,222,c),
(201,221,o),
(260,221,o),
(319,220,c)
);
}
);
width = 436;
}
);
leftKerningGroup = endash;
unicode = 173;
},
{
glyphname = registered;
layers = (
{
hints = (
{
horizontal = 1;
place = (276,64);
type = Stem;
},
{
horizontal = 1;
place = (453,45);
type = Stem;
},
{
horizontal = 1;
place = (547,47);
type = Stem;
},
{
horizontal = 1;
place = (627,64);
type = Stem;
},
{
place = (33,69);
type = Stem;
},
{
place = (175,52);
type = Stem;
},
{
place = (262,48);
type = Stem;
},
{
place = (378,70);
type = Stem;
}
);
layerId = "986E1480-5ACC-463A-8EAE-4F79F3B98EB6";
shapes = (
{
closed = 1;
nodes = (
(109,691,o),
(33,580,o),
(33,473,cs),
(33,373,o),
(99,276,o),
(237,276,cs),
(375,276,o),
(448,387,o),
(448,494,cs),
(448,594,o),
(383,691,o),
(250,691,cs)
);
},
{
closed = 1;
nodes = (
(146,340,o),
(102,408,o),
(102,477,cs),
(102,550,o),
(154,627,o),
(250,627,cs),
(338,627,o),
(378,562,o),
(378,494,cs),
(378,419,o),
(329,340,o),
(240,340,cs)
);
},
{
closed = 1;
nodes = (
(300,483,o),
(310,503,o),
(310,524,cs),
(310,563,o),
(283,594,o),
(238,594,cs),
(218,594,o),
(195,585,o),
(178,572,c),
(172,412,ls),
(171,392,o),
(184,382,o),
(197,382,cs),
(209,382,o),
(222,391,o),
(223,411,cs),
(225,454,l),
(229,453,o),
(233,453,o),
(237,453,c),
(238,453,l),
(243,436,o),
(251,417,o),
(265,399,cs),
(273,390,o),
(281,386,o),
(289,386,cs),
(301,386,o),
(312,397,o),
(312,411,cs),
(312,417,o),
(310,424,o),
(305,431,cs),
(295,445,o),
(289,454,o),
(283,469,c)
);
},
{
closed = 1;
nodes = (
(228,542,l),
(231,545,o),
(237,547,o),
(242,547,cs),
(254,547,o),
(262,537,o),
(262,524,cs),
(262,509,o),
(253,498,o),
(240,498,cs),
(236,498,o),
(231,499,o),
(226,501,c)
);
}
);
width = 478;
}
);
unicode = 174;
},
{
glyphname = macron;
layers = (
{
hints = (
{
horizontal = 1;
place = (779,82);
type = Stem;
},
{
place = (30,240);
type = Stem;
}
);
layerId = "986E1480-5ACC-463A-8EAE-4F79F3B98EB6";
shapes = (
{
closed = 1;
nodes = (
(221,777,l),
(254,777,o),
(270,797,o),
(270,818,cs),
(270,839,o),
(254,861,o),
(221,861,c),
(80,863,ls),
(47,864,o),
(30,842,o),
(30,821,cs),
(30,800,o),
(46,779,o),
(80,779,c)
);
}
);
width = 302;
}
);
unicode = 175;
},
{
glyphname = degree;
layers = (
{
hints = (
{
horizontal = 1;
place = (464,77);
type = Stem;
},
{
horizontal = 1;
place = (607,76);
type = Stem;
},
{
place = (29,80);
type = Stem;
},
{
place = (177,77);
type = Stem;
}
);
layerId = "986E1480-5ACC-463A-8EAE-4F79F3B98EB6";
shapes = (
{
closed = 1;
nodes = (
(204,464,o),
(254,522,o),
(254,586,cs),
(254,641,o),
(216,683,o),
(154,683,cs),
(80,683,o),
(29,627,o),
(29,562,cs),
(29,507,o),
(68,464,o),
(133,464,cs)
);
},
{
closed = 1;
nodes = (
(118,541,o),
(109,554,o),
(109,569,cs),
(109,587,o),
(123,607,o),
(148,607,cs),
(167,607,o),
(177,594,o),
(177,579,cs),
(177,561,o),
(163,541,o),
(139,541,cs)
);
}
);
width = 285;
}
);
unicode = 176;
},
{
glyphname = plusminus;
layers = (
{
hints = (
{
horizontal = 1;
place = (148,79);
type = Stem;
},
{
horizontal = 1;
place = (344,80);
type = Stem;
},
{
place = (195,85);
type = Stem;
}
);
layerId = "986E1480-5ACC-463A-8EAE-4F79F3B98EB6";
shapes = (
{
closed = 1;
nodes = (
(193,344,l),
(193,305,ls),
(193,274,o),
(215,259,o),
(237,259,cs),
(258,259,o),
(279,274,o),
(279,305,cs),
(279,343,l),
(339,343,ls),
(370,343,o),
(386,363,o),
(386,383,cs),
(386,403,o),
(370,423,o),
(339,423,cs),
(280,423,l),
(280,480,ls),
(280,509,o),
(260,524,o),
(239,524,cs),
(217,524,o),
(195,510,o),
(195,480,c),
(194,424,l),
(133,424,ls),
(104,424,o),
(89,404,o),
(89,384,cs),
(89,364,o),
(104,344,o),
(133,344,cs)
);
},
{
closed = 1;
nodes = (
(133,228,l),
(104,228,o),
(89,209,o),
(89,188,cs),
(89,169,o),
(104,149,o),
(133,149,c),
(339,148,l),
(370,148,o),
(386,168,o),
(386,187,cs),
(386,208,o),
(370,227,o),
(339,227,c)
);
}
);
width = 419;
}
);
unicode = 177;
},
{
glyphname = uni00B2;
layers = (
{
hints = (
{
horizontal = 1;
place = (364,70);
type = Stem;
},
{
horizontal = 1;
place = (644,74);
type = Stem;
},
{
place = (45,68);
type = Stem;
},
{
place = (155,73);
type = Stem;
}
);
layerId = "986E1480-5ACC-463A-8EAE-4F79F3B98EB6";
shapes = (
{
closed = 1;
nodes = (
(245,364,o),
(286,414,o),
(286,457,cs),
(286,478,o),
(271,490,o),
(254,490,cs),
(242,490,o),
(230,483,o),
(224,468,cs),
(214,443,o),
(200,434,o),
(189,434,cs),
(182,434,o),
(164,439,o),
(154,440,c),
(193,491,o),
(228,559,o),
(228,614,cs),
(228,681,o),
(184,718,o),
(135,718,cs),
(87,718,o),
(45,682,o),
(45,620,cs),
(45,594,o),
(62,580,o),
(80,580,cs),
(97,580,o),
(113,593,o),
(113,617,cs),
(113,634,o),
(124,644,o),
(134,644,cs),
(145,644,o),
(155,634,o),
(155,614,cs),
(155,559,o),
(120,498,o),
(83,454,cs),
(78,448,o),
(70,444,o),
(59,441,cs),
(38,435,o),
(30,419,o),
(30,403,cs),
(30,384,o),
(44,365,o),
(64,365,cs),
(79,365,o),
(92,376,o),
(109,376,cs),
(132,376,o),
(168,364,o),
(196,364,cs)
);
}
);
width = 312;
}
);
leftKerningGroup = uni00B9;
unicode = 178;
},
{
glyphname = uni00B3;
layers = (
{
hints = (
{
horizontal = 1;
place = (361,70);
type = Stem;
},
{
horizontal = 1;
place = (646,70);
type = Stem;
},
{
place = (157,70);
type = Stem;
},
{
place = (172,73);
type = Stem;
}
);
layerId = "986E1480-5ACC-463A-8EAE-4F79F3B98EB6";
shapes = (
{
closed = 1;
nodes = (
(213,572,o),
(227,600,o),
(227,628,cs),
(227,682,o),
(186,716,o),
(133,716,cs),
(81,716,o),
(30,679,o),
(30,617,cs),
(30,592,o),
(47,580,o),
(64,580,cs),
(80,580,o),
(96,591,o),
(99,616,cs),
(101,636,o),
(115,646,o),
(129,646,cs),
(144,646,o),
(157,636,o),
(157,619,cs),
(157,599,o),
(144,580,o),
(124,573,cs),
(108,567,o),
(100,555,o),
(100,542,cs),
(100,527,o),
(111,512,o),
(130,512,cs),
(157,512,o),
(172,493,o),
(172,473,cs),
(172,446,o),
(155,431,o),
(135,431,cs),
(121,431,o),
(106,438,o),
(93,453,cs),
(83,464,o),
(72,471,o),
(62,471,cs),
(44,471,o),
(28,456,o),
(28,436,cs),
(28,398,o),
(81,361,o),
(132,361,cs),
(207,361,o),
(245,411,o),
(245,462,cs),
(245,498,o),
(226,534,o),
(189,553,c)
);
}
);
width = 275;
}
);
leftKerningGroup = onehalf;
unicode = 179;
},
{
glyphname = acute;
layers = (
{
hints = (
{
horizontal = 1;
place = (758,160);
type = Stem;
},
{
place = (33,155);
type = Stem;
}
);
layerId = "986E1480-5ACC-463A-8EAE-4F79F3B98EB6";
shapes = (
{
closed = 1;
nodes = (
(50,835,ls),
(38,822,o),
(33,809,o),
(33,797,cs),
(33,775,o),
(50,758,o),
(71,758,cs),
(83,758,o),
(97,763,o),
(109,776,cs),
(171,841,ls),
(183,854,o),
(188,867,o),
(188,879,cs),
(188,901,o),
(171,918,o),
(150,918,cs),
(138,918,o),
(124,912,o),
(111,899,cs)
);
}
);
width = 223;
}
);
unicode = 180;
},
{
glyphname = paragraph;
layers = (
{
hints = (
{
horizontal = 1;
place = (-21,85);
type = Stem;
},
{
horizontal = 1;
place = (566,85);
type = Stem;
},
{
horizontal = 1;
place = (598,93);
type = Stem;
},
{
place = (30,218);
type = Stem;
},
{
place = (298,92);
type = Stem;
}
);
layerId = "986E1480-5ACC-463A-8EAE-4F79F3B98EB6";
shapes = (
{
closed = 1;
nodes = (
(455,655,o),
(436,651,o),
(427,651,cs),
(368,651,o),
(276,691,o),
(201,691,cs),
(96,691,o),
(30,612,o),
(30,485,cs),
(30,308,o),
(58,242,o),
(141,242,cs),
(227,242,o),
(248,311,o),
(248,573,cs),
(248,589,o),
(255,598,o),
(269,598,cs),
(276,598,o),
(286,596,o),
(298,592,c),
(297,536,o),
(294,415,o),
(289,271,cs),
(285,140,o),
(251,64,o),
(207,64,cs),
(180,64,o),
(159,87,o),
(146,131,cs),
(138,156,o),
(120,167,o),
(102,167,cs),
(79,167,o),
(58,151,o),
(58,123,cs),
(58,66,o),
(114,-21,o),
(202,-21,cs),
(311,-21,o),
(372,83,o),
(382,269,c),
(385,339,o),
(388,471,o),
(390,570,c),
(405,568,o),
(421,566,o),
(437,566,cs),
(471,566,o),
(504,578,o),
(504,613,cs),
(504,635,o),
(489,655,o),
(464,655,cs)
);
}
);
width = 454;
}
);
unicode = 182;
},
{
glyphname = periodcentered;
layers = (
{
hints = (
{
horizontal = 1;
place = (248,121);
type = Stem;
},
{
place = (30,121);
type = Stem;
}
);
layerId = "986E1480-5ACC-463A-8EAE-4F79F3B98EB6";
shapes = (
{
closed = 1;
nodes = (
(124,248,o),
(151,275,o),
(151,309,cs),
(151,343,o),
(124,369,o),
(91,369,cs),
(57,369,o),
(30,343,o),
(30,309,cs),
(30,275,o),
(57,248,o),
(91,248,cs)
);
}
);
width = 181;
}
);
unicode = 183;
},
{
glyphname = cedilla;
layers = (
{
hints = (
{
horizontal = 1;
place = (-209,74);
type = Stem;
},
{
place = (31,175);
type = Stem;
},
{
place = (127,79);
type = Stem;
}
);
layerId = "986E1480-5ACC-463A-8EAE-4F79F3B98EB6";
shapes = (
{
closed = 1;
nodes = (
(74,-204,o),
(94,-209,o),
(114,-209,cs),
(172,-209,o),
(206,-165,o),
(206,-123,cs),
(206,-102,o),
(197,-81,o),
(179,-67,cs),
(165,-57,o),
(156,-51,o),
(156,-43,cs),
(156,-38,o),
(160,-30,o),
(166,-13,cs),
(168,-8,o),
(168,-4,o),
(168,0,cs),
(168,18,o),
(153,28,o),
(137,28,cs),
(122,28,o),
(106,20,o),
(98,2,cs),
(85,-28,o),
(81,-46,o),
(81,-61,cs),
(81,-77,o),
(95,-89,o),
(112,-99,cs),
(123,-106,o),
(127,-114,o),
(127,-120,cs),
(127,-128,o),
(121,-135,o),
(110,-135,cs),
(103,-135,o),
(94,-131,o),
(83,-127,c),
(76,-123,o),
(69,-122,o),
(63,-122,cs),
(44,-122,o),
(31,-138,o),
(31,-156,cs),
(31,-169,o),
(39,-184,o),
(56,-194,cs)
);
}
);
width = 238;
}
);
unicode = 184;
},
{
glyphname = uni00B9;
layers = (
{
hints = (
{
horizontal = 1;
place = (370,348);
type = Stem;
},
{
place = (87,88);
type = Stem;
}
);
layerId = "986E1480-5ACC-463A-8EAE-4F79F3B98EB6";
shapes = (
{
closed = 1;
nodes = (
(141,370,o),
(156,383,o),
(161,411,cs),
(173,478,o),
(175,564,o),
(175,636,cs),
(175,656,o),
(173,675,o),
(170,690,cs),
(166,708,o),
(153,718,o),
(138,718,cs),
(123,718,o),
(106,708,o),
(95,686,cs),
(84,664,o),
(63,641,o),
(40,624,cs),
(27,614,o),
(21,603,o),
(21,592,cs),
(21,574,o),
(35,559,o),
(53,559,cs),
(68,559,o),
(88,575,o),
(102,590,c),
(101,516,o),
(87,437,o),
(87,412,cs),
(87,386,o),
(103,370,o),
(123,370,cs)
);
}
);
width = 203;
}
);
leftKerningGroup = uni00B9;
unicode = 185;
},
{
glyphname = guillemotright;
layers = (
{
hints = (
{
horizontal = 1;
place = (159,280);
type = Stem;
},
{
place = (91,347);
type = Stem;
}
);
layerId = "986E1480-5ACC-463A-8EAE-4F79F3B98EB6";
shapes = (
{
closed = 1;
nodes = (
(111,163,o),
(120,159,o),
(129,159,cs),
(142,159,o),
(156,166,o),
(168,178,cs),
(203,213,o),
(243,261,o),
(258,288,cs),
(262,296,o),
(265,302,o),
(265,307,cs),
(265,313,o),
(262,319,o),
(257,327,cs),
(240,352,o),
(201,393,o),
(166,424,cs),
(155,434,o),
(142,439,o),
(130,439,cs),
(120,439,o),
(110,435,o),
(102,427,cs),
(95,420,o),
(92,411,o),
(92,402,cs),
(92,389,o),
(98,374,o),
(110,362,cs),
(125,346,o),
(145,331,o),
(153,319,cs),
(157,313,o),
(159,311,o),
(159,308,cs),
(159,305,o),
(157,302,o),
(153,296,cs),
(143,282,o),
(122,256,o),
(106,236,cs),
(96,224,o),
(91,212,o),
(91,200,cs),
(91,189,o),
(96,178,o),
(104,170,cs)
);
},
{
closed = 1;
nodes = (
(284,163,o),
(293,159,o),
(302,159,cs),
(315,159,o),
(329,166,o),
(341,178,cs),
(376,213,o),
(416,261,o),
(431,288,cs),
(435,296,o),
(438,302,o),
(438,307,cs),
(438,313,o),
(435,319,o),
(430,327,cs),
(413,352,o),
(374,393,o),
(339,424,cs),
(328,434,o),
(315,439,o),
(303,439,cs),
(293,439,o),
(283,435,o),
(275,427,cs),
(268,420,o),
(265,411,o),
(265,402,cs),
(265,389,o),
(271,374,o),
(283,362,cs),
(298,346,o),
(316,330,o),
(326,319,cs),
(331,314,o),
(333,311,o),
(333,309,cs),
(333,306,o),
(330,303,o),
(326,296,cs),
(317,281,o),
(295,256,o),
(279,236,cs),
(270,224,o),
(265,211,o),
(265,199,cs),
(265,188,o),
(269,178,o),
(277,170,cs)
);
}
);
width = 468;
}
);
leftKerningGroup = guillemotright;
unicode = 187;
},
{
glyphname = onequarter;
layers = (
{
hints = (
{
horizontal = 1;
place = (-9,21);
target = up;
type = BottomGhost;
},
{
horizontal = 1;
place = (-6,21);
target = up;
type = BottomGhost;
},
{
horizontal = 1;
place = (130,72);
type = Stem;
},
{
place = (96,88);
type = Stem;
},
{
place = (355,77);
type = Stem;
},
{
place = (456,73);
type = Stem;
}
);
layerId = "986E1480-5ACC-463A-8EAE-4F79F3B98EB6";
shapes = (
{
closed = 1;
nodes = (
(110,481,o),
(96,402,o),
(96,377,cs),
(96,351,o),
(112,335,o),
(132,335,cs),
(150,335,o),
(165,348,o),
(170,376,c),
(180,442,o),
(184,529,o),
(184,601,cs),
(184,621,o),
(182,640,o),
(179,655,cs),
(175,673,o),
(162,683,o),
(147,683,cs),
(132,683,o),
(115,673,o),
(104,651,cs),
(93,629,o),
(72,606,o),
(49,589,cs),
(35,579,o),
(30,568,o),
(30,557,cs),
(30,539,o),
(44,524,o),
(62,524,cs),
(77,524,o),
(97,539,o),
(111,554,c)
);
},
{
closed = 1;
nodes = (
(479,663,o),
(465,678,o),
(445,678,cs),
(433,678,o),
(419,672,o),
(406,658,cs),
(303,547,o),
(158,178,o),
(68,67,cs),
(58,55,o),
(54,42,o),
(54,32,cs),
(54,10,o),
(70,-6,o),
(90,-6,cs),
(103,-6,o),
(117,1,o),
(129,17,cs),
(223,142,o),
(360,483,o),
(464,606,cs),
(475,619,o),
(479,631,o),
(479,642,cs)
);
},
{
closed = 1;
nodes = (
(556,183,o),
(547,186,o),
(538,189,c),
(544,234,o),
(550,258,o),
(550,271,cs),
(550,295,o),
(532,308,o),
(514,308,cs),
(498,308,o),
(482,298,o),
(478,276,cs),
(473,253,o),
(469,228,o),
(466,202,c),
(462,202,ls),
(448,202,o),
(435,200,o),
(421,196,c),
(427,221,o),
(432,250,o),
(432,283,cs),
(432,323,o),
(429,361,o),
(392,361,cs),
(374,361,o),
(355,348,o),
(355,322,cs),
(355,306,o),
(359,271,o),
(359,260,cs),
(359,228,o),
(353,204,o),
(341,187,cs),
(331,174,o),
(327,161,o),
(327,150,cs),
(327,129,o),
(343,115,o),
(368,115,cs),
(384,115,o),
(414,130,o),
(458,130,c),
(459,130,l),
(457,108,o),
(456,87,o),
(456,67,cs),
(456,55,o),
(457,44,o),
(457,33,c),
(458,5,o),
(476,-9,o),
(494,-9,cs),
(512,-9,o),
(529,5,o),
(529,33,cs),
(529,64,o),
(530,91,o),
(531,115,c),
(543,111,o),
(553,108,o),
(561,108,cs),
(582,108,o),
(595,123,o),
(595,140,cs),
(595,154,o),
(586,170,o),
(565,179,cs)
);
}
);
width = 627;
}
);
leftKerningGroup = onehalf;
unicode = 188;
},
{
glyphname = onehalf;
layers = (
{
hints = (
{
horizontal = 1;
place = (-5,70);
type = Stem;
},
{
horizontal = 1;
place = (274,74);
type = Stem;
},
{
place = (95,88);
type = Stem;
},
{
place = (336,68);
type = Stem;
},
{
place = (446,73);
type = Stem;
}
);
layerId = "986E1480-5ACC-463A-8EAE-4F79F3B98EB6";
shapes = (
{
closed = 1;
nodes = (
(149,335,o),
(164,347,o),
(169,376,cs),
(179,442,o),
(183,528,o),
(183,601,cs),
(183,620,o),
(181,639,o),
(178,655,cs),
(174,672,o),
(161,682,o),
(146,682,cs),
(131,682,o),
(114,673,o),
(103,650,cs),
(92,628,o),
(71,605,o),
(48,588,c),
(34,579,o),
(29,567,o),
(29,556,cs),
(29,539,o),
(43,524,o),
(61,524,cs),
(76,524,o),
(96,539,o),
(110,554,c),
(109,480,o),
(95,401,o),
(95,376,cs),
(95,350,o),
(111,335,o),
(131,335,cs)
);
},
{
closed = 1;
nodes = (
(222,142,o),
(360,483,o),
(463,606,cs),
(474,619,o),
(478,631,o),
(478,642,cs),
(478,663,o),
(464,678,o),
(444,678,cs),
(432,678,o),
(418,672,o),
(405,658,cs),
(302,547,o),
(157,178,o),
(67,67,cs),
(57,55,o),
(53,42,o),
(53,32,cs),
(53,10,o),
(69,-6,o),
(89,-6,cs),
(102,-6,o),
(116,1,o),
(128,17,cs)
);
},
{
closed = 1;
nodes = (
(536,-5,o),
(578,44,o),
(578,87,cs),
(578,108,o),
(562,121,o),
(545,121,cs),
(533,121,o),
(522,114,o),
(515,99,cs),
(504,73,o),
(491,65,o),
(480,65,cs),
(473,65,o),
(455,69,o),
(445,70,c),
(484,121,o),
(519,189,o),
(519,244,cs),
(519,311,o),
(475,348,o),
(426,348,cs),
(378,348,o),
(336,312,o),
(336,250,cs),
(336,224,o),
(354,211,o),
(371,211,cs),
(388,211,o),
(404,223,o),
(404,248,cs),
(404,265,o),
(415,274,o),
(425,274,cs),
(436,274,o),
(446,264,o),
(446,244,cs),
(446,189,o),
(415,125,o),
(374,85,cs),
(368,79,o),
(361,75,o),
(350,71,cs),
(329,64,o),
(321,49,o),
(321,34,cs),
(321,14,o),
(335,-5,o),
(356,-5,cs),
(370,-5,o),
(383,6,o),
(400,6,cs),
(423,6,o),
(459,-5,o),
(487,-5,cs)
);
}
);
width = 604;
}
);
leftKerningGroup = onehalf;
unicode = 189;
},
{
glyphname = threequarters;
layers = (
{
hints = (
{
horizontal = 1;
place = (-9,21);
target = up;
type = BottomGhost;
},
{
horizontal = 1;
place = (-6,21);
target = up;
type = BottomGhost;
},
{
horizontal = 1;
place = (130,72);
type = Stem;
},
{
horizontal = 1;
place = (323,70);
type = Stem;
},
{
horizontal = 1;
place = (608,70);
type = Stem;
},
{
place = (157,70);
type = Stem;
},
{
place = (172,73);
type = Stem;
},
{
place = (405,77);
type = Stem;
},
{
place = (508,71);
type = Stem;
}
);
layerId = "986E1480-5ACC-463A-8EAE-4F79F3B98EB6";
shapes = (
{
closed = 1;
nodes = (
(245,460,o),
(226,496,o),
(189,515,c),
(213,534,o),
(227,562,o),
(227,590,cs),
(227,644,o),
(186,678,o),
(133,678,cs),
(81,678,o),
(30,641,o),
(30,579,cs),
(30,554,o),
(47,542,o),
(64,542,cs),
(80,542,o),
(96,553,o),
(99,578,c),
(100,598,o),
(115,608,o),
(129,608,cs),
(144,608,o),
(157,598,o),
(157,581,cs),
(157,561,o),
(144,542,o),
(124,535,cs),
(108,530,o),
(100,517,o),
(100,504,cs),
(100,489,o),
(111,474,o),
(130,474,cs),
(157,474,o),
(172,455,o),
(172,435,cs),
(172,408,o),
(155,393,o),
(135,393,cs),
(121,393,o),
(106,400,o),
(93,415,cs),
(84,427,o),
(72,433,o),
(62,433,cs),
(44,433,o),
(28,418,o),
(28,398,cs),
(28,360,o),
(81,323,o),
(132,323,cs),
(207,323,o),
(245,373,o),
(245,424,cs)
);
},
{
closed = 1;
nodes = (
(527,663,o),
(513,678,o),
(493,678,cs),
(481,678,o),
(467,672,o),
(454,658,cs),
(351,547,o),
(206,178,o),
(116,67,cs),
(106,55,o),
(102,42,o),
(102,32,cs),
(102,10,o),
(118,-6,o),
(138,-6,cs),
(151,-6,o),
(165,1,o),
(177,17,cs),
(271,142,o),
(409,483,o),
(512,606,cs),
(523,619,o),
(527,631,o),
(527,642,cs)
);
},
{
closed = 1;
nodes = (
(606,183,o),
(597,186,o),
(588,189,c),
(594,234,o),
(600,258,o),
(600,271,cs),
(600,295,o),
(582,308,o),
(563,308,cs),
(548,308,o),
(532,298,o),
(527,276,cs),
(522,253,o),
(518,228,o),
(515,202,c),
(512,202,ls),
(498,202,o),
(484,200,o),
(470,196,c),
(477,221,o),
(482,250,o),
(482,283,cs),
(482,323,o),
(478,361,o),
(442,361,cs),
(423,361,o),
(405,348,o),
(405,322,cs),
(405,306,o),
(409,271,o),
(409,260,cs),
(409,228,o),
(403,204,o),
(391,187,cs),
(382,174,o),
(377,161,o),
(377,150,cs),
(377,129,o),
(393,115,o),
(417,115,cs),
(434,115,o),
(463,130,o),
(507,130,c),
(508,130,l),
(506,96,o),
(505,62,o),
(506,33,cs),
(507,5,o),
(526,-9,o),
(543,-9,cs),
(562,-9,o),
(579,5,o),
(579,33,cs),
(579,64,o),
(580,91,o),
(581,115,c),
(593,111,o),
(603,108,o),
(611,108,cs),
(631,108,o),
(645,123,o),
(645,140,cs),
(645,154,o),
(636,170,o),
(615,179,cs)
);
}
);
width = 675;
}
);
leftKerningGroup = onehalf;
unicode = 190;
},
{
glyphname = questiondown;
layers = (
{
hints = (
{
horizontal = 1;
place = (-256,87);
type = Stem;
},
{
horizontal = 1;
place = (356,121);
type = Stem;
},
{
place = (36,94);
type = Stem;
},
{
place = (180,120);
type = Stem;
},
{
place = (194,91);
type = Stem;
},
{
place = (290,93);
type = Stem;
}
);
layerId = "986E1480-5ACC-463A-8EAE-4F79F3B98EB6";
shapes = (
{
closed = 1;
nodes = (
(206,477,o),
(180,450,o),
(180,416,cs),
(180,382,o),
(206,356,o),
(240,356,cs),
(274,356,o),
(300,382,o),
(300,416,cs),
(300,450,o),
(274,477,o),
(240,477,cs)
);
},
{
closed = 1;
nodes = (
(216,292,o),
(194,274,o),
(194,239,cs),
(194,158,o),
(161,129,o),
(126,92,cs),
(76,40,o),
(36,-4,o),
(36,-92,cs),
(36,-195,o),
(120,-256,o),
(212,-256,cs),
(303,-256,o),
(383,-199,o),
(383,-94,cs),
(383,-53,o),
(370,-13,o),
(330,-13,cs),
(307,-13,o),
(286,-28,o),
(286,-57,cs),
(286,-62,o),
(290,-83,o),
(290,-94,cs),
(290,-144,o),
(251,-169,o),
(212,-169,cs),
(171,-169,o),
(130,-142,o),
(130,-86,cs),
(130,-42,o),
(152,-4,o),
(190,31,c),
(227,67,o),
(285,115,o),
(285,239,cs),
(285,274,o),
(262,292,o),
(240,292,cs)
);
}
);
width = 418;
}
);
unicode = 191;
},
{
glyphname = Agrave;
layers = (
{
anchors = (
{
name = t.uni0302_2;
position = "{643, 703}";
}
);
hints = (
{
horizontal = 1;
place = (-11,87);
type = Stem;
},
{
horizontal = 1;
place = (-9,85);
type = Stem;
},
{
horizontal = 1;
place = (250,86);
type = Stem;
},
{
horizontal = 1;
place = (255,91);
type = Stem;
},
{
horizontal = 1;
place = (605,115);
type = Stem;
},
{
place = (557,96);
type = Stem;
}
);
layerId = "986E1480-5ACC-463A-8EAE-4F79F3B98EB6";
shapes = (
{
closed = 1;
nodes = (
(630,779,ls),
(642,766,o),
(656,761,o),
(668,761,cs),
(689,761,o),
(706,778,o),
(706,800,cs),
(706,812,o),
(701,825,o),
(689,838,cs),
(628,902,ls),
(615,915,o),
(601,920,o),
(589,920,cs),
(567,920,o),
(550,904,o),
(550,882,cs),
(550,870,o),
(556,857,o),
(568,844,cs)
);
},
{
closed = 1;
nodes = (
(791,179,o),
(737,76,o),
(695,76,cs),
(673,76,o),
(653,96,o),
(653,179,cs),
(653,383,o),
(705,597,o),
(705,661,cs),
(705,698,o),
(684,720,o),
(647,720,cs),
(554,720,o),
(505,620,o),
(395,369,c),
(380,337,l),
(349,336,o),
(317,336,o),
(285,336,cs),
(250,336,o),
(232,315,o),
(232,294,cs),
(232,272,o),
(251,250,o),
(289,250,cs),
(303,250,o),
(319,250,o),
(337,251,c),
(273,133,o),
(216,76,o),
(173,76,cs),
(134,76,o),
(117,117,o),
(84,117,cs),
(62,117,o),
(44,99,o),
(44,74,cs),
(44,33,o),
(96,-11,o),
(173,-11,cs),
(287,-11,o),
(376,111,o),
(446,255,c),
(484,257,o),
(524,261,o),
(559,265,c),
(558,238,o),
(557,211,o),
(557,182,cs),
(557,53,o),
(612,-9,o),
(688,-9,cs),
(771,-9,o),
(832,69,o),
(894,234,cs),
(896,240,o),
(897,245,o),
(897,250,cs),
(897,272,o),
(878,287,o),
(859,287,cs),
(845,287,o),
(830,279,o),
(823,260,cs)
);
},
{
closed = 1;
nodes = (
(492,357,ls),
(561,520,o),
(595,605,o),
(606,605,cs),
(617,605,o),
(584,504,o),
(567,351,c),
(540,347,o),
(513,344,o),
(486,342,c)
);
}
);
width = 812;
}
);
leftKerningGroup = A2;
rightKerningGroup = A;
unicode = 192;
},
{
glyphname = Aacute;
layers = (
{
anchors = (
{
name = t.uni0302_2;
position = "{643, 703}";
}
);
hints = (
{
horizontal = 1;
place = (-11,87);
type = Stem;
},
{
horizontal = 1;
place = (-9,85);
type = Stem;
},
{
horizontal = 1;
place = (250,86);
type = Stem;
},
{
horizontal = 1;
place = (255,91);
type = Stem;
},
{
horizontal = 1;
place = (605,115);
type = Stem;
},
{
place = (557,96);
type = Stem;
}
);
layerId = "986E1480-5ACC-463A-8EAE-4F79F3B98EB6";
shapes = (
{
closed = 1;
nodes = (
(750,844,ls),
(762,857,o),
(767,870,o),
(767,882,cs),
(767,904,o),
(750,921,o),
(729,921,cs),
(717,921,o),
(703,915,o),
(690,902,cs),
(629,838,ls),
(617,825,o),
(612,812,o),
(612,800,cs),
(612,778,o),
(629,761,o),
(650,761,cs),
(662,761,o),
(676,766,o),
(688,779,cs)
);
},
{
closed = 1;
nodes = (
(791,179,o),
(737,76,o),
(695,76,cs),
(673,76,o),
(653,96,o),
(653,179,cs),
(653,383,o),
(705,597,o),
(705,661,cs),
(705,698,o),
(684,720,o),
(647,720,cs),
(554,720,o),
(505,620,o),
(395,369,c),
(380,337,l),
(349,336,o),
(317,336,o),
(285,336,cs),
(250,336,o),
(232,315,o),
(232,294,cs),
(232,272,o),
(251,250,o),
(289,250,cs),
(303,250,o),
(319,250,o),
(337,251,c),
(273,133,o),
(216,76,o),
(173,76,cs),
(134,76,o),
(117,117,o),
(84,117,cs),
(62,117,o),
(44,99,o),
(44,74,cs),
(44,33,o),
(96,-11,o),
(173,-11,cs),
(287,-11,o),
(376,111,o),
(446,255,c),
(484,257,o),
(524,261,o),
(559,265,c),
(558,238,o),
(557,211,o),
(557,182,cs),
(557,53,o),
(612,-9,o),
(688,-9,cs),
(771,-9,o),
(832,69,o),
(894,234,cs),
(896,240,o),
(897,245,o),
(897,250,cs),
(897,272,o),
(878,287,o),
(859,287,cs),
(845,287,o),
(830,279,o),
(823,260,cs)
);
},
{
closed = 1;
nodes = (
(492,357,ls),
(561,520,o),
(595,605,o),
(606,605,cs),
(617,605,o),
(584,504,o),
(567,351,c),
(540,347,o),
(513,344,o),
(486,342,c)
);
}
);
width = 812;
}
);
leftKerningGroup = A2;
rightKerningGroup = A;
unicode = 193;
},
{
glyphname = Acircumflex;
layers = (
{
anchors = (
{
name = t.uni0302_2;
position = "{643, 703}";
}
);
hints = (
{
horizontal = 1;
place = (-11,87);
type = Stem;
},
{
horizontal = 1;
place = (-9,85);
type = Stem;
},
{
horizontal = 1;
place = (250,86);
type = Stem;
},
{
horizontal = 1;
place = (255,91);
type = Stem;
},
{
horizontal = 1;
place = (605,115);
type = Stem;
},
{
place = (557,96);
type = Stem;
}
);
layerId = "986E1480-5ACC-463A-8EAE-4F79F3B98EB6";
shapes = (
{
closed = 1;
nodes = (
(651,808,ls),
(656,811,o),
(660,812,o),
(664,812,cs),
(668,812,o),
(673,810,o),
(677,806,cs),
(699,781,ls),
(710,769,o),
(722,764,o),
(733,764,cs),
(754,764,o),
(771,781,o),
(771,802,cs),
(771,812,o),
(768,822,o),
(759,832,cs),
(701,897,ls),
(693,906,o),
(685,911,o),
(675,911,cs),
(668,911,o),
(661,908,o),
(653,903,cs),
(565,843,ls),
(547,831,o),
(540,817,o),
(540,804,cs),
(540,784,o),
(557,767,o),
(578,767,cs),
(587,767,o),
(596,770,o),
(605,776,cs)
);
},
{
closed = 1;
nodes = (
(791,179,o),
(737,76,o),
(695,76,cs),
(673,76,o),
(653,96,o),
(653,179,cs),
(653,383,o),
(705,597,o),
(705,661,cs),
(705,698,o),
(684,720,o),
(647,720,cs),
(554,720,o),
(505,620,o),
(395,369,c),
(380,337,l),
(349,336,o),
(317,336,o),
(285,336,cs),
(250,336,o),
(232,315,o),
(232,294,cs),
(232,272,o),
(251,250,o),
(289,250,cs),
(303,250,o),
(319,250,o),
(337,251,c),
(273,133,o),
(216,76,o),
(173,76,cs),
(134,76,o),
(117,117,o),
(84,117,cs),
(62,117,o),
(44,99,o),
(44,74,cs),
(44,33,o),
(96,-11,o),
(173,-11,cs),
(287,-11,o),
(376,111,o),
(446,255,c),
(484,257,o),
(524,261,o),
(559,265,c),
(558,238,o),
(557,211,o),
(557,182,cs),
(557,53,o),
(612,-9,o),
(688,-9,cs),
(771,-9,o),
(832,69,o),
(894,234,cs),
(896,240,o),
(897,245,o),
(897,250,cs),
(897,272,o),
(878,287,o),
(859,287,cs),
(845,287,o),
(830,279,o),
(823,260,cs)
);
},
{
closed = 1;
nodes = (
(492,357,ls),
(561,520,o),
(595,605,o),
(606,605,cs),
(617,605,o),
(584,504,o),
(567,351,c),
(540,347,o),
(513,344,o),
(486,342,c)
);
}
);
width = 812;
}
);
leftKerningGroup = A2;
rightKerningGroup = A;
unicode = 194;
},
{
glyphname = Atilde;
layers = (
{
anchors = (
{
name = t.uni0302_2;
position = "{643, 703}";
}
);
hints = (
{
horizontal = 1;
place = (-11,87);
type = Stem;
},
{
horizontal = 1;
place = (-9,85);
type = Stem;
},
{
horizontal = 1;
place = (250,86);
type = Stem;
},
{
horizontal = 1;
place = (255,91);
type = Stem;
},
{
horizontal = 1;
place = (605,115);
type = Stem;
},
{
horizontal = 1;
place = (773,81);
type = Stem;
},
{
horizontal = 1;
place = (803,83);
type = Stem;
},
{
place = (557,96);
type = Stem;
}
);
layerId = "986E1480-5ACC-463A-8EAE-4F79F3B98EB6";
shapes = (
{
closed = 1;
nodes = (
(598,798,o),
(604,803,o),
(610,803,cs),
(623,803,o),
(668,773,o),
(699,773,cs),
(724,773,o),
(745,784,o),
(764,806,cs),
(774,818,o),
(778,830,o),
(778,841,cs),
(778,864,o),
(759,882,o),
(739,882,cs),
(729,882,o),
(718,877,o),
(709,866,cs),
(701,857,o),
(696,854,o),
(691,854,cs),
(678,854,o),
(632,886,o),
(602,886,cs),
(577,886,o),
(550,873,o),
(534,851,cs),
(526,840,o),
(522,828,o),
(522,818,cs),
(522,796,o),
(539,778,o),
(560,778,cs),
(570,778,o),
(582,782,o),
(592,793,c)
);
},
{
closed = 1;
nodes = (
(791,179,o),
(737,76,o),
(695,76,cs),
(673,76,o),
(653,96,o),
(653,179,cs),
(653,383,o),
(705,597,o),
(705,661,cs),
(705,698,o),
(684,720,o),
(647,720,cs),
(554,720,o),
(505,620,o),
(395,369,c),
(380,337,l),
(349,336,o),
(317,336,o),
(285,336,cs),
(250,336,o),
(232,315,o),
(232,294,cs),
(232,272,o),
(251,250,o),
(289,250,cs),
(303,250,o),
(319,250,o),
(337,251,c),
(273,133,o),
(216,76,o),
(173,76,cs),
(134,76,o),
(117,117,o),
(84,117,cs),
(62,117,o),
(44,99,o),
(44,74,cs),
(44,33,o),
(96,-11,o),
(173,-11,cs),
(287,-11,o),
(376,111,o),
(446,255,c),
(484,257,o),
(524,261,o),
(559,265,c),
(558,238,o),
(557,211,o),
(557,182,cs),
(557,53,o),
(612,-9,o),
(688,-9,cs),
(771,-9,o),
(832,69,o),
(894,234,cs),
(896,240,o),
(897,245,o),
(897,250,cs),
(897,272,o),
(878,287,o),
(859,287,cs),
(845,287,o),
(830,279,o),
(823,260,cs)
);
},
{
closed = 1;
nodes = (
(492,357,ls),
(561,520,o),
(595,605,o),
(606,605,cs),
(617,605,o),
(584,504,o),
(567,351,c),
(540,347,o),
(513,344,o),
(486,342,c)
);
}
);
width = 812;
}
);
leftKerningGroup = A2;
rightKerningGroup = A;
unicode = 195;
},
{
glyphname = Adieresis;
layers = (
{
anchors = (
{
name = t.uni0302_2;
position = "{643, 703}";
}
);
hints = (
{
horizontal = 1;
place = (-11,87);
type = Stem;
},
{
horizontal = 1;
place = (-9,85);
type = Stem;
},
{
horizontal = 1;
place = (250,86);
type = Stem;
},
{
horizontal = 1;
place = (255,91);
type = Stem;
},
{
horizontal = 1;
place = (605,115);
type = Stem;
},
{
horizontal = 1;
place = (770,101);
type = Stem;
},
{
place = (538,101);
type = Stem;
},
{
place = (557,96);
type = Stem;
},
{
place = (676,101);
type = Stem;
}
);
layerId = "986E1480-5ACC-463A-8EAE-4F79F3B98EB6";
shapes = (
{
closed = 1;
nodes = (
(616,770,o),
(639,793,o),
(639,820,cs),
(639,848,o),
(616,871,o),
(588,871,cs),
(561,871,o),
(538,848,o),
(538,820,cs),
(538,793,o),
(561,770,o),
(588,770,cs)
);
},
{
closed = 1;
nodes = (
(754,770,o),
(777,793,o),
(777,820,cs),
(777,848,o),
(754,871,o),
(727,871,cs),
(699,871,o),
(676,848,o),
(676,820,cs),
(676,793,o),
(699,770,o),
(727,770,cs)
);
},
{
closed = 1;
nodes = (
(791,179,o),
(737,76,o),
(695,76,cs),
(673,76,o),
(653,96,o),
(653,179,cs),
(653,383,o),
(705,597,o),
(705,661,cs),
(705,698,o),
(684,720,o),
(647,720,cs),
(554,720,o),
(505,620,o),
(395,369,c),
(380,337,l),
(349,336,o),
(317,336,o),
(285,336,cs),
(250,336,o),
(232,315,o),
(232,294,cs),
(232,272,o),
(251,250,o),
(289,250,cs),
(303,250,o),
(319,250,o),
(337,251,c),
(273,133,o),
(216,76,o),
(173,76,cs),
(134,76,o),
(117,117,o),
(84,117,cs),
(62,117,o),
(44,99,o),
(44,74,cs),
(44,33,o),
(96,-11,o),
(173,-11,cs),
(287,-11,o),
(376,111,o),
(446,255,c),
(484,257,o),
(524,261,o),
(559,265,c),
(558,238,o),
(557,211,o),
(557,182,cs),
(557,53,o),
(612,-9,o),
(688,-9,cs),
(771,-9,o),
(832,69,o),
(894,234,cs),
(896,240,o),
(897,245,o),
(897,250,cs),
(897,272,o),
(878,287,o),
(859,287,cs),
(845,287,o),
(830,279,o),
(823,260,cs)
);
},
{
closed = 1;
nodes = (
(492,357,ls),
(561,520,o),
(595,605,o),
(606,605,cs),
(617,605,o),
(584,504,o),
(567,351,c),
(540,347,o),
(513,344,o),
(486,342,c)
);
}
);
width = 812;
}
);
leftKerningGroup = A2;
rightKerningGroup = A;
unicode = 196;
},
{
glyphname = Aring;
layers = (
{
anchors = (
{
name = t.uni0302_2;
position = "{643, 703}";
}
);
hints = (
{
horizontal = 1;
place = (-11,87);
type = Stem;
},
{
horizontal = 1;
place = (-9,85);
type = Stem;
},
{
horizontal = 1;
place = (250,86);
type = Stem;
},
{
horizontal = 1;
place = (255,91);
type = Stem;
},
{
horizontal = 1;
place = (605,115);
type = Stem;
},
{
horizontal = 1;
place = (751,66);
type = Stem;
},
{
horizontal = 1;
place = (864,67);
type = Stem;
},
{
place = (557,96);
type = Stem;
},
{
place = (564,68);
type = Stem;
},
{
place = (679,69);
type = Stem;
}
);
layerId = "986E1480-5ACC-463A-8EAE-4F79F3B98EB6";
shapes = (
{
closed = 1;
nodes = (
(707,751,o),
(748,792,o),
(748,844,cs),
(748,895,o),
(714,931,o),
(663,931,cs),
(607,931,o),
(564,888,o),
(564,833,cs),
(564,785,o),
(600,751,o),
(652,751,cs)
);
},
{
closed = 1;
nodes = (
(670,864,o),
(679,857,o),
(679,844,cs),
(679,827,o),
(667,817,o),
(653,817,cs),
(642,817,o),
(632,825,o),
(632,838,cs),
(632,854,o),
(645,864,o),
(659,864,cs)
);
},
{
closed = 1;
nodes = (
(791,179,o),
(737,76,o),
(695,76,cs),
(673,76,o),
(653,96,o),
(653,179,cs),
(653,383,o),
(705,597,o),
(705,661,cs),
(705,698,o),
(684,720,o),
(647,720,cs),
(554,720,o),
(505,620,o),
(395,369,c),
(380,337,l),
(349,336,o),
(317,336,o),
(285,336,cs),
(250,336,o),
(232,315,o),
(232,294,cs),
(232,272,o),
(251,250,o),
(289,250,cs),
(303,250,o),
(319,250,o),
(337,251,c),
(273,133,o),
(216,76,o),
(173,76,cs),
(134,76,o),
(117,117,o),
(84,117,cs),
(62,117,o),
(44,99,o),
(44,74,cs),
(44,33,o),
(96,-11,o),
(173,-11,cs),
(287,-11,o),
(376,111,o),
(446,255,c),
(484,257,o),
(524,261,o),
(559,265,c),
(558,238,o),
(557,211,o),
(557,182,cs),
(557,53,o),
(612,-9,o),
(688,-9,cs),
(771,-9,o),
(832,69,o),
(894,234,cs),
(896,240,o),
(897,245,o),
(897,250,cs),
(897,272,o),
(878,287,o),
(859,287,cs),
(845,287,o),
(830,279,o),
(823,260,cs)
);
},
{
closed = 1;
nodes = (
(492,357,ls),
(561,520,o),
(595,605,o),
(606,605,cs),
(617,605,o),
(584,504,o),
(567,351,c),
(540,347,o),
(513,344,o),
(486,342,c)
);
}
);
width = 812;
}
);
leftKerningGroup = A2;
rightKerningGroup = A;
unicode = 197;
},
{
glyphname = AE;
layers = (
{
anchors = (
{
name = t.uni0302_2;
position = "{714, 700}";
}
);
hints = (
{
horizontal = 1;
place = (-15,88);
type = Stem;
},
{
horizontal = 1;
place = (-9,90);
type = Stem;
},
{
horizontal = 1;
place = (223,86);
type = Stem;
},
{
horizontal = 1;
place = (227,87);
type = Stem;
},
{
horizontal = 1;
place = (589,130);
type = Stem;
},
{
horizontal = 1;
place = (633,89);
type = Stem;
},
{
place = (574,107);
type = Stem;
},
{
place = (599,97);
type = Stem;
},
{
place = (718,93);
type = Stem;
},
{
place = (977,89);
type = Stem;
}
);
layerId = "986E1480-5ACC-463A-8EAE-4F79F3B98EB6";
shapes = (
{
closed = 1;
nodes = (
(1011,152,o),
(942,73,o),
(836,73,cs),
(736,73,o),
(681,131,o),
(681,201,cs),
(681,288,o),
(748,357,o),
(885,357,cs),
(916,357,o),
(933,377,o),
(933,397,cs),
(933,414,o),
(921,431,o),
(897,439,cs),
(853,454,o),
(811,480,o),
(811,543,cs),
(811,597,o),
(846,633,o),
(899,633,cs),
(942,633,o),
(978,605,o),
(978,563,cs),
(978,557,o),
(977,550,o),
(977,543,cs),
(977,538,o),
(978,533,o),
(979,530,cs),
(987,509,o),
(1000,500,o),
(1019,500,cs),
(1041,500,o),
(1060,517,o),
(1064,549,cs),
(1065,557,o),
(1066,564,o),
(1066,572,cs),
(1066,662,o),
(991,722,o),
(900,722,cs),
(796,722,o),
(718,649,o),
(718,550,cs),
(718,489,o),
(741,454,o),
(778,423,c),
(738,413,o),
(695,392,o),
(666,361,c),
(675,477,o),
(696,625,o),
(696,672,cs),
(696,702,o),
(677,719,o),
(645,719,cs),
(546,719,o),
(492,591,o),
(396,369,cs),
(387,348,o),
(378,328,o),
(369,310,c),
(341,309,o),
(313,309,o),
(285,309,cs),
(250,309,o),
(232,288,o),
(232,267,cs),
(232,245,o),
(251,223,o),
(289,223,cs),
(323,223,l),
(266,126,o),
(214,81,o),
(172,81,cs),
(133,81,o),
(119,123,o),
(84,123,cs),
(62,123,o),
(44,103,o),
(44,79,cs),
(44,34,o),
(98,-9,o),
(172,-9,cs),
(284,-9,o),
(370,98,o),
(436,227,c),
(483,230,o),
(531,234,o),
(574,239,c),
(574,231,ls),
(574,81,o),
(675,-15,o),
(830,-15,cs),
(955,-15,o),
(1061,62,o),
(1122,234,cs),
(1124,241,o),
(1125,247,o),
(1125,253,cs),
(1125,276,o),
(1108,292,o),
(1089,292,cs),
(1074,292,o),
(1059,282,o),
(1051,260,cs)
);
},
{
closed = 1;
nodes = (
(487,339,o),
(497,365,o),
(507,390,cs),
(562,535,o),
(585,589,o),
(596,589,cs),
(598,589,o),
(599,585,o),
(599,578,cs),
(599,548,o),
(582,459,o),
(576,325,c),
(544,320,o),
(511,316,o),
(476,314,c)
);
}
);
width = 1040;
}
);
leftKerningGroup = A2;
unicode = 198;
},
{
glyphname = Ccedilla;
layers = (
{
anchors = (
{
name = t.uni0302_2;
position = "{430, 703}";
},
{
name = b.uni0326_1_2;
position = "{354, 3}";
}
);
hints = (
{
horizontal = 1;
place = (-205,74);
type = Stem;
},
{
horizontal = 1;
place = (-11,21);
target = up;
type = BottomGhost;
},
{
horizontal = 1;
place = (633,84);
type = Stem;
},
{
place = (87,97);
type = Stem;
},
{
place = (356,79);
type = Stem;
},
{
place = (466,97);
type = Stem;
}
);
layerId = "986E1480-5ACC-463A-8EAE-4F79F3B98EB6";
shapes = (
{
closed = 1;
nodes = (
(527,135,o),
(450,72,o),
(364,72,cs),
(264,72,o),
(184,149,o),
(184,272,cs),
(184,479,o),
(314,633,o),
(417,633,cs),
(449,633,o),
(466,616,o),
(466,584,cs),
(466,536,o),
(445,516,o),
(445,488,cs),
(445,463,o),
(466,444,o),
(489,444,cs),
(507,444,o),
(527,455,o),
(539,480,cs),
(554,512,o),
(563,550,o),
(563,584,cs),
(563,662,o),
(504,717,o),
(420,717,cs),
(259,717,o),
(87,531,o),
(87,272,cs),
(87,109,o),
(191,3,o),
(320,-11,c),
(313,-31,o),
(310,-45,o),
(310,-57,cs),
(310,-73,o),
(324,-85,o),
(341,-95,cs),
(352,-102,o),
(356,-110,o),
(356,-116,cs),
(356,-124,o),
(350,-131,o),
(339,-131,cs),
(332,-131,o),
(323,-127,o),
(312,-123,c),
(305,-119,o),
(298,-118,o),
(292,-118,cs),
(273,-118,o),
(260,-134,o),
(260,-152,cs),
(260,-165,o),
(268,-180,o),
(285,-190,cs),
(303,-200,o),
(323,-205,o),
(343,-205,cs),
(401,-205,o),
(435,-161,o),
(435,-119,cs),
(435,-98,o),
(426,-77,o),
(408,-63,cs),
(394,-53,o),
(385,-47,o),
(385,-39,cs),
(385,-34,o),
(389,-26,o),
(395,-10,c),
(502,4,o),
(590,74,o),
(647,234,cs),
(649,240,o),
(650,246,o),
(650,251,cs),
(650,273,o),
(632,287,o),
(613,287,cs),
(598,287,o),
(583,279,o),
(576,260,cs)
);
}
);
width = 565;
}
);
leftKerningGroup = C;
rightKerningGroup = A;
unicode = 199;
},
{
glyphname = Egrave;
layers = (
{
anchors = (
{
name = t.uni0302_2;
position = "{343, 703}";
}
);
hints = (
{
horizontal = 1;
place = (-16,86);
type = Stem;
},
{
horizontal = 1;
place = (347,86);
type = Stem;
},
{
horizontal = 1;
place = (638,84);
type = Stem;
},
{
place = (107,97);
type = Stem;
},
{
place = (159,97);
type = Stem;
},
{
place = (420,92);
type = Stem;
}
);
layerId = "986E1480-5ACC-463A-8EAE-4F79F3B98EB6";
shapes = (
{
closed = 1;
nodes = (
(330,779,ls),
(342,766,o),
(356,761,o),
(368,761,cs),
(389,761,o),
(406,778,o),
(406,800,cs),
(406,812,o),
(401,825,o),
(389,838,cs),
(328,902,ls),
(315,915,o),
(301,920,o),
(289,920,cs),
(267,920,o),
(250,904,o),
(250,882,cs),
(250,870,o),
(256,857,o),
(268,844,cs)
);
},
{
closed = 1;
nodes = (
(506,160,o),
(442,70,o),
(339,70,cs),
(257,70,o),
(204,123,o),
(204,199,cs),
(204,282,o),
(268,347,o),
(371,347,cs),
(403,347,o),
(422,366,o),
(422,389,cs),
(422,413,o),
(402,433,o),
(371,433,cs),
(295,433,o),
(256,475,o),
(256,545,cs),
(256,603,o),
(292,638,o),
(344,638,cs),
(388,638,o),
(420,610,o),
(420,567,cs),
(420,556,o),
(418,544,o),
(418,529,cs),
(418,508,o),
(437,492,o),
(460,492,cs),
(485,492,o),
(512,514,o),
(512,573,cs),
(512,666,o),
(433,722,o),
(345,722,cs),
(237,722,o),
(159,648,o),
(159,549,cs),
(159,477,o),
(197,431,o),
(241,398,c),
(160,361,o),
(107,285,o),
(107,196,cs),
(107,72,o),
(198,-16,o),
(333,-16,cs),
(454,-16,o),
(545,48,o),
(614,234,cs),
(616,240,o),
(617,246,o),
(617,252,cs),
(617,275,o),
(599,291,o),
(580,291,cs),
(566,291,o),
(551,282,o),
(543,260,cs)
);
}
);
width = 532;
}
);
leftKerningGroup = E;
rightKerningGroup = A;
unicode = 200;
},
{
glyphname = Eacute;
layers = (
{
anchors = (
{
name = t.uni0302_2;
position = "{343, 703}";
}
);
hints = (
{
horizontal = 1;
place = (-16,86);
type = Stem;
},
{
horizontal = 1;
place = (347,86);
type = Stem;
},
{
horizontal = 1;
place = (638,84);
type = Stem;
},
{
place = (107,97);
type = Stem;
},
{
place = (159,97);
type = Stem;
},
{
place = (420,92);
type = Stem;
}
);
layerId = "986E1480-5ACC-463A-8EAE-4F79F3B98EB6";
shapes = (
{
closed = 1;
nodes = (
(450,844,ls),
(462,857,o),
(467,870,o),
(467,882,cs),
(467,904,o),
(450,921,o),
(429,921,cs),
(417,921,o),
(403,915,o),
(390,902,cs),
(329,838,ls),
(317,825,o),
(312,812,o),
(312,800,cs),
(312,778,o),
(329,761,o),
(350,761,cs),
(362,761,o),
(376,766,o),
(388,779,cs)
);
},
{
closed = 1;
nodes = (
(506,160,o),
(442,70,o),
(339,70,cs),
(257,70,o),
(204,123,o),
(204,199,cs),
(204,282,o),
(268,347,o),
(371,347,cs),
(403,347,o),
(422,366,o),
(422,389,cs),
(422,413,o),
(402,433,o),
(371,433,cs),
(295,433,o),
(256,475,o),
(256,545,cs),
(256,603,o),
(292,638,o),
(344,638,cs),
(388,638,o),
(420,610,o),
(420,567,cs),
(420,556,o),
(418,544,o),
(418,529,cs),
(418,508,o),
(437,492,o),
(460,492,cs),
(485,492,o),
(512,514,o),
(512,573,cs),
(512,666,o),
(433,722,o),
(345,722,cs),
(237,722,o),
(159,648,o),
(159,549,cs),
(159,477,o),
(197,431,o),
(241,398,c),
(160,361,o),
(107,285,o),
(107,196,cs),
(107,72,o),
(198,-16,o),
(333,-16,cs),
(454,-16,o),
(545,48,o),
(614,234,cs),
(616,240,o),
(617,246,o),
(617,252,cs),
(617,275,o),
(599,291,o),
(580,291,cs),
(566,291,o),
(551,282,o),
(543,260,cs)
);
}
);
width = 532;
}
);
leftKerningGroup = E;
rightKerningGroup = A;
unicode = 201;
},
{
glyphname = Ecircumflex;
layers = (
{
anchors = (
{
name = t.uni0302_2;
position = "{343, 703}";
}
);
hints = (
{
horizontal = 1;
place = (-16,86);
type = Stem;
},
{
horizontal = 1;
place = (347,86);
type = Stem;
},
{
horizontal = 1;
place = (638,84);
type = Stem;
},
{
place = (107,97);
type = Stem;
},
{
place = (159,97);
type = Stem;
},
{
place = (420,92);
type = Stem;
}
);
layerId = "986E1480-5ACC-463A-8EAE-4F79F3B98EB6";
shapes = (
{
closed = 1;
nodes = (
(351,808,ls),
(356,811,o),
(360,812,o),
(364,812,cs),
(368,812,o),
(373,810,o),
(377,806,cs),
(399,781,ls),
(410,769,o),
(422,764,o),
(433,764,cs),
(454,764,o),
(471,781,o),
(471,802,cs),
(471,812,o),
(468,822,o),
(459,832,cs),
(401,897,ls),
(393,906,o),
(385,911,o),
(375,911,cs),
(368,911,o),
(361,908,o),
(353,903,cs),
(265,843,ls),
(247,831,o),
(240,817,o),
(240,804,cs),
(240,784,o),
(257,767,o),
(278,767,cs),
(287,767,o),
(296,770,o),
(305,776,cs)
);
},
{
closed = 1;
nodes = (
(506,160,o),
(442,70,o),
(339,70,cs),
(257,70,o),
(204,123,o),
(204,199,cs),
(204,282,o),
(268,347,o),
(371,347,cs),
(403,347,o),
(422,366,o),
(422,389,cs),
(422,413,o),
(402,433,o),
(371,433,cs),
(295,433,o),
(256,475,o),
(256,545,cs),
(256,603,o),
(292,638,o),
(344,638,cs),
(388,638,o),
(420,610,o),
(420,567,cs),
(420,556,o),
(418,544,o),
(418,529,cs),
(418,508,o),
(437,492,o),
(460,492,cs),
(485,492,o),
(512,514,o),
(512,573,cs),
(512,666,o),
(433,722,o),
(345,722,cs),
(237,722,o),
(159,648,o),
(159,549,cs),
(159,477,o),
(197,431,o),
(241,398,c),
(160,361,o),
(107,285,o),
(107,196,cs),
(107,72,o),
(198,-16,o),
(333,-16,cs),
(454,-16,o),
(545,48,o),
(614,234,cs),
(616,240,o),
(617,246,o),
(617,252,cs),
(617,275,o),
(599,291,o),
(580,291,cs),
(566,291,o),
(551,282,o),
(543,260,cs)
);
}
);
width = 532;
}
);
leftKerningGroup = E;
rightKerningGroup = A;
unicode = 202;
},
{
glyphname = Edieresis;
layers = (
{
anchors = (
{
name = t.uni0302_2;
position = "{343, 703}";
}
);
hints = (
{
horizontal = 1;
place = (-16,86);
type = Stem;
},
{
horizontal = 1;
place = (347,86);
type = Stem;
},
{
horizontal = 1;
place = (638,84);
type = Stem;
},
{
horizontal = 1;
place = (770,101);
type = Stem;
},
{
place = (107,97);
type = Stem;
},
{
place = (159,97);
type = Stem;
},
{
place = (238,101);
type = Stem;
},
{
place = (376,101);
type = Stem;
},
{
place = (420,92);
type = Stem;
}
);
layerId = "986E1480-5ACC-463A-8EAE-4F79F3B98EB6";
shapes = (
{
closed = 1;
nodes = (
(316,770,o),
(339,793,o),
(339,820,cs),
(339,848,o),
(316,871,o),
(288,871,cs),
(261,871,o),
(238,848,o),
(238,820,cs),
(238,793,o),
(261,770,o),
(288,770,cs)
);
},
{
closed = 1;
nodes = (
(454,770,o),
(477,793,o),
(477,820,cs),
(477,848,o),
(454,871,o),
(427,871,cs),
(399,871,o),
(376,848,o),
(376,820,cs),
(376,793,o),
(399,770,o),
(427,770,cs)
);
},
{
closed = 1;
nodes = (
(506,160,o),
(442,70,o),
(339,70,cs),
(257,70,o),
(204,123,o),
(204,199,cs),
(204,282,o),
(268,347,o),
(371,347,cs),
(403,347,o),
(422,366,o),
(422,389,cs),
(422,413,o),
(402,433,o),
(371,433,cs),
(295,433,o),
(256,475,o),
(256,545,cs),
(256,603,o),
(292,638,o),
(344,638,cs),
(388,638,o),
(420,610,o),
(420,567,cs),
(420,556,o),
(418,544,o),
(418,529,cs),
(418,508,o),
(437,492,o),
(460,492,cs),
(485,492,o),
(512,514,o),
(512,573,cs),
(512,666,o),
(433,722,o),
(345,722,cs),
(237,722,o),
(159,648,o),
(159,549,cs),
(159,477,o),
(197,431,o),
(241,398,c),
(160,361,o),
(107,285,o),
(107,196,cs),
(107,72,o),
(198,-16,o),
(333,-16,cs),
(454,-16,o),
(545,48,o),
(614,234,cs),
(616,240,o),
(617,246,o),
(617,252,cs),
(617,275,o),
(599,291,o),
(580,291,cs),
(566,291,o),
(551,282,o),
(543,260,cs)
);
}
);
width = 532;
}
);
leftKerningGroup = E;
rightKerningGroup = A;
unicode = 203;
},
{
glyphname = Igrave;
layers = (
{
anchors = (
{
name = t.uni0302_2;
position = "{296, 707}";
},
{
name = b.uni0326_1_2;
position = "{228, 0}";
}
);
hints = (
{
horizontal = 1;
place = (-1,85);
type = Stem;
},
{
horizontal = 1;
place = (641,85);
type = Stem;
},
{
place = (89,96);
type = Stem;
},
{
place = (343,97);
type = Stem;
}
);
layerId = "986E1480-5ACC-463A-8EAE-4F79F3B98EB6";
shapes = (
{
closed = 1;
nodes = (
(281,906,ls),
(268,919,o),
(254,924,o),
(242,924,cs),
(220,924,o),
(203,908,o),
(203,886,cs),
(203,874,o),
(209,861,o),
(221,848,cs),
(283,783,ls),
(295,770,o),
(309,765,o),
(321,765,cs),
(342,765,o),
(359,782,o),
(359,804,cs),
(359,816,o),
(354,829,o),
(342,842,cs)
);
},
{
closed = 1;
nodes = (
(342,613,o),
(343,589,o),
(343,566,cs),
(343,232,o),
(302,84,o),
(235,84,cs),
(199,84,o),
(188,115,o),
(157,115,cs),
(135,115,o),
(119,98,o),
(119,72,cs),
(119,34,o),
(171,-1,o),
(235,-1,cs),
(377,-1,o),
(440,152,o),
(440,565,cs),
(440,600,o),
(440,636,o),
(438,676,cs),
(437,701,o),
(422,714,o),
(398,718,cs),
(362,723,o),
(320,726,o),
(276,726,cs),
(162,726,o),
(89,662,o),
(89,576,cs),
(89,505,o),
(151,434,o),
(212,434,cs),
(239,434,o),
(256,452,o),
(256,477,cs),
(256,492,o),
(245,503,o),
(230,515,c),
(206,532,o),
(185,551,o),
(185,577,cs),
(185,617,o),
(218,641,o),
(278,641,cs),
(299,641,o),
(321,640,o),
(342,638,c)
);
}
);
width = 455;
}
);
leftKerningGroup = I2;
rightKerningGroup = I;
unicode = 204;
},
{
glyphname = Iacute;
layers = (
{
anchors = (
{
name = t.uni0302_2;
position = "{296, 707}";
},
{
name = b.uni0326_1_2;
position = "{228, 0}";
}
);
hints = (
{
horizontal = 1;
place = (-1,85);
type = Stem;
},
{
horizontal = 1;
place = (641,85);
type = Stem;
},
{
place = (89,96);
type = Stem;
},
{
place = (343,97);
type = Stem;
}
);
layerId = "986E1480-5ACC-463A-8EAE-4F79F3B98EB6";
shapes = (
{
closed = 1;
nodes = (
(282,842,ls),
(270,829,o),
(265,816,o),
(265,804,cs),
(265,782,o),
(282,765,o),
(303,765,cs),
(315,765,o),
(329,770,o),
(341,783,cs),
(403,848,ls),
(415,861,o),
(420,874,o),
(420,886,cs),
(420,908,o),
(403,925,o),
(382,925,cs),
(370,925,o),
(356,919,o),
(343,906,cs)
);
},
{
closed = 1;
nodes = (
(342,613,o),
(343,589,o),
(343,566,cs),
(343,232,o),
(302,84,o),
(235,84,cs),
(199,84,o),
(188,115,o),
(157,115,cs),
(135,115,o),
(119,98,o),
(119,72,cs),
(119,34,o),
(171,-1,o),
(235,-1,cs),
(377,-1,o),
(440,152,o),
(440,565,cs),
(440,600,o),
(440,636,o),
(438,676,cs),
(437,701,o),
(422,714,o),
(398,718,cs),
(362,723,o),
(320,726,o),
(276,726,cs),
(162,726,o),
(89,662,o),
(89,576,cs),
(89,505,o),
(151,434,o),
(212,434,cs),
(239,434,o),
(256,452,o),
(256,477,cs),
(256,492,o),
(245,503,o),
(230,515,c),
(206,532,o),
(185,551,o),
(185,577,cs),
(185,617,o),
(218,641,o),
(278,641,cs),
(299,641,o),
(321,640,o),
(342,638,c)
);
}
);
width = 455;
}
);
leftKerningGroup = I2;
rightKerningGroup = I;
unicode = 205;
},
{
glyphname = Icircumflex;
layers = (
{
anchors = (
{
name = t.uni0302_2;
position = "{296, 707}";
},
{
name = b.uni0326_1_2;
position = "{228, 0}";
}
);
hints = (
{
horizontal = 1;
place = (-1,85);
type = Stem;
},
{
horizontal = 1;
place = (641,85);
type = Stem;
},
{
place = (89,96);
type = Stem;
},
{
place = (343,97);
type = Stem;
}
);
layerId = "986E1480-5ACC-463A-8EAE-4F79F3B98EB6";
shapes = (
{
closed = 1;
nodes = (
(304,812,ls),
(309,815,o),
(313,816,o),
(317,816,cs),
(321,816,o),
(326,814,o),
(330,810,cs),
(352,785,ls),
(363,773,o),
(375,768,o),
(386,768,cs),
(407,768,o),
(424,785,o),
(424,806,cs),
(424,816,o),
(421,826,o),
(412,836,cs),
(354,901,ls),
(346,910,o),
(338,915,o),
(328,915,cs),
(321,915,o),
(314,912,o),
(306,907,cs),
(218,847,ls),
(200,835,o),
(193,821,o),
(193,808,cs),
(193,788,o),
(210,771,o),
(231,771,cs),
(240,771,o),
(249,774,o),
(258,780,cs)
);
},
{
closed = 1;
nodes = (
(342,613,o),
(343,589,o),
(343,566,cs),
(343,232,o),
(302,84,o),
(235,84,cs),
(199,84,o),
(188,115,o),
(157,115,cs),
(135,115,o),
(119,98,o),
(119,72,cs),
(119,34,o),
(171,-1,o),
(235,-1,cs),
(377,-1,o),
(440,152,o),
(440,565,cs),
(440,600,o),
(440,636,o),
(438,676,cs),
(437,701,o),
(422,714,o),
(398,718,cs),
(362,723,o),
(320,726,o),
(276,726,cs),
(162,726,o),
(89,662,o),
(89,576,cs),
(89,505,o),
(151,434,o),
(212,434,cs),
(239,434,o),
(256,452,o),
(256,477,cs),
(256,492,o),
(245,503,o),
(230,515,c),
(206,532,o),
(185,551,o),
(185,577,cs),
(185,617,o),
(218,641,o),
(278,641,cs),
(299,641,o),
(321,640,o),
(342,638,c)
);
}
);
width = 455;
}
);
leftKerningGroup = I2;
rightKerningGroup = I;
unicode = 206;
},
{
glyphname = Idieresis;
layers = (
{
anchors = (
{
name = t.uni0302_2;
position = "{296, 707}";
},
{
name = b.uni0326_1_2;
position = "{228, 0}";
}
);
hints = (
{
horizontal = 1;
place = (-1,85);
type = Stem;
},
{
horizontal = 1;
place = (641,85);
type = Stem;
},
{
horizontal = 1;
place = (774,101);
type = Stem;
},
{
place = (89,96);
type = Stem;
},
{
place = (191,101);
type = Stem;
},
{
place = (329,101);
type = Stem;
},
{
place = (343,97);
type = Stem;
}
);
layerId = "986E1480-5ACC-463A-8EAE-4F79F3B98EB6";
shapes = (
{
closed = 1;
nodes = (
(269,774,o),
(292,797,o),
(292,824,cs),
(292,852,o),
(269,875,o),
(241,875,cs),
(214,875,o),
(191,852,o),
(191,824,cs),
(191,797,o),
(214,774,o),
(241,774,cs)
);
},
{
closed = 1;
nodes = (
(407,774,o),
(430,797,o),
(430,824,cs),
(430,852,o),
(407,875,o),
(380,875,cs),
(352,875,o),
(329,852,o),
(329,824,cs),
(329,797,o),
(352,774,o),
(380,774,cs)
);
},
{
closed = 1;
nodes = (
(342,613,o),
(343,589,o),
(343,566,cs),
(343,232,o),
(302,84,o),
(235,84,cs),
(199,84,o),
(188,115,o),
(157,115,cs),
(135,115,o),
(119,98,o),
(119,72,cs),
(119,34,o),
(171,-1,o),
(235,-1,cs),
(377,-1,o),
(440,152,o),
(440,565,cs),
(440,600,o),
(440,636,o),
(438,676,cs),
(437,701,o),
(422,714,o),
(398,718,cs),
(362,723,o),
(320,726,o),
(276,726,cs),
(162,726,o),
(89,662,o),
(89,576,cs),
(89,505,o),
(151,434,o),
(212,434,cs),
(239,434,o),
(256,452,o),
(256,477,cs),
(256,492,o),
(245,503,o),
(230,515,c),
(206,532,o),
(185,551,o),
(185,577,cs),
(185,617,o),
(218,641,o),
(278,641,cs),
(299,641,o),
(321,640,o),
(342,638,c)
);
}
);
width = 455;
}
);
leftKerningGroup = I2;
rightKerningGroup = I;
unicode = 207;
},
{
glyphname = Eth;
layers = (
{
anchors = (
{
name = t.uni0302_2;
position = "{449, 703}";
}
);
hints = (
{
horizontal = 1;
place = (-9,88);
type = Stem;
},
{
horizontal = 1;
place = (-8,81);
type = Stem;
},
{
horizontal = 1;
place = (117,77);
type = Stem;
},
{
horizontal = 1;
place = (233,83);
type = Stem;
},
{
horizontal = 1;
place = (374,84);
type = Stem;
},
{
horizontal = 1;
place = (634,88);
type = Stem;
},
{
place = (76,89);
type = Stem;
},
{
place = (144,97);
type = Stem;
},
{
place = (330,97);
type = Stem;
},
{
place = (693,97);
type = Stem;
}
);
layerId = "986E1480-5ACC-463A-8EAE-4F79F3B98EB6";
shapes = (
{
closed = 1;
nodes = (
(264,722,o),
(144,639,o),
(144,519,cs),
(144,431,o),
(211,374,o),
(315,374,cs),
(331,374,l),
(331,355,o),
(329,335,o),
(327,316,c),
(303,315,o),
(278,316,o),
(253,319,c),
(249,319,o),
(246,320,o),
(243,320,cs),
(212,320,o),
(197,300,o),
(197,280,cs),
(197,261,o),
(210,243,o),
(238,237,cs),
(263,232,o),
(289,230,o),
(314,229,c),
(308,207,o),
(302,186,o),
(295,166,c),
(263,182,o),
(230,194,o),
(195,194,cs),
(116,194,o),
(76,143,o),
(76,91,cs),
(76,41,o),
(115,-8,o),
(194,-8,cs),
(251,-8,o),
(295,14,o),
(330,51,c),
(382,21,o),
(443,-9,o),
(508,-9,cs),
(656,-9,o),
(790,123,o),
(790,365,cs),
(790,587,o),
(657,722,o),
(436,722,cs)
);
},
{
closed = 1;
nodes = (
(455,79,o),
(415,98,o),
(375,121,c),
(392,156,o),
(404,197,o),
(413,241,c),
(448,250,o),
(482,262,o),
(516,278,c),
(533,287,o),
(540,301,o),
(540,316,cs),
(540,336,o),
(525,356,o),
(500,356,cs),
(492,356,o),
(483,354,o),
(473,349,cs),
(458,341,o),
(442,335,o),
(425,330,c),
(427,350,o),
(428,370,o),
(429,391,c),
(448,397,o),
(466,404,o),
(483,413,cs),
(504,424,o),
(513,441,o),
(513,457,cs),
(513,478,o),
(497,494,o),
(471,494,cs),
(460,494,o),
(445,489,o),
(427,483,c),
(427,499,o),
(425,514,o),
(424,526,cs),
(420,554,o),
(398,571,o),
(374,571,c),
(350,570,o),
(330,551,o),
(330,520,cs),
(330,501,o),
(332,479,o),
(332,459,c),
(326,458,o),
(321,458,o),
(315,458,cs),
(267,458,o),
(241,480,o),
(241,520,cs),
(241,590,o),
(315,634,o),
(436,634,cs),
(604,634,o),
(693,542,o),
(693,365,cs),
(693,178,o),
(606,79,o),
(496,79,cs)
);
},
{
closed = 1;
nodes = (
(165,106,o),
(175,117,o),
(194,117,cs),
(210,117,o),
(230,109,o),
(252,98,c),
(236,82,o),
(216,73,o),
(194,73,cs),
(175,73,o),
(165,84,o),
(165,95,cs)
);
}
);
width = 788;
}
);
leftKerningGroup = D2;
rightKerningGroup = D;
unicode = 208;
},
{
glyphname = Ntilde;
layers = (
{
anchors = (
{
name = t.uni0302_2;
position = "{559, 703}";
},
{
name = b.uni0326_1_2;
position = "{497, 3}";
}
);
hints = (
{
horizontal = 1;
place = (-4,85);
type = Stem;
},
{
horizontal = 1;
place = (-11,21);
target = up;
type = BottomGhost;
},
{
horizontal = 1;
place = (635,84);
type = Stem;
},
{
horizontal = 1;
place = (646,85);
type = Stem;
},
{
horizontal = 1;
place = (773,81);
type = Stem;
},
{
horizontal = 1;
place = (803,83);
type = Stem;
},
{
place = (621,97);
type = Stem;
},
{
place = (637,97);
type = Stem;
}
);
layerId = "986E1480-5ACC-463A-8EAE-4F79F3B98EB6";
shapes = (
{
closed = 1;
nodes = (
(453,798,o),
(459,803,o),
(465,803,cs),
(478,803,o),
(523,773,o),
(554,773,cs),
(579,773,o),
(600,784,o),
(619,806,cs),
(629,818,o),
(633,830,o),
(633,841,cs),
(633,864,o),
(614,882,o),
(594,882,cs),
(584,882,o),
(573,877,o),
(564,866,cs),
(556,857,o),
(551,854,o),
(546,854,cs),
(533,854,o),
(487,886,o),
(457,886,cs),
(432,886,o),
(405,873,o),
(389,851,cs),
(381,840,o),
(377,828,o),
(377,818,cs),
(377,796,o),
(394,778,o),
(415,778,cs),
(425,778,o),
(437,782,o),
(447,793,c)
);
},
{
closed = 1;
nodes = (
(826,185,o),
(778,81,o),
(745,81,cs),
(728,81,o),
(718,97,o),
(718,140,cs),
(718,198,o),
(734,410,o),
(734,481,cs),
(734,646,o),
(678,719,o),
(567,719,cs),
(466,719,o),
(393,632,o),
(339,487,c),
(323,651,o),
(270,731,o),
(167,731,cs),
(116,731,o),
(72,706,o),
(39,658,cs),
(29,644,o),
(25,630,o),
(25,618,cs),
(25,595,o),
(41,580,o),
(59,580,cs),
(76,580,o),
(89,588,o),
(102,605,cs),
(124,636,o),
(140,646,o),
(159,646,cs),
(209,646,o),
(250,582,o),
(250,317,cs),
(250,233,o),
(235,101,o),
(226,50,cs),
(225,46,o),
(225,42,o),
(225,39,cs),
(225,9,o),
(246,-11,o),
(271,-11,cs),
(297,-11,o),
(320,7,o),
(324,42,cs),
(329,80,o),
(335,135,o),
(341,196,cs),
(365,443,o),
(475,635,o),
(564,635,cs),
(614,635,o),
(637,605,o),
(637,483,cs),
(637,415,o),
(621,203,o),
(621,153,cs),
(621,45,o),
(669,-4,o),
(738,-4,cs),
(815,-4,o),
(867,78,o),
(925,234,cs),
(927,240,o),
(928,246,o),
(928,252,cs),
(928,275,o),
(910,291,o),
(891,291,cs),
(877,291,o),
(862,282,o),
(854,260,cs)
);
}
);
width = 782;
}
);
leftKerningGroup = M;
rightKerningGroup = A;
unicode = 209;
},
{
glyphname = Ograve;
layers = (
{
anchors = (
{
name = t.uni0302_2;
position = "{468, 703}";
}
);
hints = (
{
horizontal = 1;
place = (-13,85);
type = Stem;
},
{
horizontal = 1;
place = (74,77);
type = Stem;
},
{
horizontal = 1;
place = (636,84);
type = Stem;
},
{
place = (102,97);
type = Stem;
},
{
place = (263,87);
type = Stem;
},
{
place = (579,97);
type = Stem;
}
);
layerId = "986E1480-5ACC-463A-8EAE-4F79F3B98EB6";
shapes = (
{
closed = 1;
nodes = (
(455,779,ls),
(467,766,o),
(481,761,o),
(493,761,cs),
(514,761,o),
(531,778,o),
(531,800,cs),
(531,812,o),
(526,825,o),
(514,838,cs),
(453,902,ls),
(440,915,o),
(426,920,o),
(414,920,cs),
(392,920,o),
(375,904,o),
(375,882,cs),
(375,870,o),
(381,857,o),
(393,844,cs)
);
},
{
closed = 1;
nodes = (
(720,193,o),
(673,158,o),
(616,151,c),
(653,222,o),
(676,313,o),
(676,423,cs),
(676,616,o),
(583,720,o),
(465,720,cs),
(430,720,o),
(394,706,o),
(362,680,c),
(356,691,o),
(343,698,o),
(327,698,cs),
(316,698,o),
(304,695,o),
(291,690,cs),
(185,651,o),
(102,484,o),
(102,315,cs),
(102,108,o),
(218,-13,o),
(376,-13,cs),
(445,-13,o),
(511,18,o),
(564,76,c),
(574,75,o),
(584,74,o),
(594,74,cs),
(691,74,o),
(774,116,o),
(817,234,cs),
(819,240,o),
(820,246,o),
(820,251,cs),
(820,274,o),
(802,289,o),
(783,289,cs),
(769,289,o),
(754,280,o),
(746,260,cs)
);
},
{
closed = 1;
nodes = (
(523,636,o),
(579,570,o),
(579,426,cs),
(579,311,o),
(555,224,o),
(520,166,c),
(430,202,o),
(350,298,o),
(350,432,cs),
(350,568,o),
(407,636,o),
(464,636,cs)
);
},
{
closed = 1;
nodes = (
(274,72,o),
(199,153,o),
(199,313,cs),
(199,422,o),
(235,529,o),
(292,582,c),
(274,540,o),
(263,488,o),
(263,429,cs),
(263,266,o),
(354,153,o),
(464,103,c),
(437,82,o),
(407,72,o),
(377,72,cs)
);
}
);
width = 735;
}
);
leftKerningGroup = O;
rightKerningGroup = A;
unicode = 210;
},
{
glyphname = Oacute;
layers = (
{
anchors = (
{
name = t.uni0302_2;
position = "{468, 703}";
}
);
hints = (
{
horizontal = 1;
place = (-13,85);
type = Stem;
},
{
horizontal = 1;
place = (74,77);
type = Stem;
},
{
horizontal = 1;
place = (636,84);
type = Stem;
},
{
place = (102,97);
type = Stem;
},
{
place = (263,87);
type = Stem;
},
{
place = (579,97);
type = Stem;
}
);
layerId = "986E1480-5ACC-463A-8EAE-4F79F3B98EB6";
shapes = (
{
closed = 1;
nodes = (
(575,844,ls),
(587,857,o),
(592,870,o),
(592,882,cs),
(592,904,o),
(575,921,o),
(554,921,cs),
(542,921,o),
(528,915,o),
(515,902,cs),
(454,838,ls),
(442,825,o),
(437,812,o),
(437,800,cs),
(437,778,o),
(454,761,o),
(475,761,cs),
(487,761,o),
(501,766,o),
(513,779,cs)
);
},
{
closed = 1;
nodes = (
(720,193,o),
(673,158,o),
(616,151,c),
(653,222,o),
(676,313,o),
(676,423,cs),
(676,616,o),
(583,720,o),
(465,720,cs),
(430,720,o),
(394,706,o),
(362,680,c),
(356,691,o),
(343,698,o),
(327,698,cs),
(316,698,o),
(304,695,o),
(291,690,cs),
(185,651,o),
(102,484,o),
(102,315,cs),
(102,108,o),
(218,-13,o),
(376,-13,cs),
(445,-13,o),
(511,18,o),
(564,76,c),
(574,75,o),
(584,74,o),
(594,74,cs),
(691,74,o),
(774,116,o),
(817,234,cs),
(819,240,o),
(820,246,o),
(820,251,cs),
(820,274,o),
(802,289,o),
(783,289,cs),
(769,289,o),
(754,280,o),
(746,260,cs)
);
},
{
closed = 1;
nodes = (
(523,636,o),
(579,570,o),
(579,426,cs),
(579,311,o),
(555,224,o),
(520,166,c),
(430,202,o),
(350,298,o),
(350,432,cs),
(350,568,o),
(407,636,o),
(464,636,cs)
);
},
{
closed = 1;
nodes = (
(274,72,o),
(199,153,o),
(199,313,cs),
(199,422,o),
(235,529,o),
(292,582,c),
(274,540,o),
(263,488,o),
(263,429,cs),
(263,266,o),
(354,153,o),
(464,103,c),
(437,82,o),
(407,72,o),
(377,72,cs)
);
}
);
width = 735;
}
);
leftKerningGroup = O;
rightKerningGroup = A;
unicode = 211;
},
{
glyphname = Ocircumflex;
layers = (
{
anchors = (
{
name = t.uni0302_2;
position = "{468, 703}";
}
);
hints = (
{
horizontal = 1;
place = (-13,85);
type = Stem;
},
{
horizontal = 1;
place = (74,77);
type = Stem;
},
{
horizontal = 1;
place = (636,84);
type = Stem;
},
{
place = (102,97);
type = Stem;
},
{
place = (263,87);
type = Stem;
},
{
place = (579,97);
type = Stem;
}
);
layerId = "986E1480-5ACC-463A-8EAE-4F79F3B98EB6";
shapes = (
{
closed = 1;
nodes = (
(476,808,ls),
(481,811,o),
(485,812,o),
(489,812,cs),
(493,812,o),
(498,810,o),
(502,806,cs),
(524,781,ls),
(535,769,o),
(547,764,o),
(558,764,cs),
(579,764,o),
(596,781,o),
(596,802,cs),
(596,812,o),
(593,822,o),
(584,832,cs),
(526,897,ls),
(518,906,o),
(510,911,o),
(500,911,cs),
(493,911,o),
(486,908,o),
(478,903,cs),
(390,843,ls),
(372,831,o),
(365,817,o),
(365,804,cs),
(365,784,o),
(382,767,o),
(403,767,cs),
(412,767,o),
(421,770,o),
(430,776,cs)
);
},
{
closed = 1;
nodes = (
(720,193,o),
(673,158,o),
(616,151,c),
(653,222,o),
(676,313,o),
(676,423,cs),
(676,616,o),
(583,720,o),
(465,720,cs),
(430,720,o),
(394,706,o),
(362,680,c),
(356,691,o),
(343,698,o),
(327,698,cs),
(316,698,o),
(304,695,o),
(291,690,cs),
(185,651,o),
(102,484,o),
(102,315,cs),
(102,108,o),
(218,-13,o),
(376,-13,cs),
(445,-13,o),
(511,18,o),
(564,76,c),
(574,75,o),
(584,74,o),
(594,74,cs),
(691,74,o),
(774,116,o),
(817,234,cs),
(819,240,o),
(820,246,o),
(820,251,cs),
(820,274,o),
(802,289,o),
(783,289,cs),
(769,289,o),
(754,280,o),
(746,260,cs)
);
},
{
closed = 1;
nodes = (
(523,636,o),
(579,570,o),
(579,426,cs),
(579,311,o),
(555,224,o),
(520,166,c),
(430,202,o),
(350,298,o),
(350,432,cs),
(350,568,o),
(407,636,o),
(464,636,cs)
);
},
{
closed = 1;
nodes = (
(274,72,o),
(199,153,o),
(199,313,cs),
(199,422,o),
(235,529,o),
(292,582,c),
(274,540,o),
(263,488,o),
(263,429,cs),
(263,266,o),
(354,153,o),
(464,103,c),
(437,82,o),
(407,72,o),
(377,72,cs)
);
}
);
width = 735;
}
);
leftKerningGroup = O;
rightKerningGroup = A;
unicode = 212;
},
{
glyphname = Otilde;
layers = (
{
anchors = (
{
name = t.uni0302_2;
position = "{468, 703}";
}
);
hints = (
{
horizontal = 1;
place = (-13,85);
type = Stem;
},
{
horizontal = 1;
place = (74,77);
type = Stem;
},
{
horizontal = 1;
place = (636,84);
type = Stem;
},
{
horizontal = 1;
place = (773,81);
type = Stem;
},
{
horizontal = 1;
place = (803,83);
type = Stem;
},
{
place = (102,97);
type = Stem;
},
{
place = (263,87);
type = Stem;
},
{
place = (579,97);
type = Stem;
}
);
layerId = "986E1480-5ACC-463A-8EAE-4F79F3B98EB6";
shapes = (
{
closed = 1;
nodes = (
(423,798,o),
(429,803,o),
(435,803,cs),
(448,803,o),
(493,773,o),
(524,773,cs),
(549,773,o),
(570,784,o),
(589,806,cs),
(599,818,o),
(603,830,o),
(603,841,cs),
(603,864,o),
(584,882,o),
(564,882,cs),
(554,882,o),
(543,877,o),
(534,866,cs),
(526,857,o),
(521,854,o),
(516,854,cs),
(503,854,o),
(457,886,o),
(427,886,cs),
(402,886,o),
(375,873,o),
(359,851,cs),
(351,840,o),
(347,828,o),
(347,818,cs),
(347,796,o),
(364,778,o),
(385,778,cs),
(395,778,o),
(407,782,o),
(417,793,c)
);
},
{
closed = 1;
nodes = (
(720,193,o),
(673,158,o),
(616,151,c),
(653,222,o),
(676,313,o),
(676,423,cs),
(676,616,o),
(583,720,o),
(465,720,cs),
(430,720,o),
(394,706,o),
(362,680,c),
(356,691,o),
(343,698,o),
(327,698,cs),
(316,698,o),
(304,695,o),
(291,690,cs),
(185,651,o),
(102,484,o),
(102,315,cs),
(102,108,o),
(218,-13,o),
(376,-13,cs),
(445,-13,o),
(511,18,o),
(564,76,c),
(574,75,o),
(584,74,o),
(594,74,cs),
(691,74,o),
(774,116,o),
(817,234,cs),
(819,240,o),
(820,246,o),
(820,251,cs),
(820,274,o),
(802,289,o),
(783,289,cs),
(769,289,o),
(754,280,o),
(746,260,cs)
);
},
{
closed = 1;
nodes = (
(523,636,o),
(579,570,o),
(579,426,cs),
(579,311,o),
(555,224,o),
(520,166,c),
(430,202,o),
(350,298,o),
(350,432,cs),
(350,568,o),
(407,636,o),
(464,636,cs)
);
},
{
closed = 1;
nodes = (
(274,72,o),
(199,153,o),
(199,313,cs),
(199,422,o),
(235,529,o),
(292,582,c),
(274,540,o),
(263,488,o),
(263,429,cs),
(263,266,o),
(354,153,o),
(464,103,c),
(437,82,o),
(407,72,o),
(377,72,cs)
);
}
);
width = 735;
}
);
leftKerningGroup = O;
rightKerningGroup = A;
unicode = 213;
},
{
glyphname = Odieresis;
layers = (
{
anchors = (
{
name = t.uni0302_2;
position = "{468, 703}";
}
);
hints = (
{
horizontal = 1;
place = (-13,85);
type = Stem;
},
{
horizontal = 1;
place = (74,77);
type = Stem;
},
{
horizontal = 1;
place = (636,84);
type = Stem;
},
{
horizontal = 1;
place = (770,101);
type = Stem;
},
{
place = (102,97);
type = Stem;
},
{
place = (263,87);
type = Stem;
},
{
place = (363,101);
type = Stem;
},
{
place = (501,101);
type = Stem;
},
{
place = (579,97);
type = Stem;
}
);
layerId = "986E1480-5ACC-463A-8EAE-4F79F3B98EB6";
shapes = (
{
closed = 1;
nodes = (
(441,770,o),
(464,793,o),
(464,820,cs),
(464,848,o),
(441,871,o),
(413,871,cs),
(386,871,o),
(363,848,o),
(363,820,cs),
(363,793,o),
(386,770,o),
(413,770,cs)
);
},
{
closed = 1;
nodes = (
(579,770,o),
(602,793,o),
(602,820,cs),
(602,848,o),
(579,871,o),
(552,871,cs),
(524,871,o),
(501,848,o),
(501,820,cs),
(501,793,o),
(524,770,o),
(552,770,cs)
);
},
{
closed = 1;
nodes = (
(720,193,o),
(673,158,o),
(616,151,c),
(653,222,o),
(676,313,o),
(676,423,cs),
(676,616,o),
(583,720,o),
(465,720,cs),
(430,720,o),
(394,706,o),
(362,680,c),
(356,691,o),
(343,698,o),
(327,698,cs),
(316,698,o),
(304,695,o),
(291,690,cs),
(185,651,o),
(102,484,o),
(102,315,cs),
(102,108,o),
(218,-13,o),
(376,-13,cs),
(445,-13,o),
(511,18,o),
(564,76,c),
(574,75,o),
(584,74,o),
(594,74,cs),
(691,74,o),
(774,116,o),
(817,234,cs),
(819,240,o),
(820,246,o),
(820,251,cs),
(820,274,o),
(802,289,o),
(783,289,cs),
(769,289,o),
(754,280,o),
(746,260,cs)
);
},
{
closed = 1;
nodes = (
(523,636,o),
(579,570,o),
(579,426,cs),
(579,311,o),
(555,224,o),
(520,166,c),
(430,202,o),
(350,298,o),
(350,432,cs),
(350,568,o),
(407,636,o),
(464,636,cs)
);
},
{
closed = 1;
nodes = (
(274,72,o),
(199,153,o),
(199,313,cs),
(199,422,o),
(235,529,o),
(292,582,c),
(274,540,o),
(263,488,o),
(263,429,cs),
(263,266,o),
(354,153,o),
(464,103,c),
(437,82,o),
(407,72,o),
(377,72,cs)
);
}
);
width = 735;
}
);
leftKerningGroup = O;
rightKerningGroup = A;
unicode = 214;
},
{
glyphname = multiply;
layers = (
{
hints = (
{
horizontal = 1;
place = (210,258);
type = Stem;
},
{
place = (76,264);
type = Stem;
}
);
layerId = "986E1480-5ACC-463A-8EAE-4F79F3B98EB6";
shapes = (
{
closed = 1;
nodes = (
(270,341,l),
(321,392,l),
(331,403,o),
(336,414,o),
(336,425,cs),
(336,448,o),
(315,468,o),
(293,468,cs),
(281,468,o),
(271,463,o),
(261,454,c),
(208,401,l),
(158,451,l),
(148,460,o),
(137,465,o),
(126,465,cs),
(103,465,o),
(84,445,o),
(84,421,cs),
(84,411,o),
(88,400,o),
(98,389,c),
(147,341,l),
(91,285,l),
(81,274,o),
(76,263,o),
(76,252,cs),
(76,229,o),
(96,210,o),
(119,210,cs),
(130,210,o),
(141,214,o),
(151,223,c),
(208,280,l),
(265,224,ls),
(275,215,o),
(285,210,o),
(296,210,cs),
(319,210,o),
(340,230,o),
(340,253,cs),
(340,264,o),
(335,275,o),
(325,286,c)
);
}
);
width = 377;
}
);
unicode = 215;
},
{
glyphname = Oslash;
layers = (
{
anchors = (
{
name = t.uni0302_2;
position = "{372, 700}";
},
{
name = b.uni0326_1_2;
position = "{372, 0}";
}
);
hints = (
{
horizontal = 1;
place = (-13,85);
type = Stem;
},
{
horizontal = 1;
place = (-10,21);
target = up;
type = BottomGhost;
},
{
horizontal = 1;
place = (76,78);
type = Stem;
},
{
horizontal = 1;
place = (636,84);
type = Stem;
},
{
place = (102,97);
type = Stem;
},
{
place = (579,97);
type = Stem;
}
);
layerId = "986E1480-5ACC-463A-8EAE-4F79F3B98EB6";
shapes = (
{
closed = 1;
nodes = (
(727,192,o),
(682,156,o),
(618,154,c),
(654,224,o),
(676,314,o),
(676,423,cs),
(676,502,o),
(659,567,o),
(628,615,c),
(641,633,o),
(651,649,o),
(660,663,cs),
(668,675,o),
(671,686,o),
(671,696,cs),
(671,719,o),
(654,734,o),
(634,734,cs),
(619,734,o),
(604,727,o),
(592,709,cs),
(571,677,l),
(532,706,o),
(485,720,o),
(432,720,cs),
(240,720,o),
(102,552,o),
(102,315,cs),
(102,224,o),
(124,150,o),
(162,96,c),
(153,83,o),
(145,72,o),
(137,62,cs),
(128,51,o),
(125,40,o),
(125,29,cs),
(125,7,o),
(142,-10,o),
(162,-10,cs),
(175,-10,o),
(189,-4,o),
(201,12,cs),
(207,20,o),
(213,28,o),
(220,36,c),
(263,4,o),
(317,-13,o),
(376,-13,cs),
(446,-13,o),
(512,18,o),
(565,77,c),
(579,76,o),
(593,76,o),
(608,76,cs),
(688,76,o),
(781,116,o),
(824,234,cs),
(826,240,o),
(827,246,o),
(827,252,cs),
(827,274,o),
(809,289,o),
(790,289,cs),
(776,289,o),
(761,281,o),
(753,260,cs)
);
},
{
closed = 1;
nodes = (
(199,503,o),
(284,636,o),
(427,636,cs),
(461,636,o),
(493,625,o),
(519,601,c),
(435,479,o),
(315,306,o),
(223,178,c),
(208,214,o),
(199,259,o),
(199,313,cs)
);
},
{
closed = 1;
nodes = (
(337,72,o),
(302,84,o),
(273,108,c),
(363,229,o),
(479,395,o),
(566,522,c),
(574,495,o),
(579,463,o),
(579,426,cs),
(579,313,o),
(556,228,o),
(522,169,c),
(510,175,o),
(498,181,o),
(487,190,cs),
(478,197,o),
(469,199,o),
(460,199,cs),
(437,199,o),
(416,181,o),
(416,159,cs),
(416,146,o),
(423,132,o),
(439,119,cs),
(447,113,o),
(455,107,o),
(464,102,c),
(436,82,o),
(407,72,o),
(377,72,cs)
);
}
);
width = 742;
}
);
leftKerningGroup = O;
rightKerningGroup = A;
unicode = 216;
},
